<mxfile host="app.diagrams.net" agent="Mozilla/5.0 (Macintosh; Intel Mac OS X 10_15_7) AppleWebKit/605.1.15 (KHTML, like Gecko) Version/18.4 Safari/605.1.15" version="26.2.13">
  <diagram name="Page-1" id="pXuy_awq32M0ohuX_UZy">
    <mxGraphModel dx="803" dy="674" grid="0" gridSize="10" guides="1" tooltips="1" connect="1" arrows="1" fold="1" page="1" pageScale="1" pageWidth="827" pageHeight="1169" math="0" shadow="0">
      <root>
        <mxCell id="0" />
        <mxCell id="1" parent="0" />
        <mxCell id="NNAQWYMkmzyeSuAAai6Q-3" value="" style="edgeStyle=orthogonalEdgeStyle;rounded=0;orthogonalLoop=1;jettySize=auto;html=1;strokeWidth=2;endArrow=block;endFill=1;fontStyle=0" parent="1" source="NNAQWYMkmzyeSuAAai6Q-1" target="NNAQWYMkmzyeSuAAai6Q-2" edge="1">
          <mxGeometry relative="1" as="geometry" />
        </mxCell>
        <mxCell id="NNAQWYMkmzyeSuAAai6Q-1" value="input street network" style="rounded=0;whiteSpace=wrap;html=1;strokeWidth=2;fontStyle=0;fontSize=15;" parent="1" vertex="1">
          <mxGeometry x="150" y="555" width="120" height="60" as="geometry" />
        </mxCell>
        <mxCell id="NNAQWYMkmzyeSuAAai6Q-5" value="" style="edgeStyle=orthogonalEdgeStyle;rounded=0;orthogonalLoop=1;jettySize=auto;html=1;strokeWidth=2;endArrow=block;endFill=1;fontStyle=0" parent="1" source="NNAQWYMkmzyeSuAAai6Q-2" target="NNAQWYMkmzyeSuAAai6Q-4" edge="1">
          <mxGeometry relative="1" as="geometry" />
        </mxCell>
        <mxCell id="NNAQWYMkmzyeSuAAai6Q-2" value="topology verification and adaptation" style="rounded=0;whiteSpace=wrap;html=1;strokeWidth=2;fontStyle=0;fontSize=15;" parent="1" vertex="1">
          <mxGeometry x="330" y="555" width="120" height="60" as="geometry" />
        </mxCell>
        <mxCell id="NNAQWYMkmzyeSuAAai6Q-9" value="" style="edgeStyle=orthogonalEdgeStyle;rounded=0;orthogonalLoop=1;jettySize=auto;html=1;strokeWidth=2;endArrow=block;endFill=1;fontStyle=0" parent="1" source="NNAQWYMkmzyeSuAAai6Q-4" target="NNAQWYMkmzyeSuAAai6Q-8" edge="1">
          <mxGeometry relative="1" as="geometry" />
        </mxCell>
        <mxCell id="NNAQWYMkmzyeSuAAai6Q-4" value="face artifact detection" style="rounded=0;whiteSpace=wrap;html=1;strokeWidth=2;fontStyle=0;fontSize=15;" parent="1" vertex="1">
          <mxGeometry x="510" y="555" width="120" height="60" as="geometry" />
        </mxCell>
        <mxCell id="NNAQWYMkmzyeSuAAai6Q-11" value="" style="edgeStyle=orthogonalEdgeStyle;rounded=0;orthogonalLoop=1;jettySize=auto;html=1;strokeWidth=2;endArrow=block;endFill=1;fontStyle=0" parent="1" source="NNAQWYMkmzyeSuAAai6Q-8" target="NNAQWYMkmzyeSuAAai6Q-10" edge="1">
          <mxGeometry relative="1" as="geometry" />
        </mxCell>
        <mxCell id="NNAQWYMkmzyeSuAAai6Q-8" value="artifact classification" style="whiteSpace=wrap;html=1;rounded=0;strokeWidth=2;fontStyle=0;fontSize=15;" parent="1" vertex="1">
          <mxGeometry x="690" y="555" width="120" height="60" as="geometry" />
        </mxCell>
        <mxCell id="NNAQWYMkmzyeSuAAai6Q-13" value="" style="edgeStyle=orthogonalEdgeStyle;rounded=0;orthogonalLoop=1;jettySize=auto;html=1;strokeWidth=2;endArrow=block;endFill=1;fontStyle=0" parent="1" source="NNAQWYMkmzyeSuAAai6Q-10" target="NNAQWYMkmzyeSuAAai6Q-53" edge="1">
          <mxGeometry relative="1" as="geometry">
            <mxPoint x="1060" y="585" as="targetPoint" />
          </mxGeometry>
        </mxCell>
        <mxCell id="NNAQWYMkmzyeSuAAai6Q-10" value="geometry replacement" style="whiteSpace=wrap;html=1;rounded=0;strokeWidth=2;fontStyle=0;fontSize=15;" parent="1" vertex="1">
          <mxGeometry x="870" y="555" width="120" height="60" as="geometry" />
        </mxCell>
        <mxCell id="NNAQWYMkmzyeSuAAai6Q-37" style="edgeStyle=orthogonalEdgeStyle;rounded=0;orthogonalLoop=1;jettySize=auto;html=1;entryX=0.5;entryY=0;entryDx=0;entryDy=0;exitX=0.5;exitY=0;exitDx=0;exitDy=0;strokeWidth=2;endArrow=block;endFill=1;fontStyle=0" parent="1" source="NNAQWYMkmzyeSuAAai6Q-10" target="NNAQWYMkmzyeSuAAai6Q-4" edge="1">
          <mxGeometry relative="1" as="geometry">
            <mxPoint x="1120" y="555" as="sourcePoint" />
          </mxGeometry>
        </mxCell>
        <mxCell id="NNAQWYMkmzyeSuAAai6Q-19" style="edgeStyle=orthogonalEdgeStyle;rounded=0;orthogonalLoop=1;jettySize=auto;html=1;exitX=0.5;exitY=1;exitDx=0;exitDy=0;strokeWidth=2;fontStyle=0;fontSize=12;" parent="1" edge="1">
          <mxGeometry relative="1" as="geometry">
            <mxPoint x="345" y="710" as="sourcePoint" />
            <mxPoint x="345" y="710" as="targetPoint" />
          </mxGeometry>
        </mxCell>
        <mxCell id="NNAQWYMkmzyeSuAAai6Q-41" style="edgeStyle=orthogonalEdgeStyle;rounded=0;orthogonalLoop=1;jettySize=auto;html=1;entryX=0.5;entryY=0;entryDx=0;entryDy=0;strokeWidth=2;fontStyle=0;fontSize=12;endArrow=block;endFill=1;" parent="1" source="NNAQWYMkmzyeSuAAai6Q-20" target="NNAQWYMkmzyeSuAAai6Q-21" edge="1">
          <mxGeometry relative="1" as="geometry" />
        </mxCell>
        <mxCell id="NNAQWYMkmzyeSuAAai6Q-20" value="noding" style="rounded=1;whiteSpace=wrap;html=1;strokeWidth=2;fontStyle=0;fontSize=12;" parent="1" vertex="1">
          <mxGeometry x="340" y="680" width="100" height="30" as="geometry" />
        </mxCell>
        <mxCell id="NNAQWYMkmzyeSuAAai6Q-42" style="edgeStyle=orthogonalEdgeStyle;rounded=0;orthogonalLoop=1;jettySize=auto;html=1;entryX=0.5;entryY=0;entryDx=0;entryDy=0;strokeWidth=2;fontStyle=0;fontSize=12;endArrow=block;endFill=1;" parent="1" source="NNAQWYMkmzyeSuAAai6Q-21" target="NNAQWYMkmzyeSuAAai6Q-23" edge="1">
          <mxGeometry relative="1" as="geometry" />
        </mxCell>
        <mxCell id="NNAQWYMkmzyeSuAAai6Q-21" value="interstitial node removal" style="rounded=1;whiteSpace=wrap;html=1;strokeWidth=2;fontStyle=0;fontSize=12;" parent="1" vertex="1">
          <mxGeometry x="340" y="730" width="100" height="50" as="geometry" />
        </mxCell>
        <mxCell id="NNAQWYMkmzyeSuAAai6Q-40" style="edgeStyle=orthogonalEdgeStyle;rounded=0;orthogonalLoop=1;jettySize=auto;html=1;entryX=0.5;entryY=0;entryDx=0;entryDy=0;strokeWidth=2;fontStyle=0;fontSize=12;endArrow=block;endFill=1;" parent="1" source="NNAQWYMkmzyeSuAAai6Q-22" target="NNAQWYMkmzyeSuAAai6Q-20" edge="1">
          <mxGeometry relative="1" as="geometry" />
        </mxCell>
        <mxCell id="NNAQWYMkmzyeSuAAai6Q-22" value="deduplication" style="rounded=1;whiteSpace=wrap;html=1;strokeWidth=2;fontStyle=0;fontSize=12;" parent="1" vertex="1">
          <mxGeometry x="340" y="630" width="100" height="30" as="geometry" />
        </mxCell>
        <mxCell id="NNAQWYMkmzyeSuAAai6Q-23" value="node consolidation" style="rounded=1;whiteSpace=wrap;html=1;strokeWidth=2;fontStyle=0;fontSize=12;" parent="1" vertex="1">
          <mxGeometry x="340" y="800" width="100" height="50" as="geometry" />
        </mxCell>
        <mxCell id="NNAQWYMkmzyeSuAAai6Q-30" style="edgeStyle=orthogonalEdgeStyle;rounded=0;orthogonalLoop=1;jettySize=auto;html=1;exitX=0.5;exitY=1;exitDx=0;exitDy=0;entryX=0.5;entryY=0;entryDx=0;entryDy=0;strokeWidth=2;fontStyle=0;fontSize=12;endArrow=block;endFill=1;" parent="1" source="NNAQWYMkmzyeSuAAai6Q-28" target="NNAQWYMkmzyeSuAAai6Q-29" edge="1">
          <mxGeometry relative="1" as="geometry" />
        </mxCell>
        <mxCell id="NNAQWYMkmzyeSuAAai6Q-28" value="artifact contiguity" style="rounded=1;whiteSpace=wrap;html=1;strokeWidth=2;fontStyle=0;fontSize=12;" parent="1" vertex="1">
          <mxGeometry x="700" y="631" width="100" height="48" as="geometry" />
        </mxCell>
        <mxCell id="NNAQWYMkmzyeSuAAai6Q-29" value="CES classification" style="rounded=1;whiteSpace=wrap;html=1;strokeWidth=2;fontStyle=0;fontSize=12;" parent="1" vertex="1">
          <mxGeometry x="700" y="702" width="100" height="48" as="geometry" />
        </mxCell>
        <mxCell id="NNAQWYMkmzyeSuAAai6Q-43" style="edgeStyle=orthogonalEdgeStyle;rounded=0;orthogonalLoop=1;jettySize=auto;html=1;entryX=0.5;entryY=0;entryDx=0;entryDy=0;strokeWidth=2;fontStyle=0;fontSize=12;endArrow=block;endFill=1;" parent="1" source="NNAQWYMkmzyeSuAAai6Q-31" target="NNAQWYMkmzyeSuAAai6Q-32" edge="1">
          <mxGeometry relative="1" as="geometry" />
        </mxCell>
        <mxCell id="NNAQWYMkmzyeSuAAai6Q-31" value="isolates" style="rounded=1;whiteSpace=wrap;html=1;strokeWidth=2;fontStyle=0;fontSize=12;" parent="1" vertex="1">
          <mxGeometry x="880" y="631" width="100" height="30" as="geometry" />
        </mxCell>
        <mxCell id="NNAQWYMkmzyeSuAAai6Q-44" style="edgeStyle=orthogonalEdgeStyle;rounded=0;orthogonalLoop=1;jettySize=auto;html=1;entryX=0.5;entryY=0;entryDx=0;entryDy=0;strokeWidth=2;fontStyle=0;fontSize=12;endArrow=block;endFill=1;" parent="1" source="NNAQWYMkmzyeSuAAai6Q-32" target="NNAQWYMkmzyeSuAAai6Q-33" edge="1">
          <mxGeometry relative="1" as="geometry" />
        </mxCell>
        <mxCell id="NNAQWYMkmzyeSuAAai6Q-32" value="pairs" style="rounded=1;whiteSpace=wrap;html=1;strokeWidth=2;fontStyle=0;fontSize=12;" parent="1" vertex="1">
          <mxGeometry x="880" y="681" width="100" height="30" as="geometry" />
        </mxCell>
        <mxCell id="NNAQWYMkmzyeSuAAai6Q-33" value="clusters" style="rounded=1;whiteSpace=wrap;html=1;strokeWidth=2;fontStyle=0;fontSize=12;" parent="1" vertex="1">
          <mxGeometry x="880" y="731" width="100" height="30" as="geometry" />
        </mxCell>
        <mxCell id="NNAQWYMkmzyeSuAAai6Q-53" value="Out" style="text;html=1;align=center;verticalAlign=middle;whiteSpace=wrap;rounded=0;fontStyle=0;fontSize=13;" parent="1" vertex="1">
          <mxGeometry x="1030" y="570" width="28" height="30" as="geometry" />
        </mxCell>
        <mxCell id="NNAQWYMkmzyeSuAAai6Q-54" value="" style="rounded=0;whiteSpace=wrap;html=1;fillColor=none;dashed=1;dashPattern=8 8;fontStyle=0" parent="1" vertex="1">
          <mxGeometry x="330" y="615" width="120" height="250" as="geometry" />
        </mxCell>
        <mxCell id="NNAQWYMkmzyeSuAAai6Q-56" value="" style="rounded=0;whiteSpace=wrap;html=1;fillColor=none;dashed=1;dashPattern=8 8;fontStyle=0" parent="1" vertex="1">
          <mxGeometry x="690" y="615" width="120" height="150" as="geometry" />
        </mxCell>
        <mxCell id="NNAQWYMkmzyeSuAAai6Q-57" value="" style="rounded=0;whiteSpace=wrap;html=1;fillColor=none;dashed=1;dashPattern=8 8;fontStyle=0" parent="1" vertex="1">
          <mxGeometry x="870" y="615" width="120" height="159" as="geometry" />
        </mxCell>
        <mxCell id="NNAQWYMkmzyeSuAAai6Q-65" value="0" style="text;html=1;align=left;verticalAlign=middle;whiteSpace=wrap;rounded=0;fontStyle=1;fontSize=15;" parent="1" vertex="1">
          <mxGeometry x="150" y="530" width="60" height="30" as="geometry" />
        </mxCell>
        <mxCell id="NNAQWYMkmzyeSuAAai6Q-66" value="1" style="text;html=1;align=left;verticalAlign=middle;whiteSpace=wrap;rounded=0;fontStyle=1;fontSize=15;" parent="1" vertex="1">
          <mxGeometry x="330" y="530" width="60" height="30" as="geometry" />
        </mxCell>
        <mxCell id="NNAQWYMkmzyeSuAAai6Q-67" value="2" style="text;html=1;align=left;verticalAlign=middle;whiteSpace=wrap;rounded=0;fontStyle=1;fontSize=15;" parent="1" vertex="1">
          <mxGeometry x="510" y="530" width="60" height="30" as="geometry" />
        </mxCell>
        <mxCell id="NNAQWYMkmzyeSuAAai6Q-68" value="3" style="text;html=1;align=left;verticalAlign=middle;whiteSpace=wrap;rounded=0;fontStyle=1;fontSize=15;" parent="1" vertex="1">
          <mxGeometry x="690" y="530" width="60" height="30" as="geometry" />
        </mxCell>
        <mxCell id="NNAQWYMkmzyeSuAAai6Q-69" value="4" style="text;html=1;align=left;verticalAlign=middle;whiteSpace=wrap;rounded=0;fontStyle=1;fontSize=15;" parent="1" vertex="1">
          <mxGeometry x="870" y="530" width="60" height="30" as="geometry" />
        </mxCell>
        <mxCell id="UGAgcFjpy74Iv2Mi5U0g-1" value="" style="shape=image;verticalLabelPosition=bottom;labelBackgroundColor=default;verticalAlign=top;aspect=fixed;imageAspect=0;image=data:image/png,iVBORw0KGgoAAAANSUhEUgAAAaEAAAHTCAYAAACOQqcIAAABgWlDQ1BzUkdCIElFQzYxOTY2LTIuMQAAKJF1kbtLA0EQh788fOCDCLGwsAgarRKJCqKNYESiECTECL6a5MxDyMXjLiJiK9gGFEQbX4X+BdoK1oKgKIJYa6too+GcM4GImF1259vfzgyzs2CPZRXVcAZAzeX1aCjomZmd89S94MQts5PauGJoI5FImKrj4w6bZW/8Vq7qfv+OxsWkoYCtXnhY0fS88LhweDWvWbwt3Kpk4ovCp8I+XQoUvrX0RImfLU6X+MtiPRYdBXuLsCf9ixO/WMnoqrC8HK+aXVHK9VgvaUrmpqfEdshqxyBKiCAeJhhjlAF6GZJ9AD999MiJKvGBn/hJliVWkV1jDZ0l0mTI4xN1RbInxaZET8rMsmb1/29fjVR/Xyl7UxBqnkzzrQvqtqBYMM3PQ9MsHoHjES5ylfjlAxh8F71Q0bz74NqAs8uKltiB801oe9DievxHcsiyp1LwegLNs+C+hob5Us/K9xzfQ2xdvuoKdvegW/xdC981XmfPSMCHKQAAAAlwSFlzAAAuIwAALiMBeKU/dgAAIABJREFUeJzs3XecVNX5x/HPAksTEBBEUVAEFGmKing1P7ERW6y5YiyxRvSKGo1GxcSgMWrsYuGqsSax4VXsYo+xXEW6FJEm3YD0Drs7vz/OzHJndmZ2F2bmzsx+36/Xvtx79tyZZ3F2nrnnnvMcEBERERERERERERERERERERERERERERERERERERERERERERERERERERERERERERERERERERERERERERERERERERERERERERERERERERERERERERERERERERERERERERERERERERERERERERERERERERERERERERERERERERERERERERERERERERERERERERERERERERERERERERERERERERERERERERERERERERERERERERERERERERERERERERERERERERERERERERERERERERERERERERERERERERERERERERERERERERERERERERERERERERERERERERERERERERERERERERERERERERERERERERERERERERERERERERERkbrFcryGYccgIsWhJOwApLBEE9By4DvA9l17YcghiUgBqxd2AFJwngJ2AA4B5lmO96yujERkW+lKSGrMcrwOwI9U/fCyAbjBd+2Hcx6UiBQ0XQlJbTQH5iVpbwI8ZDnefMvxDs9xTCJSwHQlJLVmOd4lwAOYYblkfODXvmsvzl1UIlKIlIRkm1iO1wB4BPgdUD9JlwrgGeAy37XLchmbiBQOJSHZLpbjtQNeAf4vRZf1wB991x6eu6hEpFAoCUlGWI53KPAi0DFFl/nAb3zX/ip3UYlIvlMSkoyyHO9y4B6gaYouX2DWF/0vd1GJSL5SEpKMi94vegy4kOQzMMsx640G636RSN2mJCRZYzneroAHHJqiyzrgWt+1H89dVCKST5SEJOuia4eeB3ZP0WUu5n7R17mLqnYsx2uPqRKxG9A+4as+sBhYlPA11nftmaEELFIglIQkZyzHuxK4C7O4NZn/Amf4rr0kd1ElZzleCdAdOAU4Fei7jQ81FXgDeB0Y47t2RWYiFCkOSkKSU9E6c48B55P6ftE/gCvDuF9kOV4r4BrgLKBLhh9+MWZ48m7ftRdk+LFFCpKSkITCcrzdMG/Ih6Tosha4xnftJ3MUT2PgCuAmoFUtTl2NSZy1OWcj8CBwl+/aK2txnkjRURKSUFmO1x94AXNvJZkfgYG+a3+bpeevD5wD3EbqNU6wdVhtElvv+Sz2XXtd9HEaA7tGv9oD3YCTgIPTPOZy4G/AcN+1N23fbyJSmJSEJC9Yjnc1cAep7xf9B3O/6OcMPmd7zNWYlaLLl5h7OW/4rj1jO57jZMx9paOBBkm6zQBO8117yrY8h0ghUxKSvBG9X/Qk5sok1f2ix4CrtvcGv+V4fTEJJtkV2MeYrSnGbs9zJHnOzsDtwJlJfrwWONt37bcy+Zwi+U5JSPJOdN8ij9RDWWuA3/uu/UyahykBOgN9ov3HAkujj382ZrFs44RzJgI3AB/4rh3Z5l+gGpbjHQTcDRyZ8KMIMAQzcSFrzy+ST5SEJG9Zjnc08G9glxRdZmPuFwWvWHbGbDNxIrBjQv+5bffuP6vzkZcfVVIvrvB3GXA14OZqCnV0CvipwLNAi4Qf/xu42HftzbmIRSRMSkKS9yzHuw4zcSDxyiXmY0wyOhoYDrRJ93jN2nWly1FX0qRle4CfMXsf/TeDIdeY5Xj7Am9hrtqCngIu0RWRFDvtrCp5z3ftezFToJ/H7FOU6OifZ3y+BBhBNQkIYO3/ZjD5tSFsWrP0e6BvWAkIwHftaZhhx48TfnQxcFXuIxLJLV0JSUGxHG8P4FXgwFjblvUrmfDS1ZRtWlvZ74QTTuD888+nV69erFmzhrFjx3Lfffcxa9asyj4l9eq/H6koPx5zLyZUluOVYq5+fhtorgCO9137g3CiEsk+JSEpSJbj/RL4J9Duhw/uY9ksv/Jnf//73znnnHMoKYl/eW/cuJErrriCUaNGBZvPwaxTCl10duBHxG8QuAro57v29HCiEskuJSEpaP0ueWHIt89ccEdFmbmHf9JJJ+G6bsr+K1eu5Mgjj2Tp0qWxppeB32Q90BqyHK8t8C2wR6B5AnCg6s5JMdI9ISlo3/zj7LdiCQjg4osvTtu/ZcuW/PrXvw42HZiqbxh8116KWdy6LtC8P+aKTaToKAlJoatMIiUlJfTo0aPaE3r16hU87AK0zHxY28537UmYOnZBf4uWBhIpKkpCUugqrxgikQgbN26s9oT169cHD8swBUXzzT8xi2djOgKDQ4pFJGuUhKTQjQkeTJgwodoTxo8fHzycTB4moej9nxsSmv8U3WpCpGgoCUmhmwssix3cc889lJWl3obohx9+wPO8YFNG68Nl2AfErx9qBVwaUiwiWaEkJIUugil6CsCkSZO4/vrrE4fcAJg1axaXXXYZmzdvDp6brv5cqKLVEhKvhk4LIxaRbNEUbSkGjTFXNN1jDR07dsS27crFquPHj+eFF15g06a4bXvuA67Lcay1ZjneFAK/G7Cb79qLwopHJJOS7W0iUmg2YrYL/wxoCjBv3jzuv//+dOdMAm7OfmgZ8QbxSehkzJYWIgVPw3FSLMYA+zXecdfF1fSLYLbWtoANWY8qM15POD4llChEskBJSIrJzP1/8+CWTv93Ca32OJAGTeJ2SJiOKYB6BHANUPWmUf4aAwST69GW4zULKxiRTNI9ISkaluM1B1bHjiORyOdfP3bGWZhN7VanPLEAWI73FHBRoKmP79rVz0cXyXO6EpJismvwoKSkZBawkAJPQFGzE46TbUsuUnCUhKSY7JpwXEwzyBJ/FyUhKQpKQlJMEt+Yq5ukUEiUhKQoKQlJMUl8Y9aVkEieUxKSYtIu4finUKLIjsTfZZdQohDJMCUhKSaJ0653CCWK7Ej8XdYl7SVSYJSEpJgk3gNKnKhQyIp5qFHqMCUhKSbFfN+kmGf+SR2mJCTFpJiTkK6EpCipgKkUk2JKQi2AA4CDgK6zPh3ete0+/dmh7V7UL20CxTX9XOowJSEpJkuALUBp9Liv5Xgl0X15CkUD4HrgFrb+Hiz5/hOWfP8JJfUa0KHvQNrs3V9JSIqCasdJUbEc72PgqEDTAb5rj0/VP890BV7AXP1UZzRwDjAzqxGJZJnuCUmxSdz24NRQoqi9RsBIEhJQs2bN6NmzJ82aVSmafTDwWvQ8kYKlJCTF5o2E40LZe+cWoEfsoEuXLrz66qtMnTqVUaNGMXXqVF599VU6d+4cPKcX8JccxymSURqOk6JjOd44oE+gqbPv2olVqPNJZ+AHoh8Ke/bsyeuvv07jxo2rdNy4cSOnnHIKU6ZMiTVVAF2AOTmKVSSjdCUkxShxSO76UKKouUOJ/i2WlJQwbNiwpAkIoHHjxjz44IPBpnrR80UKkpKQFKMXgPLA8e8sx9snrGBqoPI+UJcuXdhnn/Sh7rvvvonDcjWZyCCSl5SEpOj4rj0TeDLQVB+4M6RwaqJ37Jtu3brV6ISEfr0yHI9IzigJSbG6lfiCpqdZjpevw1ZzY98sXLiwRick9JuX4XhEckZJSIqS79qLgfsSmodbjpePlbXHxL6ZMmUKq1en34181apVTJ06Nen5IoVGSUiK2T3A0sDxfsAzluPl26zQyiSyadMmhg4dmrbzzTffzObNmyuP9/3Vzedajtc9e+GJZE/9sAMQyZYFY0Zs7tB34ELg14HmHkDFgjEjPose1wf2BY7HVFpoAqwANuUw1IXAIZip1kydOpWff/6ZQw45hIYNG1Z2WrduHUOHDuXll1+ubGvZsQ8dDrI7QMllHfoObNOh78BvFowZsSGHsYtsl3z7RCiScZbj3QtcG2zbsmH1WWOevagXcBVQpRwB4AOXAt9lP0IAdqek3jQiFZWxtG3bln79+rHXXnsxa9YsRo8ezdKlWy/sGjTagf3OfICGO7QOPs4KYCjwmO/aW3IUu8g2UxKSomc5Xn3gLczVDut+nsOMjx+KbFg+v7rX/2ZMJYO7iZ/ynY0Yj/h55pdvzfp0eLOKshpdhK3b/aCBr3boO/A0oHmSn08D/uC79qiMBiqSYUpCUidYjrcj8PXmdcu7TXz5Gso2xe+OXVJSQuPGjdmwIelI1hDg71mM7TLgYaDBxlU/MfPTR1iz+Pt0p/wXuBCYbTneLsDfgItI/vf8LnCt79ppH1AkLEpCUmf0G/Ri1+/fvXPyqgWTKm+09OzZkz//+c/06dOHJk2a8OOPP/LSSy/x2GOPUVFREeu2GTgQmJzJeCzHKwUeBC4PtkcqyjfM+GjY7ctmfdUi+rz7ANOBscDXmPp4FQmP1Sf6WIcneaoy4FHgVt+1V2TydxDZXkpCUpcMBCrv6p944ok8+uijNGhQdVutL7/8krPOOiuYiL4GrEwFYjmeBdyPmZAQtBA4xXftsdvwmCXA6cC9wJ5JuizHFDx93Hftsto+vkg2KAlJXfIUZtiKtm3b8umnn9KyZcuUne+44w6GDx8ebGoJrNqeAKLlg+4ETkvy42+A06JrnLbnORoDVwN/Ivmki6nANb5rf7A9zyOSCUpCUpdMwKwV4rzzzuOOO+5I23n27Nkcfnjc6NZRwKe1fdLoFcoBwCXA70i+NOJfwCDftTfW9vHTPO+umPtFF5L8b/1tzP2iHzL1nCK1pSQkdUVDTBmf+gB33303Z599dtoTKioq2HfffVm3zkxiqNeg0ZCKsk01mqAQvd/TH7Op3slAhxRdlwI3A09kaxtyy/EOxNwv+kWSH5dhJkX81Xftldl4fpF0lISkrigBlgGtAG688UauuOKKtCesW7eObt26EYmY3ND5yMu37NztqOnAooSvcmBXoH3gqzPJp07HrMfcu7nXd+012/5r1Uz0aszGVJHYI0mXnzHJ8EndL5JcUhKSuuQDYADAMcccw7PPPpu281dffcXAgQMrj/c78wGatk51QVNj5cA/MDPVftreB6sty/GaANcANwHJ6uhNBq72XfvjnAYmdZaSkNQldwI3xg5eeuklfvGLZCNUUFZWxkknncR335mCCfUaNOLg3/2LkpJtKrdYBvwHM7X6dd+1F2zLg2SS5XjtgTuA81N0eRNzv2hm7qKSukhJSOqSzsAkoCmYGXIPP/xwlUS0atUqhgwZwptvvlnZ1qbrL77reszVjTBDbclmnAVtxAzTjcXs8vpuvt5vsRzvIMz9osOS/HgLMAz4m+/a2zUrUCQVJSGpawYDjwQbBgwYwEEHHUTr1q2ZPHky7733HkuWLAl2mYJZNLoJwHK85sTfA6oPLGbrPaJV2ZpkkA3R+0UDMeWJOibpshT4M/CU79pZLV8kdY+SkNQ19YDXgFNq2H8VcDTmqqaoRe8XXYcZsmyapMtEzP2i/6R5mF0w243vgUne44D0GyRJnaYkJHVRvR3adr59w4oFN1ZTLHQUZl1PzbY7LRKW4+2OuV/02xRdRgLX+a49O3pcgrm3dBuwe5L+E4ArgC8zHKoUASUhqZMsx3t246qfzl8y7SPWLp3N6sXTNkbKtzTEfHofi5lJ9xJQMMNqmWY5Xj/M/aLE0kJg6uk9+MMH9z+1bNZX9wG/qubhIpgyRTcD2u9IKikJSZ0TrTw9F7OAFWBD+eYNHUc/9du1mEkFEhW9X3QWcBcJVzkV5VuY9MofyzasWFCl+F6DBg0oK0u63Ohp4OJsxCqFSdt7S110GVsTEMA/Rz/1259RAqrCd+2I79ovAN2AWwlcxSwY8wrBBNS2bVsefPBBxowZw+zZs/nss8+44YYb4naHxdTuOyFX8Uv+05WQ1CnR4p5zgZ0DzT18154aUkgFxXK8DsDf1y+fd/bEEddCtJrEvvvuy4gRI2jVqlWVc6ZPn84pp5zC2rVrY02LgL3I7RbqkqeSFVIUKVod+g48Fzgn0PS+79oPhBVPoVkwZsTqBWNGvLbu59mtN69d1g/M0Nu///1vOnZMNrsb2rRpw0477cSHH34Ya2qOWQy7KCdBS17TcJzUGdH7G1cnND8YRiyFbu3/ZrSJfX/ggQfSvXv3tP1t204cljsoS6FJgVESkrqkP9GtHKKmY2bBSe31iX3To0ePajuXlpbSrVu3YNOBWYhJCpCSkNQliVdBw3zXrkjaU6pTWYZo9eqarUVdtSqu8s/yDMcjBUpJSOoEy/E6Y/b1iVkJ/DOkcIrBmNg348aNq9zuIpVly5Yxd+7cYFPRV6CQmlESkrriSuJngz7hu/a6sIIpApVJZPbs2bz44otpO//tb39LbBqTrJ/UPUpCUvQsx2uBWZ8SUw48GlI4xeINAuWMbrnlFt5+++0qncrKyrj//vt55ZVXgs3vA7OrdJY6qcpKZ5EidCHxu5y+6rv2vLCCKRIrMXX13gNYv349l112Gf379+ewww5j9913Z/r06Xz44YdMnRpYglVSby2Rit9Rh8shSTwtVpWiZjlefeAHzOLImEN91/ZDCqnYPAj8viYdS0rq0en/LpnTrseAvbWFuMRoOE6K3a+IT0Cjga9DiqUYXYOpLZd2tluTVrvT8/Q7aNdjQCfM/TkRQElIil+VxamFtOFcAYhgqo33AP4OfIzZgwnMPaM3Wu150Eu9z7iHZjt3iZ1zm+V4e+Q8UslLGo6TomU53v7A+EDTImBP37W3hBRSXVECtARWQGWlig+AYwJ93gFO0gcC0ZWQFLPEexWPKAHlRIRoAgJTiRtTuTxYpfxEwM5xXJKHlISkKFmO1w44O9C0EXgipHDqPN+1Z2G2ggh6yHK8lmHEI/lDSUiKVZU9g3zXXhZWMALAfcB3geNdMPeRpA5TEpKiYzleI+DyhOZhYcQiW0WHQgcRv0boUsvxfhFSSJIHlISkGP2G+E3rPtSmdfnBd+2vgeEJzY9bjtcwWX8pfkpCUlS0Z1BBuIn4De26A9eHFIuETElIis3hwP6B4x+AUSHFIkn4rr0auCKh+c+W4+0dRjwSLiUhKTbaM6gA+K49ElMENaYR8Fj0SlbqECUhKRqW4+0FnBJo0p5B+e1KYG3g+Ejg/JBikZAoCUkxuYL4KiD/8F17barOEi7ftedj7g8F3Wc5Xtsw4pFwKAlJUYjuGfS7QFM58EhI4UjNDccUlY1pDdwfUiwSAiUhKRYXEL9n0GvaMyj/+a5djlk7VB5oPtdyvAEhhSQ5piQkhagE6AacBzwEvDbX/9ctK+aOZcuG1bE+mpZdIHzXnoipphD0mOV4TcOIR3JLO6tKodkZM4Tz62DjoglvsGjCG9SrX0r7PqfOW71o6ujkp0ueuhU4A+gUPd4LuBkYElpEkhOaDimF5ATgOaBNDfp+AZxJ/KJIyWOW4/0SeD/QVA4c4Lv2pJBCkhxQEpJCsSem+GWzWENJSQldu3Zll112Ydq0aSxdujTxnA+BY4mvVSZ5zHK854mvfv4NcFj03pEUId0TkkJQD3iGQAI6/vjjGTduHJ988gkvvPAC48aNw/M8OnbsGDxvAHBpjmOV7XMNgb2IgH6AE1IskgO6EpJCcDrwauzgrLPO4u6776akpOrLd/Xq1RxzzDEsWlQ5CrcOM3y3sUpnyUuW410EPBVoWgN09117QUghSRbpSkgKwWGxb9q2bcvQoUOTJiCAFi1acOeddwabdgB6ZTc8ybBngP8EjpsDD4cTimSbkpAUggNj3xx66KE0a9YsXV8OP/xwSktLg00HZSkuyYLAduCbA82nWo53akghSRYpCUkh6B77pmvXrtV2Li0tpVOnTsGm7qn6Sn7yXXs6cHtC8yPRyhhSRJSEpBDMjH0zd+7cajuXl5czf/78pOdLQbkLmBY43o2qiUkKnJKQFIKxsW9832fz5s3p+jJ27Fg2bNgQbBqTpbgki3zX3oQp6RM02HK8fmHEI9mhJCSFoLL6wYIFC3jwwdQVeTZv3syNN94YbNoCTMheaJJNvmt/ATwRaCoB/mE5XmmKU6TAKAlJIXiZQCJ5+OGHufXWW9m4MX7W9ezZsznjjDP44Ycfgs23YaZpS+G6Efhf4LgX8IeQYpEM0zohKRS9McNqlZ+AW7ZsyX777Uf79u2ZNm0akydPpqysLHjOWMDCXA1JAbMc70zgpUDTBqCX79qzQgpJMkRJSApGg8bNnfItG4dHymuUU2YAJwHTsxuV5EJ02++3MfUDYz4Ejo1O6ZYCpeE4KRh9L3ymwX4D76VZu2qnaQ8D9kcJqGhEE81gYH2geQDxdeakAOlKSAqC5Xj1gB+AzpGKclYtmMS8b174x7qf57QFOgITMcN1n2MKnUoRshzvD8TvPfQz0M137WUhhSTbSfsJSaE4EegMUFKvPi079hnTsmOfSzUUU+c8BJwDHBA9bgPcA1wUWkSyXTQcJ4Xi6oTjB5WA6h7ftcswa4cqAs0XWo53ZEghyXZSEpK8Zzleb+CoQNNi4JWQwpGQ+a49FnPfL+hxy/EahxGPbB8lISkEv084ftR37fRlE6TY/QWYFzjuCtwUUiyyHZSEJK9Zjrcz5h5AzCbiV9BLHeS79lrg8oTmGy3HU7HaAqMkJPnuUqBR4PjfvmtX2cdb6h7ftd8hfli2FHgiOpNSCoT+Z0neshyvIVU/7SbeC5C67ffAqsDxYcDvQopFtoGSkOSzgcAugeOPfdfWGiCp5Lv2YuCGhOa7LcfbNYx4pPaUhCQvRcu0XJPQnLp8ttRl/wC+DBzviF4rBUNJSPLVYWxdkAhmY7p3Q4pF8pjv2hWYe4fBooIDLcc7MaSQpBaUhCRfJS5OHRZ9sxGpwnftKZidWIOGW47XLIx4pOaUhCTvWI63J3BaoGkV8GwowUghuR1TPT2mI3BrSLFIDSkJST66gvjX5pPRdSEiKfmuvREzLBd0teV4B4YRj9SMkpDkFcvxmhM/xbYCeCSkcKTA+K79KfFXzfUwa4dUrDlPKQlJvjkfM7spZqTv2j+GFIsUpuswWzzEHABcFVIsUg0lIckb0ZXuiXXiNNVWaiW6t1Di9P7bLMfbI4x4JD0lIcknJwBdAsdjiV//IVJTz2O2/45pCjwaXX8meURJSPKJ9gySjIi+bhxgY6D5ROCMcCKSVJSEJC9YjtcLODrQ9BMwIqRwpAj4rj0LuCWh+SHL8VqFEI6koCQk+SLxXtBw7RkkGXA/MClw3A74e0ixSBJKQhI6y/HaAucGmjYBj4cUjhQR37W3YLYDDw7rDrIc7xchhSQJlIQkHwwifs+g533XXhJWMFJcfNf+Bng0ofkJy/EaJesvuaUkJKGK7hk0OKFZewZJpv0JWBg43he4PqRYJEDTFSUM7YCDgIOatdun7669jjuxWdvONN5xVygp+cR37aOrewCR2rIc71RgZKBpM9Dbd+3pIYUkKAlJbrUDHgNOTfbDJi3b02bvw/84f/RL9+Y2LKkrLMcbSfzr7z/AUVoKEB4Nx0mu/BqYQooEBLBh5SLmj37pLszsJdX6kmy4ElgTOD4CuCCUSATQlZDkxkHA10D9YGObNm3YYYcdmDt3brJzbgLuzEFsUsdYjncF8HCgaQXQTZNhwqErIcm2RsBzBBLQSSedhO/7jB8/ni+//JJp06Zx0003UVpaGjzvVqBXjmOVusEFvgkct8KsJ5IQ6EpIsu16AjteXn311Vx33XVJO44ePRrbtqmoqNxA9TPMcIlIRlmO1xtTmzA47Hus79ofhBRSnaUrIcm2I2LfdO/enauvTiwPt9XBBx/MoEGDgk2HEr9+SCQjfNeeBNyX0PyY5XhNw4inLlMSkmwqwdwPAuDEE0+kQYP08w1OPvnk4GEp0DMrkYnAX4E5geNOwF9CiqXOUhKSbGoHtI0ddOvWrdoTkvTZL7MhiRi+a68HLktovs5yPL3mckhJSLJpGaYOHACLFy+u9oSffvopsWl+ZkMS2Sp6D+j5QFN9TEmf+ilOkQxTEpJs2gJMiB18/fXX1Z6QpM+4zIYkUsUfgOWB44MxexFJDigJSbaNiX3z9ttv88UXX6TsuGLFCu68M25p0BzM1ZRI1kTXByVO2bzTcrzdw4inrlESkmx7AFgfO3Ach/fee69KpxkzZnDOOeewdOnSYPNt2Q9PBIBnMSV8YpoRv6BVskTrhCQXBgOPBBv69OlDnz59aN68OZMmTeLLL79k8+a4PezeBX5F/D4wIlljOd7emA3wgssCTvdde2SKUyQDlIQkF+rt0Hav8euWzu5dw/7TgaOARVmMSaQKy/FuxkzdjlkIdPdde3VIIRU9DcdJ1lmO16DXr+9q0+Xoq2jQaId0XSOY8il9UAKScNwFTA0c7wbcHlIsdYKuhCTrLMc7m+g02M3rlvPTlA9mLBzrfY1ZyLojZvLCWOA94NvQAhUBolt/fx5oigCH+q5d/fROqTUlIckqy/FKgNEEKicAp/iu/WZIIYlUy3K8x4BLA03fAQf6rr0lpJCKlobjJNss4hPQLOCdkGIRqakbgeDK6V7AtSHFUtSUhCTbEiuWPuS7dnkokYjUkO/aK4HfJzQPtRyvcxjxFDMlIckay/H2wOyoGrMaeCakcERq6xXir9obA250iFkyRElIsmkw8a+xp3zXXpOqs0g+8V07gnkNrw80DwDOCSei4qQkJFlhOV4z4JJAUwVagS4FxnftucCfE5ofsBxvpzDiKUZKQpIt5wEtA8dv+K49J1VnkTz2MPGFdNsA94YUS9FREpKMsxyvHlVv6g4LIxaR7eW7dhnmqr4i0HyB5XhHhRRSUVESkmw4Ftg7cDwB+G9IsYhsN9+1xwEPJjQ/Zjle4zDiKSZKQpJJJdGvxGnZD0Zv8ooUsqHAvMBxV+BP0e/1XrqNNNVQttfhwGmYBakHUFKvfMfdejZv1rYzbbr+gqY77bEE6Oi79qb0DyOS/yzHOwF4p6JsE/+b9jFrfppesXz2N/MjFWUdgBmYElQ+8BSwMcxYRYpdM2A4pq5W0q/j4WE/AAAgAElEQVSSevUjO3U+9BOgNLQoRTJsn+Nv+Khxy/YpX/fRrynEVwoRkQxqhym/U90fYuzLxyz0Eyl0DlBOzV73ZcBF4YRZODQcJ7VVAowETok1NGnShGOPPZZevXqxZcsWJkyYwIcffkh5eVx1nnuA63Mcq0gmdcdM1a7c9G6fffahf//+7LnnnsyePZvPPvuMGTNmBM9ZD+wHzMxtqCLF67cEPu0dcMABkS+++CKyYMGCuK933nkn0qlTp+Cnwgrg0BDjFtkeDTDbjJih5pKSyJAhQyI//vhj3Ov+xx9/jFx77bWJV0SfA/XDC12kuEwg+sfVpk2byKRJk6okoNjXJ598EmnYsGHwj/GVUCMX2XZHEUgsl112WcrX/YIFCyIXXHBBYiKyQow9r2laodRGE6Bn7ODqq6+mdevWKTvvvffe/Pa3vw02HZi90ESyqnKSQfPmzfnjH/+YtvNNN91Eo0aNgk167aegJCS10ZvAsMLBBx9c7Ql9+/YNHnYCVHNLClFlEundu3digqmiadOm9OjRI9ikmXIpKAlJbbQLHrRp06baE5L02TmD8YjkSuVrvyav+yT92qXqV9cpCUltjA8eTJkypdoTEvqsxyzoEyk0la/9mrzuk/Qbn6pfXackJLWxAFgaOxgxYkTazmVlZbz22mvBpvGYtRMihWZs7JuZM2cyduzYdH3xfZ+FCxcGm8ZkKa6CpyQktREBPowdvPXWW7z66qvJO0YiDBs2jIkTJwabP8pueCJZ8zmwOXZwzTXXsHLlyqQdly1bxh/+8Idg0wbgq6xGJ1KH7AosJzD99Nxzz43897//jcybNy/y448/Rj744IPIL3/5y8QpqtMws+tECtWNBF7Tbdu2jQwfPjwyZcqUyIIFCyKTJ0+OPPLII5Gddtop4bVfkljQV0S201kkKVPSvHnzSOPGjZOVLykH+oUUq0imNAC+Jslrv2riMV8t2neP9Bv00m9CilekaJW07HjAQ/VKG9WkftZPwElhBSqSYbsA71CD2nGtOx0cOeiCpyKW4/1kOV6rsALOd7onJNsisu+JN+29/8AH2HH33qn6lAMvAj2At3IWmUh2/XTIZSN+6HLkYBo0bp6qz5JOhw+at89xf6S0yY5gpmfflbMIC4wKmEqtWY7XHVOqHoCyTWuXjn/hqt+WbVzdG7OHyhhgImZKtkhRsRwvukFjhI2r/sfK+ROnzfn8Hy8B32Ne+3Msx+uLGboLvsce7rv257mON9/pSki2xVXBgwaNmg0v27j6fUyl7IcxWzcoAUnRsRwvcH+nhMY77sIuPY89BPgrMAKYDUR81x4NPJJw+hOW46UvtVAHKQlJrViOtxNwXqBpM/BYSOGI5NqLCcdlvmuvTtH3z0BwsVA34AagKXAAqqIAKAlJ7V1C/FTrF33X/imsYERyxXK8nkma90vVP5qcBgOUbVrLj188zcSX/3ALsBqz+PUnYB7wKtA31eMUO90TkhqzHK8UmAPsFmg+wHdtlSSRomc5XgUJ75m+a1f7Htr5yMu/mv/Ni9bm9SvSdSsH7gRuI7Aoti7QlZDUxq+JT0CfKQFJXWA53o5U/dA+sAanXjrr0+HVJSAw1en/DLxNHXtfbhB2AFJQEld+PxhKFCK5905ig+/a1W3S2Bm4P9jQv39/TjrpJLp168ZPP/2E7/s899xzlJVVllQcADjAo5kIuhAoCUmNWI53CPFVD+ag9T9SB1iOVw84LKH5/mR9A0qApzGTEAD4+9//zjnnnENJydYLquOOO44zzzyTCy64gEWLFsWa7wbew8y0K3p16rJPtkviVdBDvmuXhxKJSG7dmaQt/daq0AE4PHZw3nnnce6558YloJju3bvzwAMPBJuaAqduQ5wFSUlIqmU5XgfADjStwXzKE6kLrk84/tp37YpqzonbSfWaa65J2/mwww6jX7+48op1ZidWJSGpicEEtvUGnk6zNkKkaFiOd3qS5hNqcGrlduDt27enbdu21Z7Qu3dcCawDU/UrNkpCkpbleDsAgwJNEUxVBJG6oMqGWb5rVzvVrVHztrvGvm/QoGa33ktLS4OHDWt0UhHQxASpzm+BYAXgN33XnhVWMCJZVA/YGzMU1mqnzocur9iyiXqlcZV2Ui5Oja6jOxUYvGzWV/1/+MDMXZg3bx4rVqygVav0hbQTNoD8dpt+gwKkJCQpRWcF/T6hWdOypdg0Am7BDDtXlsZeNusrls32abFrd/bqfylNWrbHd+1JiSdbjtceU0lkENAeYIe2neP6PPbYYwwZMiRlABMmTMD3/WBTndkOXElI0hmAqXcVMwn4LKRYRLLhAOCfmC1HqopEWL1oCpNGXMuOHfb7N+ZqqcJyvBLM7LfBwGkkvJc2brEzO7Tdi3VLzSxr13Xp06cPxx13XJWnmD9/PldddRUVFZVzHbZQh5Y/1K++i9RVHfoOfAToEmgaogoJUkQ6AKOj/61UUlJCw4YNKS/fugIhEqlg48pFves3bLr+kEEv9gaewcya60HSe+slC0qbtPznsplf9gHqRyIR3nzzTebMmUNpaSmNGjXi+++/59VXX+XKK69kyZIlwXOHAq9l+pfNV7oSkqQsx9sXCH5sW0rVCsIihaoEeBJoEWvo1asXN910E3369KFJkybMmjWL559/nqeffppIxGwhFCkvu2vjykU0btk+1eN+jKl28Nb0UXeVYapoV64zGjlyJCNHjkwZVLOdu9D95KE/jH7yt9v7+xUMFTCVpCzHc4HLAk1/9V17aFjxiGTYucC/YgennHIKw4YNSzqT7eOPP+b888+vPN5xt550P/mWYJfVwHPAcN+1v084vQQ4HxhGIOEl0677APY49DzqlzZZDOzru/aqWv1GBUpTtKUKy/FaY/5wYrYAbkjhiGTDsbFv2rVrx5133plyKvXRRx/NRRddVHm8etFUKso2AUzG1HnbzXftq5IkIDBLGp4FegIvYbZvCFoPfLnPsX+ct1f/S6lf2gRgV+CObfy9Co6SkCSjPYOk2FVWJPjVr35FixZpL1I466yzKr+PRCqYN/olB+jtu/ZjvmuvrcHzzQfOwiSY3YDjMYmpBfCL1nv1Ozuhv2M5nlWTX6TQKQlJnOhahysSmoeFEYtIluwA7BM76Nkz2V518bp27Rq3mHTxxLca+K4d2cbnXwSMAqZg9hHCd+0vid+huASzHXhp1dOLi5KQJDod2D1w/F/ftceFFYxIFmzEDIMBsHLlympPWLduHVu2bAk2/Zz5sBhC/HBdT+C6LDxPXlESkkTaM0iKXTlQ+cFqzJjq14WOH19lZULGF5P6rr0SuCqheajleF2S9S8WSkJSKbpn0CGBph+BN8OJRiSrxsa+effddxk9enTKjlu2bOH2228PNq0CslW6ysPsrhrTCHgsuji2KCkJSVBiiR7tGSTF6glgE0AkEmHw4MF88803VTqtXLmSK664gmnTpgWbH8bMesu46H2mwcC6QPPRmBqORalos6vUjuV4u2OufGJVNNYCu9eVtQpSJ10H3BM7KCkp4fjjj+eAAw6gVatWTJ48mbfffpulS5cGz5kE9AU2ZzMwy/GuBoI73S0DuvmunY17UaFSxQSJSbZnkBKQFLMHMPURfwnmiujdd9/l3XffTdV/JWb9XFYTUNTDmAW1sX2FGgF9gA9z8Nw5peE4wXK8psClgSbtGSR1QTlwQvv9T55Sr361M6HfxdSJm5D1qIDoMPggoAJ4A+juu3bRJSDQlZAYiXsGveW79sywghHJFcvxOgHdd+52FEumfcKaJTPK1iyethFoCkzFTGAYBbxMlu4DpeK79jjL8fbzXXtyLp8315SE6rjorBvtGSR11VVASZNWu7PHoecB3Ou79p8ww18bQo0MKPYEBBqOEzMmvm/geBLwn3BCEckdy/FaAhcFmsqARzBDYKEnoLpCSUgSF6cO245yJCKF5BJMCZ+YEb5rLwwrmLpKSagOsxyvG6aQYszPwAshhSOSM9GabInVCR5I1leyS/eEAMvxGmA2o3oHMzW56ObiAx2BkzHVgw8CSqa8MbRB67360WqPA2ncoh2A67v2xjCDFMmRXxNfI/Fz37UzXopHqqfFqoDleKcAr0cPNwMjMPvn+EUwNFWCmX59L/FDD5XqNWhIh4PPLm+7T/89xjxzoYYjpKhFJ+N8g1l0GnOa79qvpzhFskhJCLAcbxSBTa4CJmKS0fM13DMkp6JXcG0xVYFXJkmYDTFrDI5LPDeF/wAnEqgwLFJsLMc7DPgi0DQb2FslqsJR55OQ5XiNMENxh6Xptgazfa/ru/bUnAQWYDleB8xQWm+gfeCrHVv/H24EFmP2KlkELPjutZt2X/u/H84IPlafPn3Yf//9KSkpYdKkSckqCD8IXJO1X0YkZJbjeZjhuJjf+679UFjx1HV1PgnFWI63P2ar3nNIMWwV9Rnm6mik79q1Kd/REOiF2SNkPqaUfNKNTKLDBb2AU4FTgANq8TwArF0yk8mv3UQkUgHALrvswn333Uf//v3j+n399ddcc801zJ8/P9YUAY4A/lvb5xTJd9HFqTPZOilrFdDBd+014UVVtykJJbAcb0dMBQEH6J6m6/+AJ4EnfNeel6Zfb+AhwMIkoqAfgFuBF4GI5Xj1gfOAm4Dt2kNk+qi7WD7nWwAaNGjAu+++S/fuyX+dWbNm8ctf/pJNmzbFmj7BVO4VKSqW4z1A/LKEe33X/mNY8YiSUErRq5HDMcno16SeSViB2f9jOPCh79oV0fYGwA3AUKC6wlSv9Tjlr6+1aN/9RsyVUnU2sXXY7SfM6u72mL3rdwZKxv5zEJvXLQfgkksuYejQoWkf8J577mHYsMpdvFdhyvgU+qQMkUrRD5gLgGbRpnJgr2o+REqWKQnVgOV4uwAXY2aZdUjTdRZmn/hnfNe+CfhDTZ+j6U570Nu+i5J6SXPdJMwEg3eAGcCKVLP2LMcrnTf6pd4Lx3qVN3ueeeYZBgwYkPb5v/zyS84888xgU1fMsIVIUbAc7w/AfYGml33X/k1Y8YihJFQL0dloJwCXk3w2HQCrF03dMuWNv1Re/dSrV49BgwZx0kkn0a1bNxYtWsRXX33FXXfdxfLlyyvP2+3AX9Px4LNihxOBZ4E3fNeeU8tQDwH82MEHH3yQciguZu7cuRx2WNzcjAHAR7V8XpG8FP3bnQnsEWju57t26i1VJSe0WLUWfNcuw2x3/WZ03/dLMbWnWsf6RCrKmfXp8MoE1LBhQ15++WX69t26JKFTp0506tSJY489lrPOOqty18ZF40bSes+DFzbbufMfMZ/SKtg2UzFDaSUA33//fbVJKGHnSIDvtvG5RfLRacQnoK+UgPKDyvZsI9+1Z0ZvaO6O2ejqG4ANKxeycfVPlf2uv/76uAQU1KZNG4YNG0aDBuazQCRSweTX/zzcd+0XtyMBAawGpscO3nnnHSKR9Ld33nnnneDhAszEC5FikbjsQCV68oSS0HbyXXuD79r/9F37EODAZbO+rpzaXK9ePc4777y053fv3p2DDz648jhSvmX/DIVWGcf777/P66+nXgw+atQoRo4cWXm84+69KqLDFyIFz3K8QzCzU2N+ZGuFFAmZklAG+a49bsGYEZNix126dKFp06bVnte7d+/g4YGp+tXSzZiCpABcddVV3Hbbbaxevbqyw5o1a7j77ru59NKtm6rWb9iELkcO7gjck6E4RMKWeBX0UHRoXfKAPu1mXuWit3Xr1tXohIR+mVo0twQzgWIEQCQS4fHHH+fxxx+nU6dO1K9fn1mzZlUZput02EU0bNYG4GrL8b7zXfvpDMUjknOW4+0B2IGmNcBTIYUjSdSpKyHL8epHX5TZVDk1euHChSxZsqTaE8aPH5/0/Ax4BbgOs66o0pw5c5g5c2ZiAtrSrsex37XtdkSw7THL8X6RwXhEcu1K4t/nnvRde3WqzpJ7dSoJYaZXz7Ec703L8Y61HC8bv39cErnzzjvTdn7rrbeYPDluB99Ml5O/D1P259s0fSYCffc6/JJ+UBJ8/lLgtRwkbpGMsxyvOWbjupgKTPUSySN1LQkNxkxbPgkYBUy3HO8ay/FaZfA55gPvxw5eeeUVHnnkEcrLqxbo/fzzzxkyZEiwaRkwskrH7TcVs3ZoH+Bs4H5gGKY80b6YJDXRd+0NmHp1iwPntgUezUJMItl2EdAicPya79o/hhSLpFBnFqtajtcVU6stmQ3A88CjvmtPyMDT7Q5MBnaMNfTu3ZsTTjiBbt26sXDhQnzf5+23304870yi93DCZDnewZjZdY0CzUf4rv1ZSCGJ1Eq0DuMMoFOg+TDftb8KKSRJoS4loV0ws2QuBnZK0/UrzCd/r5ZVsuM032Wf69f8NP2uWpzyb8yVSV6wHO/PwG2BptHAIUWwyZ/UAZbjnQ68Gmj6BrD0+s0/dWY4znftn3zXvgFT++0CUt8jORRzVTTfcrzbLMfbPUW/oNaYLRduw9R3G7lDm70u3PPQC2jcYpfqzl2HmcWWfkFR7j1A/LDcwcTPMhLJZ1UWpyoB5ac6cyWUTHTYaTBmGKxRim7lmOKhjwKfJnkhnxn9WdKrq0bNd6ZF+x5bfp75xVeR8i29MdWpNwMTMJMQ7sPs7Jh3LMe7BHgi0DQT6O679paQQhKpluV4fTFX7jHzgM5aG5Sf6syVUDK+a4/2Xft8zD2cG4G5SbrVB07H7L46xXK8KyzHa4FJWi8DL5FmeG/TmiUsnf5pg0j5ltFAG8yVWHOgHyYB5mUCinoG+D5w3IU0hVtF8kTiVdDDSkD5q04noRjftX/2XfsuoDNmG+33U3TdF3gYWLhTl8O+AgYGf9iuXTsGDBhA//79admyZfBHJcAfgXMxddm2+V5TLkX/cG9NaD41jFhEasJyvA5AcEv7dZjNJyVP1enhuHSis+kc4EIgLqOs/d8Mvht5E0QXe7Zq1Yo77riDk046qbJPeXk5Tz31FHfddVdwx9JVmE3rFuTgV8gIy/GaYcr/xIYrlwDtfdeuOudcJGSW490FXB9oesh37d+HFY9UT0moGpbj7QCchRk62x9gyht/YfWiqYDZOnvUqFF069Yt6fnvv/8+F198cbDpceCybMacab3PuPfj9cvnHbVuyUzWr1jIxlWL39i0Zsk7mBlHk6o7XyQXoh+Y5rP1Q2ME6Oq79qzwopLqKAnVUHS770Mryrdc8e3T5/+mosyMqF155ZXccMMNac8dNGgQ7777buxwItFkVgCaAH/DjLGneq28DFxBoFiqSBgsx7sCM1weM9J37dPDikdqRgVMayg6K+5LzJBa5ZbARx11VLXnHnnkkcEk1BPz5r4h81FmVA/MOot9qul3JnAkcA7aiVVCEi3BlTjspj2DCoAmJtRe3JvyXnvtVe0JnTt3Dh7WB6o/KVyxmX+Vv2tJSQldunThuOOOo2fPnpUb8UXtHO1f7aIokSz5FWb2ZswY4IuQYpFa0JVQ7U0PHsyePZuddkpXgAFmzYobki4nv6dlA9yCuRICYP/99+eBBx6ga9eulR2WLl3KjTfeyPvvV04kbI2533UqZixeJJf+kHCsxakFQldCtfc9sD528Mknn1R7QkKfyeT3UNyuBGYX9erVi9dffz0uAQG0bduWJ598Mm5GIGZ6e/+cRCkSZTneAcS/7hZitjGRAqAkVHtlBFZju67LtGnTUnYeNWoU7733XrDp6+yFlhF9Cbwu7rvvvsSht0olJSXcfvvtNGvWLNh8SHbDE6ki2eJUVfUoEEpC2+YGzN4klJWVMXDgQN588824TeLKy8t5/PHHufzyy4PnrSS+KGg+Oij2Tbt27ejevXvazq1bt6ZPnz7BpkxtTy5SLcvxdiMwUQgzSvFEiu6Sh3RPaNuMBv4O3ASwYsUKLr/8cm655RZ69+7Npk2b+O6771i5cmXieVdhhgryWeWCp4QJFSl17tyZzz//vMr5IjkwmPj3sWd8114RVjBSe7oS2nZ/xdSNq7RkyRI++ugjPv/888QEFAHuxmzXkO8q91yaM2dOjU6YPXvrPIvSpq2WRddUiWSV5XhNgUsDTRHMZo1SQJSEtt0mTCWFgaRfqDkLOBwzhFcIs3Uqt/devHgxP/yQah9AY+XKlYwfP77yeNdex/cHxluONyhabUIkW87DzMqMedt37RlhBSPbRklo+70C7A2cvFPnQ79s1fEAWu/Vj479zmbnfY++FuhNYa1X+JZAsrzmmmsoK0tdgPjmm29mzZo1lcfNdu4KsB9muvYiy/GGWY6nITrJqOji1MQJCfeHEYtsH90TyowVwFt7//IPnYDDAu2Llkz7eH2Kc/LVQswf87UAEydOZODAgdx///3sueeelZ2WL1/On/70J956663KtlYdD2DH3XsGH6sF5j7YVZbjfYLZd+lNldWXDDge8+EvZgKg7ecLkJJQZi1KOK7Jrqz56GbgRKKTDEaPHk3//v3ZZ5992HvvvZk7dy5Tp04NVgcHWLXbQWfcDSXnAMmm1B0V/VpoOd4TwD98116cpJ9ITSQuTr1fi1MLk24gZ1B00dzYQNO7vmufGFY826k38Bpmj6XqLMPslTQqOinhcMyW5aeT+oNOWfTxhwP/1RuI1JTlePthrnxiFgN7+q5dEPt0STwloQyKjlMvAtpFmzYBbX3XXpP6rLy2A2Yq+hVp+ryBmaH0v8QfWI7XHvhd9Oft0zzGFEwy+rfv2qu3OVqpEyzHexY4P9D0J9+17wgpHNlOSkIZFh1quiTQdIbv2l5Y8WyDEmBPzKLV/YClexx6/nn16zc8YN3yeWxYPo9Na39+b9Oape9gJjHETWRIxnK8UkxJn8sxQ3KprAX+BQz3XXvy9v8qUmwsx9sFmAs0jDZtADr4rr0svKhkeygJZZjleCcA7wSa/u279m/DiqeW+mO2Qu6S+IOSknq063EsHQ85e1n90ibttnVnVcvx9sXsWHs+ZuJCKv/FXB2N1DCLxFiO91fMPcuYx33XLqhNIiWeklCGWY7XGLNuKLZGZiWwm+/a+TxLrjFm2K3abZBLm+y4ZsuGVccBX23PE0Z3wTwbs+K9d5quPwH/AJ7wXbtgtkWXzLMcrwkwD2gTaN7Xd+3vQwpJMkBJKAssx3sFsANNN/mufWdY8dTAfVSdbcSuu+7KihUr2LhxY+KPVmM255u/vU8c27EWM1R3BlCaoms58CZmmvcnmshQ91iOdwnxdeEKeeKPRCkJZYHleEcAnwaaVgOdfdfOxy2w/w+zvqIEoFGjRtxwww2cccYZtGrVirKyMqZOncrQoUP59ttvg+d9ABxHBqtAWI63M3AxcBnQMU3X6YALPOe7dpUCfVJ8oh9WpgD7BpqP8V3745BCkgxREsoSy/HexSyoi3nQd+3EFd75YBrR9UANGzbk7bffTlo5u7y8nN///ve8/vrrwebfYHZUzSjL8epj1ildDhybput64HnMRIYJafpJgbMc7zgguCfKJGB/XREXPiWhLLEcrzdmLUPs33gLsI/v2jWrCpob7QlU9f7Tn/6E4zgpO69evZojjjiCJUuWxJqeIL6AZMZZjtcVc2V0EdAyTVcfM1Tn+a69KU0/KUCW470P/DLQdKHv2s+GFI5kkGrHZYnv2pOAfwaaSoF/W47XKKSQkonb++f0009P27lFixYcffTRKc/PBt+1Z/iufS2wG2aoblyKrhamSvkCy/HutBxvz2zHJrlhOV5P4hPQ/4AXQwpHMkxJKLv+glmwGnMo4ObRVgf7xb5p3bo17dq1S9cXgB49egQPewP1Mx9WVb5rr/dd+2nM+qV+wHPE/9vGtAFuBGZbjvem5XjHRRcRS+G6OuF4uK52i4f+OLPId+15RAuBBlxI1T+qsFTWblu1alWyWXBVBIbiKG3aqp7leEOiCwhzwnftiO/ao33XvgBTm+96INkQZwlwEuY+wg+W411rOV7rJP1qoj3mHlV/oPk2PoZsg+hklXMDTZswk1KkSCgJZd9wqm43fG90UWvYKvcOKi8vj9sXKJVvvvmm8vvm7brWx2xXPs9yvBctx/u/XF7l+a79s+/a92AW18YWCSe7Ud0ZuBdTPPUZy/EOStInUSvMdhQLo19vA/8BVmEmc1yN/n5ywQGCQ9j/8l17aVjBSObly7BQUbMcryHwIaawZ8wWwPFd+6lwogLMfarVmMWqdO/enXfeeYfS0uRLdd566624iQsdDv4Nux9oJ3abzNY6cDmvmWc5XifMZInfATul6fotJs6XfdfekPCz4zGVI9LVuwP4HHNlO2vbopV0ogu/5wFtA809fdeeElJIkgVKQjliOV4bzBvfngk/ehD4Y1h77JQ2bfXwlvUrKguUDhgwgLvvvpu2bbf+3UciEd544w2GDBlSuYFdvdLGWw44+5HS0qYpJ6ytwUzMcMN404i+gZ2BmeZ9SJquy4Gngcd8156FGcJ7sxZPtRzogansIBlkOd5FQPBD2vu+ax8XVjySHUpCOWQ5Xg/MFdGuCT/6APiN79orchzPLyrKt7z23as3tl2/bG5le8uWLTniiCPo0aMHy5Yt49tvv2Xs2LGJp//GcrzJmOGS80h/r+Q/mKuO133X3pLZ36J60S02LseUCWqSqt/mdcs/Hvf84AMj5VsqM2v//v254IIL6NmzJ+vWrWPcuHE8+OCDzJs3L3jqG8BpFMb27QUhOqw7CVOZI+Y437XfDykkyRIloRyzHG834HXMLK+g/wG3Ak9m+406usXCrZi1N/XWLfuRaW/9lS0baryLwuOYtTuxx2uOuXl8OfFvGokWs7UO3MI0/bLCcrxWmMKplwNdE38+85OHWTp96+acN910E47jUFIS/2eybt06Bg8ezEcffRRsPgt4KRtx10WW4w3AfDiLmYoZilOiLzJKQiGIFmJ8GlNxINEPwBBM9eiM/sFZjrcjZjbZNSRcEWzZsGrz5I36zTAAABLRSURBVJF/nrBx1eKD0zzEz5grn6RbU0Q/vf4C8yZvk3pDu3JMIh4OfJrrN5bolO2jMXGeDNQjEmH0U+dRvsXcHjrmmGN45plnqiSgmOXLl3PUUUfx88+VlZhGAGdmPfg6IknFkUt8134yrHgke5SEQhJ9wx4C3J6iy2jgWeDN7blqiL7hHgScCgwi+c36n4BTfdcejfnDPwazELUP5gptbPTrOWBJkvOTPe8ubN3QLt02599jktE/fddeVZPHziTL8ToAl65fseCyiS9dXflvM2LECA499NC0595xxx0MHz48djibmu1CK9WIbvcxNdC0FNgjyQQSKQJKQiGzHO8wzPThdDfPv8Xcd3gbmOW79to0j1cPk2gOBE6JfiXeg4opw0wfv9V37WTJpYTtvM9hOV4DzM3+yzHJLZV1mIoHru/aE7fnObdFvQaNzqso2/Rc7HjatGk0b55+SVDibEHMv/vy7ERYd1iO9zjmA1PMX33XHhpWPJJdSkJ5IHpVdBpwJ7B3DU5Zjbm/sij638aY6cTtMQkn1XYIQa9gtkWesS0xbwvL8fbB3Eu6ENgxTdcvMVdHr+ZwZfzpwKuxg4kTJ7LTTulmeIPneVx9deW64whmk76UHxCketFZpPOJLhsANgMdfdeusn28FActtssD0SoAr2Fu6jtUv09PC2Af4EjMjK/TMVdSHak+AX0M9PNde2AuExCA79rTo5XEd8NsgZ6q8vVhmOrY8yzHu91yvHTbOmTKmODBhAnVF+WeOHHrBVtpkx1/jm7UJ9vnMrYmIIDnlYCKm66E8lB0SO1AzH2cUzDrULbVFkzieQNzf2nR9keYGdErwH6Y3VUHAg1TdK3ADEU+Cnzku3ZFFsIpwdzvagOw33778cYbb9CgQfK5FfPmzePoo49mwwZzm6LtPv3pctSVZZirqeHA55rJVTvR4r4/AsEyUL191/4unIgkF5SECoDleF0ws7h6Y4bbYkNvwVpo5ZgJBouiXwsxm9WN8l27xnOvw2I5XlvMlHEH2CNN15mY2mHPZGFd1T3AdbGDs88+m7/+9a80btw4rtOCBQsYNGgQkyZNqmzrftJQdty9V7BbqJUjCpHleOdjJuPEfOS79oCQwpEcURIqYNGqALtgijou8V27POSQtlt0Q7vjMRMZjiP1a3QDppz/cN+1q6yk3UZNMFtFdIs1dO7cmTPPPJPevXuzdu1axo0bx3PPPce6desqT2rX41j2OvySVI8ZauWIQhG9Kh5PoLI7cKLv2u+GFJLkiJKQ5C3L8TqzdUO7dBWwR2OG6kb4rl19KfD0+mGuIGu679OMHqf+7ewWu3Y7H7MQNt2Uus8wV0cjw6gckc8sxzsKM2wc8z3QI0tDr5JHlIQk70UX9w7E3Dvqm6brMrbWgZu9HU+5L2ZNVLrnAlPk9FrMbEWiExPOicbZK815P2GmxodSOSIfWY73FvCrQNNlvms/HlY8kjtKQlJQLMfri7lvdBbxs6iCIph9hIZj7oltyzBlA+AqzD5CB2FmJAIswMykeyL6HMliLMHM8ItVjkg1YzHUyhH5wnK8vYHpgaZlmGnZ60MKSXJISUgKUnSDugsxCSldpYI5wGPA075r/5ymXzr1os+xGlNBojZxtmNr5YgOabp+j5lw8VwYlSPCZDnecMz/x5jbfdf+c1jxSG4pCUlBi05nH4AZAvsVqV/TmzD13R4FRodQr64B5qrqcuCXabqux1SOGB5G5Yhci36YWMDWWoZbMCV6Fqc+S4qJkpAUDcvx9sSUe/kd8RuhJRqHGQJ7MYwhn+jwU6xyRMoNmQinckROWY43BLgj0PRP37XPDyseyT0lISk60UWPNuaqI10V0pXAM5iJDD/kIrYgy/GaYu5tDcYUi01lKWYSxGO+a89L06+gRHccnkP8DrZ9fNeuvlyFFA0lISlqluPtj0lG5wBN03T9EDNU906ud7mNTmQ4GJOMzqT6yhHDgQ8Lffqy5XjnAv8KNH3qu/ZRYcUj4VASkjrBcryWmB1gL8fU3UtlPmbTvifDqFkWrRwRm3CxZ5quscoRz/quXXCVu6OJdwxwQKD5ZN+13wopJAmJkpDUKdE3v6MwyegUoH6Krlswm/cNB74MYSJDfUzFiMsxFSRS/a1uBF4gs5Ujss5yvMMxi3djZgDdCv3qTmpPSUjqLMvxdsdMZBgEtEvTdRImGT2fbi+nbLEcby/MRIaLqb5yxHBM5Yj/b+9eo6uozjCO/3MRKBJUUCFIELwhWkEbXK7RKlVBVOqtjmAtEBdFZYi0Qltd1a4ldfnBurTSQjMIxWpbWsWp4IWqaLgodQRRjDZE5CJ3LSpg5BIwJP2wJzknMWdyNOeW5Pl9O5M9mZcPnDd7Zs+zM3oDOMvxFmD+CKhT7Lt2Sazx0napCUm7FzwgvxbzTOaikKFfYpIUSnzXrkhFbdGC5IgbMLOj80KG7gLm0PLkiKQIAnk/JPL9sxso8F17X+yzpK1SExKJYjle3Z5OY4Gw/YGWYGYdz6YjB85yvEJMM7qJ8OSIlzALLr5tckTCWY43Hbg96tADvmv/Ol31SHqpCYk0wXK8PGAM5os+bD+nHZgIn9np2KspeNnzZkzjPCVk6CZMcsScFiRHtFiwQGQbcGRwqBroqwy99ktNSCREsJDhQkwzuh6TKdeUamA+Zna0LA0LGbKBoZg6ryL2rsl1yRElwIo01Pkr4MGoQ3N91x6dyhoks6gJicTJcrx8IjlwJ4QMrcB8yf81HRsKWo53ImaxxS2EJ0esxtyqS0lyhOV4RwAbgd5Rhwe3plV9knhqQiLfUJADdzVm1nFpyNB9mJcxS9KxRXWQHHE9ps4LQobuwexo6iYzOcJyvBsxGxHWed137bCFINIOqAmJtIDleKdjlk/fDBwVMvR1zOzoGd+1D6WgtAYsxxuEaUajaT45ogR4IZHJEcFtzRU03KPpOt+1FyTqGtI6qQmJJIDleEdiVqoV03CL6sZ2ArOBR33X3pqK2qJZjncUkeSI00OGJjQ5wnK8C4DlUYc2Aqdlyoo9SR81IZEECv7itzBf8jcQngP3HGbWUZrqpICgzosxdV5LeHLEvzDPjuJNjigErsNsBlgIHO7S49TaowvO6dn9ZIvO3QoAfua79vQW/jOkDVATEkkSy/GOx6QcTAD6hAz9kMiGdrtTUVs0y/FOIJIc0TNk6PuYpvn3GMkRHYGpwJ3EWJ2XlZ1D70K7Ki//jPw1z927p0WFS5ugJiSSZEEO3JWYWcflIUMPAHMxCxlWp6K2aMHqtbrkiCEhQ+uSI1zftdcEx44GXgPOivNyPmZRR0bHC0nyqQmJpFAQWTMBGAccEzL0Tcys42nftatSUVs0y/HOJJIckRcydCnwJ3/myGuoral/3yc3N5ehQ4cycOBAqqurKSsrY8mSJdTUNLjr+HvgF0koX1oRNSGRNAhy4G7EzDoKQ4Z+hsmBe9R37Y9SUVu0IDliNKbOJpMjdm96iw9e/F395wEDBjBjxgz692+4Y8bq1auZNGkSmzZtqjtUi5lxvZ74yqW1UBMSSTPL8c7F3Kr7Mea5SlNqgYWY2dHLaVrI8H1MM2qQHPHf+ffw5SdrAcjLy2Px4sXk5+c3+XvWrVvH8OHDOXSofpX685h3rqSdUhMSyRCW43UnsqHdSSFDN2Jy4B7zXfvzVNQWzXK8ngTJEbU1h3uvnDOGmmrTVO6++24mTpwYev7999/PzJkz6z7uIDx9Qto4NSGRDBPkwA3HzI5GEPv/6UHgScxChpUpKq+e5Xi5/ytfdPvG12Y9UndswYIFDB48OPS8RYsWMW7cuOhDJ2CakbRDakIiGcxyvL6YrLrxwLEhQ1dhbtU9meIN7S4DXq778MYbb9CnT9hqdCgrK2PEiBHRhwYDyo9rp2Il7YpIBvBde1Ow104BZmsJP8bQwcBjwHbL8R4KVuGlQln0hzVr1sQaV6+8vDz6YzVQHmOotAOaCYm0MpbjfQ/z3OgnwHdChr6MmR0tTHI8zlaCZOwrrriC2bNnxxxYU1PDqFGj8H3TSzt378ugkQ89i0lkSHlyhKSfmpBIKxVsEFeEeXZ0WsjQLUQ2tNuZhFIeD+oAYNq0adi23eTAWbNmcd9999V/zh90FX3Prz91HSY54vF0JEdIeqgJibRywUKGSzDN6Bpi32Y/BDyNmR35CdzQrgfmllr3ugNjx47FcRx69zZbB23evJmHH36Y+fPn15/UscuxDBr1CDkdvjaZOwD8A7Pg4p0E1SgZSk1IpA2xHK+AyIZ2PUKGlmGa0Vzftfcl4NIjgacaH+zWrRvV1dVUVn59b7+Thtw2r8cZw4YC3UJ+7wrMrbq0JEdI8qkJibRBluN1wCRZF2O2J4+lksiGdh+05JpZWTnFWdk502sOH2rue2UPcDswN0iOGBXUGba2+3NMcsTMdCRHSPKoCYm0cZbjnYVZyDAG6BIydDFm1vFcHBva5QA/wDSOwUDPzt1P3HvsqRdevmvjm+zduT7WeQsxS863N1FnXXLEjUCnGOfXAv8mkhyh/YhaOTUhkXbCcryumEY0ETgjZOh2IhvafdzEz/tjUrTPa+rkrKxseg4cQW1NzYOfvL/wS8wy7FXAO8CuOOqMNzniI8xChr/4rv1Zc79XMpOakEg7E+TAXYS5BXYdUTlwjVQDz2BmHa8FCxl+Cswg9kwl2nuYXLjN37LObMzLsBOBHxKeHPFUUOfKBC64kBRQExJpxyzH60WQAwf0ChlavnPt0uc3LJ7xS6KaVl5eHmeffTbHHXccFRUVrF27tvF2DcswK/da9P7PN0iOeJtIcsT+llxTUkNNSETqNrS7GjPruKTxz2sOf8X73p3s37UVgKysLMaPH89dd91Fp06RSVF5eTl33HEHFRUV0af/HPhjgursBNhBnVbI0N3AdN+1703EdSV51IREpAHL8QZgnscUAV0BdlaUsmGpWz9mypQpTJkypcnz9+7dy7Bhw9i6dWvdoX2YDfy+SnCd52CaUazkiBLftYsTeU1JPDUhEWmS5XhdgJuA4g1L3YE7K0oB6NevH0uWLCE3N9ajJCgtLaWoqCj60DnAu0mqM1ZyxHd911YuXYZTExKRUJbjZa348+i1NV9VnQowevRoHnjggdBzqqqq6N+/P4cP16+gHo95zyepdQKXYprRUb5rX5rM60lixP5TRkQE8F0bojae69evX7PndOrUiV69ekXfkgvLtkuIYFXcq8CrluPpu62V0FYOItKcWqB+pcH69TFfRK23f/9+tm+PvI+al396IqKB4hbHy7aSIfTXgojEYxVQCLB8+XIOHjxIx44dYw5etmxZg6XaJ1106287d+szHLN82vNd+2CS65VWIifdBYhIq9AduBagsrKSgwcPMmTIkCYH7tmzh6KiIvbtM5OfnA6dOdEaQ1ZWdgHwI+C2gnNHdis4d+T6bavmfZGi+iVDaWGCiMQjF3iTYDYEMHLkSKZOnUrXrl3rB61YsYLJkyezZcuW+mMn/8Dh+AFNrhGowWTJlQCLtKFd+6QmJCLxOhOT/9ah7kBubi4DBgygR48erFmzhh07djQ4ISvniNLzbpm7KCsrewIQtqJhA5EcuGbz5aTtUBMSkW9iVFZ27hO1NdWxHwhF/Ae4AfjYcrwcYDhm+fSVxP7uqQL+iXnRdFUiCpbMpiYkInGzHO/Iqsqd2zYue/ToL7aVxRpWBdwD/AH42lYLluP1AyZgwlC7N/55lLcwW0vM8137QIsKl4ylJiQicbMczwFKoJZ9n37E7s1vl21966mVmPDTdzEBoj7wSRy/qxNmplRMjG0hAruAxzAb2m1o6b9BMouakIjEJdhaoYKGL55e7Lv20gT87kJMXt1NNJ0DB+Z9pZcwCxle1IZ2bYOakIjExXK8EcALUYdWA4WJ3L/HcrxjgJsxz45OCRm6GZgJzPFd+9NEXV9ST01IROJiOV4pDbd5GOu79t+SdK1sTA5cMXAVsdNdDgHzgEm+a+9JRi2SXEpMEJFmWY43iIYN6GPMbqZJEbwz9ArwiuV4fYBbgVuA4xsN7QCcD1QmqxZJLmXHiUg8Jjf6PMN37UOpuLDv2lt81/4N0AfzzGh5oyGuXnRtvXQ7TkRCWY6Xj3kGc0Rw6ABQ4Lv252msaSDmuZEN9E9nLdIymgmJSHMmEmlAAE+k+0vfd+33fNeeAPRKdy3SMmpCIhJTsFHcZY0OT0tHLU1J1S1BSR7djhORUEHkzjXAFOAL37VHpLkkERFpjyzH65zuGkRERERERERERERERERERERERERERERERERERERERERERERERERERERERERERERERERERERERERERERERERERERERERERERERERERERERERERERERERERERERERERERERERERERERERERERERERERERERERERFqb/wNWUR7nVK12BAAAAABJRU5ErkJggg==;" vertex="1" parent="1">
          <mxGeometry x="101.24" y="285.63" width="205.35160794917314" height="229.9741029071076" as="geometry" />
        </mxCell>
        <mxCell id="UGAgcFjpy74Iv2Mi5U0g-2" value="" style="shape=image;verticalLabelPosition=bottom;labelBackgroundColor=default;verticalAlign=top;aspect=fixed;imageAspect=0;image=data:image/png,iVBORw0KGgoAAAANSUhEUgAAAZAAAAHTCAYAAAAJc04OAAABgWlDQ1BzUkdCIElFQzYxOTY2LTIuMQAAKJF1kbtLA0EQh788fOCDCLGwsAgarRKJCqKNYESiECTECL6a5MxDyMXjLiJiK9gGFEQbX4X+BdoK1oKgKIJYa6too+GcM4GImF1259vfzgyzs2CPZRXVcAZAzeX1aCjomZmd89S94MQts5PauGJoI5FImKrj4w6bZW/8Vq7qfv+OxsWkoYCtXnhY0fS88LhweDWvWbwt3Kpk4ovCp8I+XQoUvrX0RImfLU6X+MtiPRYdBXuLsCf9ixO/WMnoqrC8HK+aXVHK9VgvaUrmpqfEdshqxyBKiCAeJhhjlAF6GZJ9AD999MiJKvGBn/hJliVWkV1jDZ0l0mTI4xN1RbInxaZET8rMsmb1/29fjVR/Xyl7UxBqnkzzrQvqtqBYMM3PQ9MsHoHjES5ylfjlAxh8F71Q0bz74NqAs8uKltiB801oe9DievxHcsiyp1LwegLNs+C+hob5Us/K9xzfQ2xdvuoKdvegW/xdC981XmfPSMCHKQAAAAlwSFlzAAAuIwAALiMBeKU/dgAAIABJREFUeJzs3XmYFNXVx/HvLIBsAoqgoMiiIooIimK5b3EXl5QbGvetFHkjaqKJRqMmxhiXuFCiUdyiaAp33MUNLURRAVFEUQERFWSRZUBg5v3jVs9U93T3DEx3Vy+/z/PwPNSd29MHhTldde89B0RERERERERERERERERERERERERERERERERERERERERERERERERERERERERERERERERERERERERERERERERERERERERERERERERERERERERERERERERERERERERERERERERERERERERERERERERERERERERERERERERERERERERERERERERERERERERERERERERERERERERERERERERERERERERERERERERERERERERERERERERERERERERERERERERERERERERERERERERERERERERERERERERERERERERERERERERERERERERERERERERERERERERERERERERERERERERERERERERERERERERERERERESaynK85lHHICKFqzzqACQaluNdAfxiOd6foo5FRApTWdQBSO5ZjrcBsBhoEQz9BJzmu/ZL0UUlIoVGdyCl6UHqkgdAJ+BFy/E+shyvR0QxiUiBUQIpTTOANUnGBwAzLccbHdyliIikpEdYJcpyvPbA48BBKaasBK72XfufuYtKRAqJEkiJsxyvP/AEsHWKKT8Cv/Nd+9XcRSUihUAJRACwHO8U4C5gwxRTJgG/9V17Vu6iEpF8pgQitSzHKwduBoYClUmmVAOPAWf6rv1rLmMTkfyjBCL1WI63Eeax1gEppqwErvRd++bcRSUi+UYJRFKyHG9nzEJ7rxRT5mHWR17PXVQiki+UQKRBluOdAfwbaJtiykTgWN+15+YuKhGJmhKINEqwPvJvwAEqkkypBh4BzsnX9RHL8SqAXYBtgC4JvzoBS4DvE37NAt71XXt5FDGL5DMlEFknluN1xKyP7JdiShVwue/at+cuqtQsx2sFHAgcDRwBbLIe32Yl8CrwNPC879o/ZS5CkcKlBCLrxXK8XTCJpHuKKd8DQ3zXfitnQYVYjrcnMBw4BGiZwW9dA7wL3Av813fttRn83iIFRQlEmsRyvLOBW4E2KaZMwKyPzMtRPNsB/wCOXIeXVQMLgHbE1whryFTgcuBF37Vr1uF1IkVBCUSazHK8SuB24FxSr488CJyfrfURy/G6An8FziB1jbeVwCvBr1mYXWTfAz/5rr3WcrwyoAN16yJdgT2BwUDHNG//JvAH37U/aPqfRKRwKIFIxliO1wn4H7B3iilVwGW+a9+V4fc9FXCBVkm+vAh4FrN+8er6LIYHi+8WZh3lGKBniqm3A5f4rp2sUKVI0VECkYyzHG83YDSwZYop3wEn+a49vonvU4F5XHVpki8vA24CbvFde1lT3ifhPcuBk4DrSb7+8zpwvO/aCzP1niL5SglEssZyvPMwpVFap5jyHmZ95Mc036Y1psz8lsBnwKfAasvxNsSUVTksYf4aYCRwbTZ3S1mO1wK4ALgS2Cjhy18BR/quPT1b7y+SD5RAJKuC9ZG7gLNJvjZRDYzCrI+EH/0MxnzK3z7hdavKK5t/st3gazq17bxNYvOryZhP/zMy9gdoQFAW/y5gSMKXfgGO8137lVzFIpJrSiCSE5bjdQbGAHukmLICsz7yGObA4u/Sfb+y8go239mm607HUlZeQfC9T4viwF+w+P5H4O/E/5taCezpu/akXMckkgtKIJJTluPtjlkf2SLxazU11Uz1/rhq+YJvGr2VdtO+B9Njr3P+inlkVZ3BUNeZ5XhHAo8Sv6V5LrBLrrYxi+SSEohEwnK8CzCL3LU7p+Z+/DSzJzxSO6dt27Zcdtll7Lnnnmy++ebMmDGDF154gZEjR7J2bdz5vQMxi9eRsxyvL2Zb78ah4YnAPr5rr4wkKJEsUQKRyATrIyOB01cu+aH8k9G/p6baLIP06NGDJ554gs0226ze6yZPnoxt21RVVcWGZmPqW63KTeTpWY63D/Aa8T1VHgFO1YFDKSapDlyJZJ3v2mt81z4L2HzBV+9+E0seZWVl3HbbbUmTB8COO+7In//85/BQN6BftuNtrKB8y9CE4VNoYF1HpNDoDkTyxf2YU+QMGDCA5557Lu3k1atXs80227B69erY0AWYw4R5w3K8O4hPJN8B2/iuXZXiJSIFRXcgki92jv1mhx12aHBys2bN6NOnT3hoYBZiaqqLgY9D15sDF0UUi0jGKYFIvqjdfrtixYpGvSBhXsZOm2dKcK7lDwnDVwQtg0UKnhKI5IsPY7/55JNPqKlJv9a8dOlSZs6cmfT1+cR37dcwxRtj2gN/iigckYxSApF8UXvY7quvvmLMmDFpJ//zn/9MTDJ5mUACf8T0EYm5MCjFIlLQlEAkXzwP1NbEuuqqq3jzzTfrTaqurmbUqFGMGjUqPPwu8EW2A1xfvmt/gqnbFbMBptGVSEGrbHiKSE78DJyHKbvO0qVLOeWUUzjiiCPYY4896NatG9OnT+eVV17h/fffD7+uCjgdU1Mrnz1EfL2sozEdHUUKlrbxSr65F1N4sbEc4O4sxZIxQfXe+UDbYGgJ0ClbDbZEckGPsCTfnFvZos3/lVdu0NC82cBvKIDkAeC79irghdBQO2CfiMIRyQg9wpJ8U7PLmQ/MXbX0J+Z+/AzLf/qKZQu+qaamuhyzVfcjYDxwI6ZkeiF5BjghdD0YeDWiWESaTAlE8tH2Ldp2oufe5wCwumrJiR8+cNaHmD7m+b7Wkc6LCdfbRxKFSIboEZbkoy7hi2Yt200HvqGwkwe+ay8Gwq1uu6SaK1IIlEAkHyVWUfw+kiiyI/xnSV4tUqRAKIFIPgp/Mv+V+E/thS7cWGpDy/HapJwpkueUQCQfhRPIvCLroZF4N6W7EClYSiCSjzqHfv9DZFFkR+KfZ9NIohDJACUQyUfhMrutI4siOxL/PMuTzhIpAEogko/C6wTF9ogn8c8zL+kskQKgBCL5KLxOsHFQBqRYhNd3qoGfogpEpKmUQCQfFfNCcziB/OC79trIIhFpIp1El3yUmEC6AN9GEEdTlQE9Me12BwLNfvriza5tO29Ny3ZdoKysmM63SAlSApF89F3C9S7Ae1EE0gRbAw8Au4cHZ467E4BWG3ej++5nLM19WCKZo0dYko/eTLg+OoogmuBCYDIJySNsxc+z+ey5a/cBrkZtFaRAKYFIPppC/COrvSzH2ziiWNbVYOBOoGV4sFu3bvTq1YuysnCuqCkHrgHOyV14IpmjBCJ5Jzh5/nRoqAI4PKJw1sXGwD3hgTPPPJOpU6fy3nvv8dZbb/HZZ58xfPhwKivjnh7fDHTPYZwiGaEEIvnqmYTrYyKJYt1cTegU/U033cS1115Lhw4daie0bduW4cOHc99994Vf1wb4Z86iFMkQJRDJV+OJL6I42HK8PlEF00h7x36zzz77cOKJJ6aceMABB3DCCeHeUuyN1kKkwCiBSF7yXXsN8EhoqBy4IaJwGqMl0Dd2ccQRRySsd9R3+OFxT+U6A12zEplIliiBSD77O6aNbcxRluPtEVUwDdgWs1YDQJ8+Dd8sbbvttolD/TIbkkh2KYFI3vJd+0fgXwnDN1mOl4+PemaHL+bOndvgC5LMmZXBeESyTglE8t3NwI+haws4N6JY0vmZ0NZj3/cbfEHCnCpgeqaDEskmJRDJa75rLwP+mjB8p+V4eyebH7EPY795+OGHmTJlSsqJs2fP5s4776y9btN5m+aW411SZIUjpcgpgUgh+A8wMXRdCYyxHK9HaKwdsB9wMfA7oA+hNYkc+TuwBmDt2rWcfvrpvPHGG/UmffjhhwwZMoQVK+rannTb9YQK4EbgM8vxjsnTx3QicfSXVAqC5XhdgA+Ir2b76ZT/XXbO8gXf3IJ5tJVoGXA7cC2wKvtRApRdAzVXh0cGDBhA//79qaysZMqUKUycOJGamrouvZ23P4iee9d7KvcGcLHv2pOzHrLIelICkYJhOd4uwNvABjU11Xz/8dPMnji6hprqhv4eTwVOBT7JcnzNq9f8eteMV24+e9GsSY16TXlli092/t3Inys3aHNAki9XY+6+rvJdW31DJO8ogUhBsRzvJODRuR89yez3H6339ZYtW7Jy5cq4T/iBRcD2ZKkDoOV4HYExwN5Qw4+fvc6s9x5g7eqVqV7yK3AVcLPleNXAocAtQO8kc38BrgNu913718xHL7J+lECk4PQ+9I/ujJf/dX5NtenFVF5ezvnnn8+JJ55I9+7dqaqq4qOPPuL6669n2rRp4Zc+jyl2WC+7NIXleDsAz5JQz6pq0dzxk5+4xKupXjMA2BlojllonxTEMiPh+zQDLsAUWGyf5K2+Ai4Fng3qhYlESglECtEEYBCY5DF69Gh2371+5fTVq1czdOhQxo4dGx4+HvhfJoKwHK8lMAxzJ9E64cujAMd37XVeewnuZv4KnE/yjS6vY9ZHpq7r9xbJJCUQKTQdCNXIuvDCC7niiitSTl60aBH7778/8+fPjw39hyaWT7ccrwKzpnItsHnCl6sxdwm3NfUuwXK8vpjHWr9J8uVqTOXfv/iuPT/J10WyTglECs0BwGuxi/Hjx9O9e/e0L7j88st55JHaslqfAAPW540tx9sQU1b+T4TqXoX8Apzgu/ZL6/P9U7xnGXAE5kDl1kmmLMEksju1PiK5pgQiheYygtLnbdq04fPPP2+waOEjjzzC5ZdfHrtcu0G7TVuvXPJDox4tBduHBwNHAftj1jGSeRkY5rv2jBRfbxLL8ZoDQ4G/YM68JJoBXAKM1fqI5Ip6okuhWRD7zYoVK6iqqqJVq1ZpX7BwYV1V+MoWbSr6n3THN2VlZbMwO7K+D379hPnB3CX0qyvQq4F4PgL+4Lv26+v+R2m84O7iFsvxHsbsyDqH+PWRbYDngFctx7vYd+1pSb6NSEbpDkQKzQ6YlrcAPPHEE0kX0MNOO+00Xn/d/Hxvv8WO9DniqkzE8S3wZ2C079rVmfiG68JyvH7ArZi7okRrgZHA1b5rL0jydZGMUAKRQlOJWWtoCdCvXz+effbZxBaxtd5++22GDBlSe911p2PpNmhI0rmNMA+zXfcZ4DXftVev7zfKhGB9ZDBmfSTZndJizJbgEVHHKsVJCUQK0T8xayEADB48mBtuuIF27eKXBt555x2GDRtWuwOrrLzi137H3fRRq426bQFsSsO1shZgSqy/gkkaH0Rxt9GQoABjbDtx2yRTvgCG+679Qk4Dk6KnBCKFaAPMYbztYgOdOnXi0EMPpW/fvixcuJAPP/yQV199NfF1FwAu1G7F3QSz1rEZ0Amzoym2JvJDoe1qshyvM2Z95GyS/9t+CbjEd+3PchqYFC0lEClUAzHbeZPtSErmaeBYMnwKPR9Zjtcfsz6yb5IvrwVGANf4rr0wyddFGk0JRArZ5q079nh/+YJvuqSZswLzuOtuzOG7khCsjxyD6ejYI8mURcDVwN1aH5H1pQQiBctyvM1qampm/fzVu80WfzeZZT9+VV21aA6YRfZYzal7gZlRxhkly/E2AP4PuBJok2TK55j1kYwdfpTSoQQiBctyvGsxC8cxru/awzG9P4r+UdW6sBxvU+B64EyS/7t/AZNIvshpYFLQlECkIAWfrOcAHUPDfXzXVl/xNCzH2wm4DdgryZfXAHcC1/quvSingUlBUktbKVRDiE8eLyp5NMx37Y+AfYDjMIchwyqB3wNfWo53geV4qlQhaekORApOsEA8GXMqPeZg37VfiSikghTcxV2MOVGfWI4eYBqmbHy9/dAioAQiBchyvP0xPTFiPge2VxHB9WM53mbA34DTSf4zwQNO8117RS7jkvynR1hSiH6fcN3k3hulzHfteb5rnwnsArybZIoN3JTbqKQQKIFIQbEcb2tMf4yYhcAjKabLOvBdexJmcf0ETAmXMMdyPCv3UUk+UwKRQnMR8Y9Z7tGjlczxXbvGd+0ngD7Af0NfKgPuCfq2iwBKIFJALMdrB5wRGloL3BVROEXNd+0qTAOrH0LDfTHtekUAJRApLGcSf5r6f75rfxdVMMXOd+3FmDu+sKstx9sqingk/yiBSEEIqucOSxi+LYpYSswY4PnQdQvg7mArtZQ4JRApFIOB7qHrCb5rvx9RLCUj2N12IbA8NHwA8LtoIpJ8ogQihaLe1t1IoihBvmvPxhRjDLvFcryOyeZL6VACkbwX1G/aOzT0HfBkROGUqjsw1Y1jNsaUipcSpgQiheD/Eq7vVA+L3PJdey1wDmbnW8xpluMdEFFIkgeUQCSvBWXITwoNVWF6fEiO+a79MfUfHd5tOV7LKOKR6CmBSL5zgPDhtQfVijVSVxN/Sn0r6q+PSIlQApG8FVSLdRKGb48iFjF8114OXJAw/AfL8fpGEY9ESwlE8tlJwCah65d81/48qmDE8F37BeDx0FAlpsyJfp6UGP0Pl7wUHFTT1t389XtgcejaAs6LKBaJiBKI5Kt9gX6h688BNYzKE75r/wD8IWH4H5bjdYkiHomGEojkq8S7j3+r50feuQ8YH7reEK1RlRQlEMk7luP1Ao4MDS0CHo4oHEnBd+1q4FwgfCbnt5bjHZniJVJklEAkHyX2/Bipnh/5KdjUcEPC8F2W47WNIh7JLSUQySuW422IKdsesxYYEVE40jg3AF+ErrcArosoFskhJRDJN2cC4U+vnu/ac6IKRhrmu/ZK6u/AushyvF2iiEdyRwlE8oZ6fhQu37XfAu4PDZVjzoZURhSS5IASiOSTI4Eeoev3fdeeEFUwss4uA+aHrvtTfzedFBElEMknOjhYwIIaZYn/D/9qOV6PZPOl8CmBSF6wHG8AsE9oaC6mnaoUlseAl0PXrYARaoFbnJRAJF+o50cRCA57Opiy+zGHACdEE5FkkxKIRE49P4qL79rfANckDP/bcryNIghHskgJRPLB+UDz0PVDvmv/HFUwkhG3ApND152AGyOKRbJECUQipZ4fxSl4/HguEK5fdrbleHuneIkUICUQidqJmE+nMS/7rv1ZVMFI5viuPRG4I2H4HsvxWkQRj2SeEohERj0/SsKVwHeh697A5RHFIhmmBCJR2gfYMXQ9HfX8KCq+ay8FhiYM/8lyvG2jiEcySwlEopS4dfffQYlwKSK+az8DPBkaao5a4BYF/Q+USFiO1xM4KjSknh/FbRiwNHS9F/FVl6UAKYFIVBJ7ftzju/byqIKR7PJdey711z5ushyvcxTxSGYogUjOBT0/zgoNrQXuiigcyZ27gXBxzPaY8yJSoJRAJApnEN/zY4x6fhS/UAvcNaHhkyzHOySikKSJlEAkp9Tzo7T5rj0VuClh2LUcr3UU8UjTKIFIrh0B9AxdTyT+sYYUv+uAmaHr7tSvnSUFQAlEcq3ewcGggquUCN+1qzD1z8IuthyvfxTxyPpTApGcCX5A7Bsa+h7woolGouS79mvEb9uuAO4NHnFKgVACkVxSzw8JuwQIV10eSP1T65LHlEAkJ4L9/kNCQyuBeyIKR/KA79rzMUkk7G+W43WLIh5Zd0ogkivq+SHJPASMC123Bu5UC9zCoAQiWReU774gYfjfUcQi+SXYQHE+sCo0fCRwbDQRybpQApFcSOz58Yp6fkiM79pfYrb2ht1hOV67KOKRxlMCkawKHkUkLp7r4KAkugmYFrreDLgholikkZRAJNv2AgaErr8AXo4oFslTvmv/iilzEna+5Xi7RxGPNI4SiGRb4sFB9fyQpHzXfg9TcDGmDNM3pHmKl0jElEAka4KeH0eHhhZjdt2IpHIFMC90vT1waUSxSAOUQCSbhqKeH7IOfNdeTP1im3+xHG/rKOKR9JRAJCuCnh9nh4bU80MaawzwfOi6BXC3zobkHyUQyZbTqd/zY3ZEsUgBCc6GXAiE71b3B34XTUSSihKIZFyKnh86OCiNFnzYuDJh+BbL8TpGEY8kpwQi2XA40Ct0/QHgRxSLFK47gA9D1xsDN0cUiyShBCLZoJ4f0mS+a6/FnA1ZGxo+1XK8AyIKSRIogUhGWY63I7BfaEg9P2S9+a79MfUrF4y0HK9lFPFIPCUQybTEsiV3BaeMRdbX1cCs0HUv6q+PSASUQCRjLMfrBJwcGlLPD2my4OyQkzD8B8vxdogiHqmjBCKZlNjz42HftRdEFYwUD9+1XwRGh4YqMWVO9DMsQvqPLxkR9PxI/JSorbuSSb/HlMOJ2Q3zoUUiogQimXI8sGno+lXftaelmiyyrnzX/hH4Q8LwDZbjdYkiHlECkQwISkxcnDCsnh+SDfcB74SuNwRujyiWkqcEIpmwJ/E9P2YAL0UUixSxoBXAecDq0PBvLccbHFFIJU0JRDJBPT8kZ3zX/hz4e8LwXZbjtU02X7JHCUSaxHK8Hqjnh+TeDZjuljGbA9dHFEvJUgKRphpK/N+je33XXhZVMFIafNdehXmUFXaR5Xi7RBFPqVICkfUWPDJI7PlxZ0ThSInxXfstzKJ6TBlwr+V4zSIKqeQogUhTnI7ZBRPzpHp+SI79AfgpdL0j9dfkJEuUQGS9BCeAE+teaeuu5JTv2gupnzD+GqzNSZYpgcj6Suz58SHq+SHRGA28HLpuCbhqgZt9SiCyvtTzQ/JC8PfOAapCwwcDJ0YTUelQApF1ZjleP0yP6ph5wP8iCkcE37W/wZR9D7vNcryNooinVCiByPpQzw/JR7cBk0PXnYB/RhRLSVACkXViOd4mqOeH5CHftVcD5wDhR6lnWY63T0QhFT0lEFlX5wEtQteP+K49P6pgRMJ81/4AuCNheGTQbkAyTAlEGs1yvObAhQnD6vkh+eZK4LvQdW/giohiKWpKILIuEnt+vOa79qdRBSOSjO/aS6n/QecKy/H6RBFPMVMCkUZRzw8pJL5rPws8GRpqjnmUpZ95GaT/mNJYewA7ha6/BF6MKBaRxhgG/BK63gs4M6JYipISiDSWen5IQfFdey711z5ushxv02TzZd0pgUiDLMfrDhwTGloCPBhNNCLr5G5gQui6PXBrRLEUHSUQaQz1/JCCFNwlnwusCQ2faDneoRGFVFSUQCStJD0/qlHPDykgvmtPBW5KGHYtx2sdRTzFRAlEGnIa0C50/aTv2rOiCkZkPV0HzAxdbwlcE00oxUMJRFJSzw8pFr5rV1G/Be7FluMNiCKeYqEEIukcBmwVup4EvBdRLCJN4rv268BDoaEKTAvciohCKnhKIJJOvbsP9fyQAncJ8HPoemfgoohiKXhKIJKU5Xh9gQNDQz8AT0QUjkhG+K69AJNEwq63HK8bUBb8kkaqjDoAyVvq+SHF6iHgVGD/5fO/ZsHM91ovmTN5EtAM81jrI0yL5jHokW1ayrZST9DzYw51ZdtXAVuobLsUi/5D7thu/vQ3pnz/8dMVNTUpCyrUYKpN/xlYkbPgCojuQCSZc1HPDylerT959KKHMXcb6ZRhSvgciqkF93P66aVHCUTiqOeHlIAbCRUGrays5KCDDqJ///5UVFQwZcoUXnrpJVatWhWb0hvTpGpIBLHmNSUQSXQcsFno+vXgJK9IMTiA0AekrbfemjvuuIO+ffvGTZo5cyYXXXQRU6ZMiQ2dhFkTGZOrQAuBdmFJraDnR2LVXR0clGJS29OmZcuWjBo1ql7yAOjVqxcPPPAA7dqFizBwaQ7iKyhKIBK2OzAwdP0V8EJEsYhkWhmhv99nnnkm3bt3Tzm5U6dOXHRR3BGR/uipTRwlEAlTzw8pZl2AzrGLXXfdtcEX7LLLLuHLDYDtMh5VAVMCEQAsx9sSODY0tAR4IJpoRLKic/iiY8eODb4gyZzOyeaVKiUQiUns+fEf9fyQIjMNWF17MW1awy+oP+eTzIZU2JRABMvx2gDnhIbU80OK0Srg09iF53lUV6d+QltTU4PneeGhWYDOQ4UogQjU7/nxtO/a30YUi0g2vRr7zcSJExkxYgQ1Ncnrgz722GO88sor4aHXshxbwVEZ4xIX9Px4BNg4NHzedx8+MTuikESyaQLmTEcHgPHjxzNjxgy23npr2rdvD5gzIH/729+47ba6Hexl5ZWLqak+CpU0iaMtaXIosHXo+iNgfESxiGTbMuAM4M3YwNixYxk7diwtW7akvLyc5cuX13vRVgdctLLjVnss9107d5EWAD3CEvX8kFLzFmCXV7aoCg9WVVXVSx4VzVuy1X4X0nGrPTYFrsphjAVBCaSEWY63PfCb0JB6fkipGLPTKSNabtxzNyhLWpS8plmrDh/2P+FWNtl2v9jYZZbj7ZC7EPOfEkhpS7z7GOG79qqkM0WKiOV4JzZr2Y5tDr6UQWc9Qt9jrqeiRevLMeVK9gXar16xaJfmbTqODr2sErXAjaM1kBJlOV5H4HehoVXAyIjCEcm1x2K/KW/Wgrabbrt67arlNyaZ93vgEKB9cD0IOB+4K/sh5j/dgZSuczGlGWL+67v2T1EFI5IrKR5D7Zhsru/aPwKXJQzfsOs5/90c2CJ4XfPMRlg4dAdSgtTzQ0rclMQB37U/TzP/fszd+t5LvpvMvCkvtP1l3vSvqGu69mvwPV8G/k4JbfVVAilNNqawXMw437Xr/aMSKTaW47VPMpx2b67v2tXbDb5m+IIvx0/86fPXYk9twh07m2Oq/A4EjgdOp0R6qSuBlJig58fFCcPq+SGlYmzigO/aDTWJ2uCzZ6+5n8Y98t8aeAc4Cnh+3cMrLEogpccivufHTJL8oxIpNkHVhd0Thm9uxEv/CvSLXbRq1YqzzjqLgQMH0qFDB6ZNm8YTTzzBxx9/HJtSDtwL9KXI+6grgZSexJ4ft6vnh5SIZLus/tDAawYR6kTYu3dvRo0aRbdu3Won7LTTTgwZMoTbbruNW2+9NTa8KWZd8ZSmhZzftAurhAQ9P34bGvoFGBVROCK5ltiS1m/wJ4BdAAAgAElEQVTEh6eTCH5ONmvWDNd145JHTEVFBcOHD+fAAw8MDx9P/FpJ0VECKS0XEv///D7ftZdGFYxIrliO99skw4c14qW1j3sPP/xwttlmm5QTy8rKuPjiuOXFZkBRn1xXAikRKXp+3BFROCK55iUO+K69uIHXVAADYhf9+/dv8E369OlDZWXcysDOjYyvICmBlI5TqTtNC/CM79rfRBWMSK5YjtcnyXDSg4NhPfY6uyWUNYtdV1Q0XMGkvLw8cV5RHzLUInoJCHaf1Ku6G0UsIjmwIebOYUdgftXi7x9s2W6zuKKJ6c49WY7XDTgPOHv+jLeaLfvxSwCmTGn4qNSMGTNYtSqunNwH6/MHKBRKIKXhECD88PZjzF51kWLSD1PPbRBQmy0+eWwYFc1b0aX/YLoOOIay8oqTE18YnI86ALNOOJjg6UybTXoRSyBjx47l4osvTrqIHjNixIjw5VpgclP/UPlMCaQ0qOeHFLNK4I/A1ZiF63rW/rqCORNHs/CbiSyf/3XtD/XgZPppgAP0TnzdRj1344dPXwJgxYoVDB06lPvvv5+OHTvGzaupqeGBBx7g6aefDg+PBeJ6jhSbpIXwpXgEPT8+DQ39CGypsu1SRK4GrkkcbNGiReLjpJiftjn40uM27rnbyZhzGq3SfO8XPxl9cVnVojmHxAY22mgjhg0bxsCBA9loo4349NNPGT16NOPGjat7VVn5UmqqtwW+X78/UmHQHUjxG5ZwrZ4fUkx2Aq6MXVRUVOA4Dscddxw9evRg2bJlTJo0ieuuu44ZM2bEpnX6+at339q4526pvuciTAFF13ftmUBbzKOoHgALFy7kmmuuSRtUz73PXd55uwMXFnsLXN2BFDHL8TYGvqOubPuvwBYq2y5F5COCrbaVlZU8/vjjDBo0qN6kVatWce655/L666/Xjm172BV02DJul+1HmD4fo33XTqyo2wlwgWPTBdOsVXt67XM+HboPBLjOd+2/rPsfqXBoG29xU88PKWadCJ3TGDp0aNLkAeZx1r/+9S/at6/byb549idgPlQ9TFAjznft+5MkD4CfMFV7T8bsrPo14euzWnbY/OX+J9waSx4Al1uOt936/MEKhRJIkbIcrxkwNGFYPT+kmMTdPpx00klpJ2+yySb85je/qb1e+O3E2cDmvmuf6rv2hEZsLKkBHgV2xTzW2gk4CNgE6F616LtDKjdoG67s2wwYGWyjL0pF+weTej0/3vRdu6i3FErJ2Sn2m/bt29OlS5d0cwHYYYe6yiK/Lvu5k+/aC9fzvX/FbId/FVgQGh+GqTEXsydw9nq+R95TAilC6vkhJaK2VPqyZctYvXp1gy9YtGhR3CXmrEbG+K79PXB5wvA/LcfbLJPvky+UQIrTbsAuoeuvKYHmNlJyPoz9Zs2aNUydOrXBF0yaNCnp6zNsJOCHrttRpB/glECKU7KeHxn9pCWSB6YCtbcd119/PWvXpv5rPm7cON5+++3w0KRUc5siKBF/LrAmNHy85XiHZ+P9oqQEUmSCOj7h0tVLUc8PKU6rMJ/2Afjggw+49NJLWbZsWb2Jb731VmKp9aXAA9kKzHftT4F/JgyPCKpiFw0dJCw+F2LKUMfc57v2L6kmixS4yzG13rYC+N///se7777LoYceyvbbb8+CBQv44IMPePXVVxNfNxyYleXYrsc0ldoquO6GaY97SZbfN2d0kLCIWI7XGnNwMLbZvQbYynftr6OLSiTrdgdeBhr76d7D/GDPej04y/EOAF4LDb0D7O+79poULykoeoRVXJL1/FDykGL3Xtedfnvkhl22b2jeckzRxJwkDwDftV8HHgKWBO+9b7EkD9AjrKKhnh9SyroNOum31NQwf8ZbLPluCovnTP55ddWSjTBnMj7ELJiPxOxIzLXhwOW+a8+L4L2zSo+wioTleIcCL4SGPgF2Utl2KXaW43XAPLqNVdVdA3T3XXsRppy6/g1kie5Aiod6fkipOof4kuyP+649N6pgSonWQIpAULDt4NDQT8DoiMIRyZmg5ttFCcO3RhFLKVICKQ7q+SGlygY2D12/7bt2Vg4ISn1F9QjLcrzjMB3GRgCvBidCi0kZ5k5jD2Ag0KesvPK7b999YFDbTXuzUY9dKSuv+BW4O9IoRXIgqPk2PGFYdx85VFQJBFO+fG9gMDDTcry7gVG+a/+c/mUFoQtwDxBXDqGmes2W86Y8z7wpz9Nmk15suftpL0575i8/RhOiSE7FPkjFzASeiyiWklQ0u7Asx+uLqY2TaBXwOKab2Pv5uLAclDdoByxI8ehpP2AM0KER3+5XzKLiQ5mLUCT/WI43hvgOgcN8174jqnhKUTElkGOA/wAbpZn2Mebx1mO+ay/PSWABy/EqMb0BDgK2xNxRdAE2wzSnifkZ+D74NW/lLz/O/vjRi86nprpTbEL79u3Zbbfd2GqrrZgzZw7vv/8+P/zwQ/jtVgL9gS+y+ocSiYjleD2BL6lbx12CaQ5VvxCWZE3RJBAAy/FaYk6ZOkDy3pbGEuBB4G7ftT9fx7fphLlt7oA5azGdFD0FgtIiBwNHAUeQPrkl9dXrtzN/Rl0F0aOPPprrr78+rjXnqlWr+Ne//oXruuGXTsAkLFXhlaJjOd5txG9dv8l37T9EFU+pKqoEEmY53k6YRHIy0DLN1Dcwj7ee9l07VUeaCkyDpmHAFglfWw68Enztu+C9twCuAYYQ35N8naz85Qc+/m9dV9r99tuPhx56iLKy5P/brr76au67777w0OHEHy4UKXiW47XD/FuL1b5aC/TwXXtOdFGVpqJNIDGW47XH1Ii6AOidZuo8zCOwe3zX/i40vjWm7PPuDbzVkmatOvx551NHdisrKx9G4xLHQmAu5nHVEszdTRegK9B6wVfv8uWrdZtKJk6cmLZtZ1VVFYMGDWLhwtounVcD1zYiDpGCYTneJcC/QkOjfddO3xBdsqLoE0hMsOVvX0wiOZrUO9DWYnZyjPjggTOnrKn6ZSqwSWPfp+c+59N5uwOTfWkF8BLwDDAe+N537ZVp4m370SPO7auWzj8doHv37owfP77B9z/11FMZN25c7PI5zI40kaIQrCXOxJRGjxnku/bEiEIqacW2jTelYPfVG8AbluN1wTS6PxfzaT+sAjgaao5us8lWyxbP/qi2RPSWW27JH//4RwYOHEi7du349NNPefTRRxkzZkzti2e99wDtt+hHi7adwHRL+y/wJPCa79pV6xDvUqB17Lpr18Qwk9t88/CZKro39v1ECsSxxCeP95Q8olMyCSQsaHx/reV4fweOxKyV/CY8Z+E3Ewknj/3224+RI0fSqlVdyZ1BgwYxaNAg9ttvP4YONWsVa1ev5Ou376XP4X9+DLiyieXUpwLHAUyfPp2ampqU6x8x06dPD19OacJ7i+SjixOub4kkCgFK6BFWQyzH2wY4Hzgd6DDzjbv4afobAHTo0IFx48axySapn2RddtllPPbYY7HLaswCX6PvOFI4DBgbuxgzZgyDBqXeXDZnzhz23XdfVq2qPUpyMSrpLkXCcjwLeC809C2mYZp2GkZEtbACvmvP8F17OKauzpm/zJte+8P/yCOPTJs8AE4//fTwZTmwYwbCmog5CAnA8OHDWbp0adKJa9as4ZJLLgknD7bYdUiqXWUihSjx7uPfSh7RUgJJ4Lv2Ct+1R69cMq95bGyHHXZo8HW9e/emefPm4aGdMxDOAuDK2MWsWbM46KCDePvtt1m71vy7qampYerUqQwePJj33qv7cNZ5uwPZfOdj/2E5XoNt2kTyneV43YHfhoaWAvdHE43ElOQaSCOsxnzybwWwYsWKBl+watUqVq+O+8Cf/FZh3d0KHEOwjXjOnDkMGTKEVq1asdVWWzFr1iyWLFkS94IWbTqypXUamMdoz1qOt2uR1AOT0nUR8R947/Vd+5eoghGjIO9ALMfraDnehll8izWYsicAfPTRRw2+YMqUKdTUxJXZ+jBDsawFTgTeCg+uWLGCKVOm1EseZRXNZvY+5A/LK5rXnp3sCXhB3wSRghP8Wz87NFQNqOZVHijIBAL8CZhrOd6dluP1ydJ71CaA559/nilTUm9oWrt2Lf/4xz/CQ8vJbB2qOcD+mNINqRbmq4Eba9au7tt6k57HE9/Gc1/g3xmMRySXzgTCHxif9F3724hikZCC24UV1Jeai6leGzMOuBN4znftNRl6q/7ABwSP+bp3784999zDdtttFzepqqqKq6++mkcffTQ8fDv1W8xmShtgAGaNZXvMoapJwEeYQowAWI53KXBTwmsP8F17HCIFwnK8CkzRxB6h4d191/YjCklCCjGBnAuMTPHlOZi6Vv/xXXt+Bt7uL8BfYxeVlZUcd9xx7LzzznTo0IFPP/2Up556im+//Tb8mq8wO7AaXjjJouDk/SjgtNDwJGDXImy0JUXKcrxjMa0MYt73XXu3qOKReIWYQHYCLsEcsEv1XP9XTA+QO5t4SrXZBu02m7NyybzOjZxfhTmQ+G4T3jNjLMdrBcwg/rT9Sb5rq1+6FATL8cZjGkfFnOC79hNRxSPxCi6BxFiOtymmcdL5mAKEqXyAebz1RLraU4EdMWXgBwJbNWvVYf7mO9vHLf/527L5n79OTU3aD+4+5hDijEb+EXLCcrwzgXCJ3q+BPr5r/xpRSCKNYjnersD7oaHZQK8MPqaWJirYBBIT7C46GrgQ2CfN1AWYart3+649K+FrHTC7Ok5O9eKNeuzCmpXLZ/wy77OVmLWHCuAHTIJ6GdOHPO8ONQXPkCdjYo75P9+1b48oJJFGsRzvMcwOxJjLfNf+V6r5knsFn0DCLMfbAZNIfkdwhiOJauBZ4C7gdd+19wCewHQGTK+sfC411ccA0zCL+PMyEHbWWY53BPG9or8Eeudje18RqO2p8w3mgxrAMmAL37UXRxeVJCrUbbxJ+a491Xft8zHP/C/G/KBMVI65Y3l1ddWSL8orW4wllDwqKyvZYYcdOPLII9l+++2pqKioe2VNdVdMsqmgQJJHYCzmTilmayBb259FMmEodckD4H4lj/xTVAkkxnftxb5r3wZsCxwCPE/8uQgAvn33ga2r16yq3V++3377MWHCBF588UVc1+Xll19m/Pjx7L57XC+p7sQ3s8l7wZ3G/xKGj4oiFpGGWI7XBjgvNFSDzjHlpaJ6hJWO5Xg9MWXbzwI6LJ//NVO8uhbKBxxwAA888EDScunV1dWccMIJ+H7c1vNtyexhwazqP+SO7VYvXzRt2U9fsWz+TFYvX7T4l3mf3YE5MDke0x1RJHKW4w0l/qT5U75rHxtVPJJaySSQmGBr60lzP3rqmtnv/3dzgGbNmjFhwgQ6d069W3f27Nnsscce4XIlpwEPZT3gzNgJeBDom+LrizG1hv5Lkjs1kVwJNn18AfQKDe/lu3bD7Tgl50qumKLv2isw21r3AM4A2H777dMmD4Bu3bqx9dZbM2NG7S7dnSmMBHIFcB3xz5MTtQcexlQ7PQVTikUkCkcQnzw+JE/OVUl9RbkG0ki9Y7/p2bNno16QMK93qnl55Ejg74SSR5s2bbAsiwMPPDBZ0jwauCGH8YkkGp5wfat2C+avkrsDCfmCoET61183rutswrx8X//YGLgndlFZWcmwYcMYNmwYlZV1/9tfeuklLr/8chYsWBAbugh4CtM/XiRngioTe4eG5lJ/84fkkVK+A6mttjtt2jR+/PHHtJNnz57Nl1/G7QqelKW4MuVSYNPYxY033sjw4cPjkgfAIYccwlNPPcUGG2wQHr45NyGKxEnsOHiH79rqqpnHSjmBTIj9ZvXq1Vx22WWJ/TxqVVdXM3z48MSvv590cv6wYr/ZY489OP7441NO7NGjB8OHxz052JHUBzFFMs5yvK7EnzpfQegOWvJTKSeQjzC7jgAYN24cp556Kj/88EPcpDlz5nDiiScyYcKE8PBI8vsRVjmhlrr7779/0u3JYfvvv3/i6zPR012ksS4k/pH6KN+1F0UVjDROKa+BAAzDNGraDOCNN95gt912o3fv3vTo0YOZM2cyY8aM2v7jgW+By3If6jrpgukbAkCvXr3STDWSbCTYFlMgUiSrgh4/54eGdHCwQJR6AlkIHI8p/d4FYM2aNUybNo1p06Ylmz8rmJ+pfufZMg+zFbc1wDfffNPgCxLntN6k54/L5zduc4FIE52KKWga85zv2snKEEmeKeVHWDHjMQfsHm5g3j3ADsTXlMpXazGP6AB48803U67vxLzxRmjTVVkZ2x917ZOW4z1oOd6uQXMqkYyzHK+c+ovnt0YRi6w7JRBjEeZTUD/Kys7t1OfA6nZd+9J5+4PpvsfpszCl0M8j/+88wmoXbd566y2efvrplBNnz57NLbfcUnvdaqNuVDTboAXmv8n7wAeW450ZnOIXyaTDMMU9Yz4G3oooFllH+mSZhOV43wJbBpfzfNdO17AqX22CKTu/CZhyLZdeeinnnXde3FbecePGcdlll8VtY97uyKtot3nSNfRFmDa5d+sRg2SC5XivY9YhY071XbuhpwGSJ5RAkrAc7z3qtsFWAy0LtIPfMcCT4YH27dvTr18/2rRpw9SpU5kzZ07cC5q36ejt/Lu7F2Gaa6W743gF01NlrO/aeddIS/Kf5Xj9MXccMfOA7gX6b60k6RFWcuHV43Jgr6gCaaKngGswSRCAxYsX8/bbb/PCCy/USx7Ai78uW3CG79rnYnqq/B+ptysfBDwDfG053p8sx2ts33iRmN8nXN+p5FFYdAeShOV4pxC/qH6H79rDooonA3YDHiB1/a6lmIXM+0moxhssoO8PXIDpIZKqKONqTNmJEcB7ql8k6ViOtxlmV2OzYKgK03Hw5+iiknWlBJKE5XgdgPnU/bCcA2xZYD8UW2IOAw4EurTq2H3hZv2OuGn18oUs+2kmv65Y+MuyH790MSVd3gHS13IBLMfbHDg3+JXujmMyJpE86rv2sqb+QaT4WI53HXBlaOhu37WdqOKR9aMEkkKSxb2dfNf+ONX8PLIBcC3mjqLeOZ8WbTrSc9/zab9F/yt91/7b+ryB5XjNMesrFxBf/C7RL5g+JK7v2p+vz3tJ8bEcryXmQ9nGoeFtfdfO5+oOkkSpHyRM52niE8jxxC/45aOdMY/eUvY7X7VsAZ8/fz3NWnXojzlouM69P4Ln1I8Dj1uO1xfT6fFUQqffAxtiqvteZDneOMxdybMqkFfyfkd88hir5FGYdAeSguV43TDPaGOWAr18154fUUgN6YTZttsxPNiiRQs23nhjvv/++2Sv+Q9wTibe3HK8DTHNqC4Etksz9XtMLbF7fdeel4n3lsIRHBz8lPgPOQf6rv16RCFJE2gXVgq+a88Gng8NtQWuiiichpRhPt3XJo9+/frxzDPP8MUXXzBx4kSmTZvG3/72N1q1ituZezZwaCYC8F37F9+1R2BO9e8LPAGsSTK1C/BXYLbleE9YjrevTrqXlIOJTx5TgHERxSJNpH+4aQSPZyZTl2hXA318154ZXVRJHQq8ELs4+OCDGTlyZL3eH2CaYh166KEsX1775Gou0I3QVt9MCXbanIM5xZ/uMOZnmAT4sO/av2Q6DskfluO9AvwmNHSG79oPRBSONJHuQNLwXftTzCJwTDNgvRaes6x2raZ9+/bceOONSZMHmKq7V14Z3vxCV+JLSWSM79rzfNe+FuiO6bee6jHFdsCdwFzL8UZYjrdDNuKRaAX/X8PJ40fgsYjCkQzQHUgDgq2rX2J2N8Wc7Lv2oxGFlMwbmMdGDB48mBEjRqSdvHTpUvr0iVtnPxnIyZ/HcrxtMYvup2MW2VN5B3NX8qQOlxUHy/HuA84MDf3Fd+3roopHmk53IA3wXfs76vcmuM9yvF2iiCeF2sJV222Xbv3aaNu2Ld26dQsP9c9CTEn5rj3dd+3/wzzSOg/zDDyZvTCfTmdbjned5Xhb5CpGybygUsHJoaFVwN0RhSMZogTSONcBU0PXGwDPWI6XL0UWa3cz/fTTTw1OXrt2LQsWLKi97rrTsUdajnek5XipTplnnO/ay33XvgeTvPbAdIdMdqfRGXPg7FvL8Z60HO/AYCePFBYHaBG6fiiPdzRKI+kRViNZjtcd0wskvE32A2A/37XX+SxFhj2IOYdB3759efHFF9O2sJ0yZQqHHXZY7fX2R1/Hhpv1AbNt+W7gvij+cVuO1wk4C9OdrluaqTMAF3jAd+3FuYhN1p/leBsAswkqQwe29137s4hCkgxRAlkHluPtjVkIDq9Qfwwc5bt2vcqEOXQRcHvs4qabbuKkk05KOnHt2rUce+yxTJo0KRgpY9ezH6aiWXiJh18xda3uAibkuoRLcCd0OOak+8FpplZh7lxGFEiVgJJkOd5ZmDNHMS/7rn1IVPFI5iiBrCPL8c4G7k0Y/hE4xnftqHqIdyivbPFN9ZpV7QBatmzJddddxwknnBB3J7Jo0SL+9Kc/8dxzz9WOdd7uN1U99zmvZZrv/Ql1da1yfqdlOd5WmMcfZxDf9jTRBEzC83zXXpmL2KRhwRmfqZimbDEH+679SkQhSQYpgayHJIXgwHxqP9d37QeTvCSbsTQDblk0+6Oh08f+Pe5r/fr1Y9CgQXTu3JnPPvuMt956i59/jit2+lWnbfcf1Gu/Cw7GfNrfM81bLcFU9HWjKDsRdEM8AXPSfec0UxdgPu2O9F372xyEJmlYjncQ8HJoaBqwQ4EVJpUUlEDWk+V4p2H6pDdP+NKLwB99155a/1UZff8y4EjgBoLSIbP8h/j+k2cb+y0WYdqJ1ra+tRxvR8yn/VMwdbJSeR3zaf8537WTnTbPKsvxdsUkvBOJX5gNqwHGYu6eXvZdO+MHJaVhluO9CIQfV53tu/Z9UcUjmaUE0gSW4+2OadrUKeFLNcBDwFXZWBuxHG834CaS3DEs+PKdGV++dnt7qEmMKWwspiR70gJZluO1wyzKXwBsm+b7zKWurtUPjQw/YyzH2xhzrsABeqSZ+jVm0X2U+k3kjuV422HuOGLmA930iLF4KIE0UVB08RmSn6VYhXnsMwZ4qykH4izHa4+5YzgRc+eRzCPAOb5rtwJOw/QC2Rlz2nwyMAlz6PAZEhpHpXjPMswBxQsw5dtTbfNdg/kzjgDeiWDRvRyz2H4BZvE91d/rVcBo4C7ftT/IUXgly3K8e4gv1nmt79pXRxWPZJ4SSAYE/Q0uBv5I6tPVv2A++T8DjAd+TPf4x3K8FpitrAcBR2N+kKcqvz8T+BPwvxQ/vMtoRMJIx3K8rpgfBucCm6WZ+ikmkTziu/bSprzn+rAcrwfmgOLZxJcMT/QhJs7RvmtX5SK2UmI53iaYrbux7X2/Yu4+GmxcJoVDCSSDLMfriFlcv4C6Vp2pVGN2b30f/FqCeRTWJfi1USPecj6medQ9uSr3ESzaH4VZzN43zdRlmMd4I3zXnpZmXlYEZw+Ow/y/2C3N1EWYVr53+679VS5iKwWW412F+bsZM8p37TNTzZfCpASSBZbj9cT84zmB7DTtWgzcAfwryuq1wTNuB/O4rG2aqW9hPu0/FUUzKcvxdsIkkiGYVr+pvIzZHPCC79prcxFbMQrunmcR3/a4X7Y3lkjuKYFkUbBucSjmE/thpP8h25DvMI+/nqGJ6ymZZjleW0ydowsx/UBS+QGzc+3eoMZYTgW97k/DJJN0FYhnU3civ+HaMBLHcrzTgVGhodd81/5NiulSwJRAciT4VLYvZk2jG3WPqroQvxV4KXWPteZhynY8D3yU73vng0X3PTE/oH9L6sd4azGJ8C7gjYgW3Q/AxDmY1DXhYifyRwB+vv/3zwfB34FPgH6h4cN8134xopAki5RAIhb8g9sIaAfMj2LhORssx9sUs5B9HrB5mqnTMVtsH4qirlVQ5fc8zAaBdFufIz2RXygsx9uf+L4v0zF1r3QOpwgpgUhWWY5XCRyB+bSf7jHGCsw25BG+a0/ORWxhluM1B47FxLlXmqm/UHcif3oOQisoluM9j9lKHXO+79ojo4pHsksJRHLGcrzemEq7Z2DuuFJ5D/N4a4zv2qtyEVuY5Xj9MJsDfkfDJ/JHAM9GcSI/3wT/f8NJ9WfM1t0VEYUkWaYEIjlnOV5rzIHIC4EBaabOp66u1axcxBZmOd6GmCRyIdAnzdTYifz/+K49L828omY5nov5gBDzN9+1E2vGSRFRApHIBOs/gzCPjU6gfl2xmGrMRoIRwKu5fp4exLkPJpE0dCL/SczdU85P5EcpKCszh7pt0quBLUs5oZYCJRDJC8HJ5Vhdqy3TTP2KumZSC3MRW1jQhTJ2Ij9dR8pp1J3Ij+ysTq5YjncFEC4H/ZDv2qdFFY/khhKI5JWgmdShmLuSQ0j9d3Qlpmf6Xb5rT0oxJ2tCJ/IvAPZLMzV2It/1XfvTXMSWa8EGhG+JL3EzwHftT6KJSHJFCUTyluV4vTDP1M8kfWmXiZhP+09EUdcqOJF/PuaQYqpaaABvYx5vPZ1PB0GbynK8U4CHQ0Nv+K69f1TxSO4ogUjeC4pVHo/5tL9rmqkLgfswda2+zkVsYZbjtaHuRP4Oaab+gOlqeU8UJ/IzKVgfmkT8ZojBvms/l+IlUkSUQKSgWI43EJNITqKu0muiGuAlzKf9l3Jd1yr4oboHJk6bhk/kjwDGFeKiu+V4+wBvhoa+BLbVwcHSoAQiBclyvI2A0zE/pHulmfotpq7V/b5rz89+ZPEsx+sMnIV5xLVFmqlfYDYHPBjFifz1ZTneM5hyMDEX+q49Iqp4JLeUQKSgBXWtfoNJJEeQvq7V45hP++9HUH+rEnNC+wJMPbRUVgD/xZzIz+tFaMvxtsLUaov9HFkEbKFSL6VDCUSKhuV4W1LXTGqTNFM/xjzeeiyKU9KW421D3Yn89mmmvodJeF4UJ/IbYjneHcDQ0NA/fNe+Iqp4JBkG/sUAAAvkSURBVPeUQKToBJWPf4tZzN49zdTF1NW1mpGD0OJYjtcKs5bTmBP5sc0BOT+Rn0xQGv87oFUwtAbo7rv23OiiklxTApGiZjlef8zhxFOo+2GXzKuYT/vP57quVbDovit1J/JbpJhaQ92J/FeiXKi2HO8PwI2hof/6rn1KVPFINJRApCQEzb1OxfyQ7p1m6hzq6lrlvH930BY5diK/e5qpMzGL7qNyfSI/OET5DdA1NDwwigOdEi0lECkpwaf9/TCPjY4idV2r1cAYzKf98REsuldgTuJfgDmZn+5E/mjMifwPcxTbScCjoaG3fdfeJxfvLflFCURKluV4m1NX12rTNFOnYhLJf6No+GU5Xk/MovtZpD+R/wEmzsezdSI/SMATgYGh4WN81346G+8n+U0JREpeUMvpaMyn/XSfpJcCD2IW3T/LRWxhwYn84zBxDkozdSFwP2bRfWaGY9gTeCc09DWwTa4Pa0p+UAIRCbEcry9m/eFUoE2aqW9itgI/47v26hyEFsdyvJ0xiWQIqU/kQ92J/Bcz8UPecrwxmM6NMcN8176jqd9XCpMSiEgSluO1xezcuhDYPs3UecA9wL1RbGENnch3gK3STJ2FOZF/XyNP5DfH/PktzOOqbcrKK2d33Gbvbdt23oZNeu9DeUWzJcDmvmsva9IfQgqWEohIGsEz/70wn/Z/C1SmmLoWeAqzBvFmBIvu5cCBmDiPJP2J/CcwcU5IEWc/zKO6/qner9XG3dhil5Me/OKlG09vStxS2JRARBrJcrzNMKfczyN+C2uizzE/oB/2XXtJLmILC07kn4vZINDQifwRmBP5sfIjJwOjSF0AMmwN5r/F/esfrRQyJRCRdRTUtToS83jrgDRTlwOPYOpaTclFbGGhE/kXYKoDp7IEeGDOh/975rsPHn+W0NrPlltuyd57703Pnj359ttveeedd/j667hK+VWYO5Wcn+SX6CmBiDSB5XjbYrbYng60SzN1PObT/pgomklZjrcjJpEkP5FfU8O0Z6/hl++n1Q4NHTqU4cOH07x5Xav6NWvWcPvtt3PLLbeEX+1jHvNpJ1aJUQIRyQDL8VpjdkRdCOyYZupP1DWTmp2L2MIsx2tH3Yn8bWPjy378kqlP1tVBPPnkk7nxxhvrf4PAVVddxahRo8JD+xHfF0RKgBKISAYFi+67YRLJcZjdTMlUA89htti+nuu6VqET+RcAR//w6UsV37zzHwBatGjB5MmTadMm9S7mFStWMGDAAJYvr63cfilwc3ajlnyjBCKSJZbjdcLUtTof2DLN1C8xda0e8F17US5iC7Mcr+unT105dukP03cEGDBgAM8913BHWtu2mTBhQuzyMcwdmJSQVFv9RKSJfNf+yXftf2A6Jg7GHOpLZmvgFmCu5Xj3WY63U65iBPBde+7SH6b/ELvu3Llzo16XMK9LhsOSAqA7EJEcCrr4nY+5M+mQZur7mEX3J3zXXpmD0P4B/BGgW7duvPfeew2+YN999+Wrr74yF2Xld1BTPSybAUr+UQIRiUBQ1+oEzFrJwDRTf6aumdQ3WQzpOMwBQwCefvppBg5MHdbkyZM54ogjqKkx5xB77ess7tTngNsxmwPUVKpEKIGIRMxyvF0wi9knkb6Z1AuYu5KXs1C8sAumMGILgO7duzN27Fjatau/M3np0qUcddRRzJhhjn6UlVcwYMgdtGjbCcxW3qeDON/I9Yl8yS0lEJE8YTnexpg+6Q7QM83Ub6hrJrUggyFcBvwzdtG5c2euu+469tlnH1q3bk1VVRVvv/02V111Fd9//33ti7bY9UQ239lO9v2mYxLJQ1GcyJfsUwIRyTNBXauDMI+3Dif1v9NVwOOYH9ITM/BpvwJ4m4Q+8uXl5Wy22WbMmzeP6ur43caVLdrM3Pm0e78tr2jWmBP5ru/ak5sYo+QRJRCRPGY5XndMvamzgY5ppk7CJJLRvmuvaMJbbta89cZjf13+84BGzH0dc8c0x3K83pg7p9NJfyL/XepO5K9qQpySB5RARAqA5XgbADZmrcRKM3Uxphii67v2l4341l0xTbQGAgOApZvucPiOZdDtpy/eYO2vSXPRUsyOrbsxazPhOFtj1nIuJE01X8yJ/P8AI6M4kS+ZoQQiUmCCcyIOpnJuyzRTX8F82n8+yaJ7efA9/kmy2ljABu02o+uAoxd8/c5//lizdvXWmIKJH2KqDa9pIMbYifwLgONp+ET+COC1XJ/Il6ZRAhEpUJbjtQdOw/yQ3ibN1NnASEwzqR8xj5ieBPZvxNvUAH8Nfq1vnJtg+rnn9Yl8WXdKICIFLvi0fwAmkRxF6goTq4H/TXr4/Pa/LltwWPgLvXr1om/fvixbtoxPPvmEn3/+OfG1RwPPNDHOCuBQzOOtQ9JMrcKURhnhu/akprynZJcSiEgRsRxvC+qaSdWrSbJo1iSmv3BD7XXXrl25+eab2XPPPWvH1qxZwz333MNNN93E6tW17d5/wrT2zci2YcvxelF3In+jNFPfBy7yXfuDTLyvZJYSiEgRshyvOXAM5tP+XrHxT0b/nqpF3wHQtm1bXn/9dbp0SV7GyvM8fv/734eH/gFckXTy+scZO5F/AbBLimnbNHJDgOSYEohIkbMcbwfAWbNq+akf3H9a69j4ddddxxlnnJHydTU1NZx44om8++67saE3aNy6yfrGGTuRfyKwQTD8su/a6R53SYSUQP6/vfsJjaOKAzj+XVsTEksUkyrFJKS1RcEgRVvoHqsHgxVPI70VEUGnvUhPpTcvISChF5MJKGijFNQFobQXkyikyIiKVTBoxRKlhdLaim1I7Zba9TC7mz8mm2KyyW7n+znt27ydebnkl7dvfr+flBKNLQ/tyV+7dKI0Hh8fZ8uWSgnvMDg4SG9vb2l4leTrpqo+KVXMyH+Z5Cmxg3EUHK/m/fT/Wc5dSon8tUvtpdeZTIbOzs4lPzMvwNwPbFz5lc0VR8GVOAr6SZ4sO7HUfK0dA4iUHj+VXhQKBSYnly7uWy7XDmTWrb++85X3V6O0PABxFNw2L6S2GUCk9DjNrMzx0dHRipMLhQJjY2PlccumJ5rXN244nw1zg9kw1121VapueAYipcsPwJMATU1NjIyM0NXVteDE4eFhDh8+XB6373iJjp17Z085RdLT/dM4Cm5Wa8GqXQYQKV2eBcpbj9bWVvr6+ujp6SGTSf4c5PN5+vv7GRoaKlffbdjQyva9R1jXsGDVk4vAOyR1rc5X/TdQzTCASOkzQPK4bFlbWxvd3d1MTU0xMTHBjRtzjzo2Prb74NZnDuwg6Vx47yLX/Qc4TlLXasxmUnc/A4iUPveRuecYhdsv3sHcm8Ah4AhANsw9zExdq44Kn/uFJJAcjaPgr2WuVzXKACKl0K7XP95/5dcvByZPvcut/PRi074jKdb44/wfFOta7SHZyTxX4VbXgWPAQBwF3y9v1ao1BhApZYodD38Gtt3KTzN18Qznvv7ovek/zj5Ikiz4LUmDqm9ICjAudb1tzNS1eqDC1JhkV/KJzaTuDgYQKWWyYe4Fkh4cJaeBp5d7ZpENc80kZUgOAE9VmHqZmWZSvy3nnlpbBhApZbJh7nNg96y39sVR8MEKXj9DUhixVNeqcZGpBeAkyaH+ZyYN1h8DiJQi2TC3nWTHUXIB6KpWHkc2zLWR9E0Pgc0Vpp4F3lzJQKbqMxNdSpc35o3frmYSYBwFl+MoeAvYCjxPsuNY6KuyR6l8fqIa5A5ESolsmNsE/M5MHsffQEccBf9pP1jldWwGXgNeBVqLb08Dj8RRcHU116LlcQcipcd+5iYBHl3t4AEQR8FkHAWHgHZgH/AV8KHBo/64A5FSoNj57xwz//EDPB5HwZk1WtIc2TDXYD2t+uMOREqHXUDLrPHJWgkeAAaP+mQAkVIgjoIvgC6gF/iTYmkSSZLuWDbMNRdzNSRJkiRJkiRJkiRJkiRJkiRJkiRJkiRJkiRJkiRJkiRJkiRJkiRJkiRJkiRJkiRJkiRJkiRJkiRJkiRJkiRJkiRJkiRJkiRJkiRJkiRJkiRJkiRJklQH/gVFMnmYdtaZVQAAAABJRU5ErkJggg==;" vertex="1" parent="1">
          <mxGeometry x="283.3992873051224" y="285.6293096646943" width="196.97995966347546" height="229.9741029071076" as="geometry" />
        </mxCell>
        <mxCell id="UGAgcFjpy74Iv2Mi5U0g-3" value="" style="shape=image;verticalLabelPosition=bottom;labelBackgroundColor=default;verticalAlign=top;aspect=fixed;imageAspect=0;image=data:image/png,iVBORw0KGgoAAAANSUhEUgAAAaYAAAHTCAYAAABsnrxxAAABgWlDQ1BzUkdCIElFQzYxOTY2LTIuMQAAKJF1kbtLA0EQh788fOCDCLGwsAgarRKJCqKNYESiECTECL6a5MxDyMXjLiJiK9gGFEQbX4X+BdoK1oKgKIJYa6too+GcM4GImF1259vfzgyzs2CPZRXVcAZAzeX1aCjomZmd89S94MQts5PauGJoI5FImKrj4w6bZW/8Vq7qfv+OxsWkoYCtXnhY0fS88LhweDWvWbwt3Kpk4ovCp8I+XQoUvrX0RImfLU6X+MtiPRYdBXuLsCf9ixO/WMnoqrC8HK+aXVHK9VgvaUrmpqfEdshqxyBKiCAeJhhjlAF6GZJ9AD999MiJKvGBn/hJliVWkV1jDZ0l0mTI4xN1RbInxaZET8rMsmb1/29fjVR/Xyl7UxBqnkzzrQvqtqBYMM3PQ9MsHoHjES5ylfjlAxh8F71Q0bz74NqAs8uKltiB801oe9DievxHcsiyp1LwegLNs+C+hob5Us/K9xzfQ2xdvuoKdvegW/xdC981XmfPSMCHKQAAAAlwSFlzAAAuIwAALiMBeKU/dgAAIABJREFUeJzs3Xd0HNX5//G3enGX5W65t7iADRgYMGBaCCT0wUkg+ZLQhxISQggBAgkEEnqAwFB/QEgIOBOCCSQQioEYxoANuIF773KTZauX3x+zkmdXuyq2tLNafV7n6Bzdu3esx7akZ+fOvfcBERERERERERERERERERERERERERERERERERERERERERERERERERERERERERERERERERERERERERERERERERERERERERERERERERERERERERERERERERERERERERERERERERERERERERERERERERERERERERERERERERERERERERERERERERERERERERERERERERERERERERERERERERERERERERERERERERERERERERERERERERERERERERERERERERERERERERERERERERERERERERERERERERERERERERERERERERERERERERERERERERERERERERERERERERERERERERERERERERERERERERERERERERERERERERERERERERERkSAZlpMZdAwiIi2VGnQA0qZmGZaz2bCck4MORESkuVKCDkDahmE5JwLv+LrmAue6trkmoJBERJpFiSlJGZazCegb0V0D/A24yLXNivhHJSLSNE3lJSHDctKBhVFeSgUuAIoMy/l5fKMSEWke3TElMcNyJgF/B4bHGLIJ+KFrm+/GLyoRkcYpMXUAhuVcCDwCdIkx5FPAdG1zXfyiEhGJTompgzAsJxV4CLCAtChDaoC/Apfo+ZOIBEmJqYMxLCcfmA4cH2NIKXCTa5t/jF9UIiL7KDF1UIblTAZeBobGGLIRON+1zQ/iF5WIiBJTh2dYziXAg0DnGENm4z1/2hC/qESkI1Nikrrl5Q8DlxH7+dMLwGV6/iQibU2JSeoZltMb7/nTcTGGlAK/dG3zkfhF1TKG5XQCpgCDgP4RH92ArXjTlP6PJcAc1zarg4hZRMIpMUkDhuUcgff8aXCMIeuBC1zb/DB+UcUWSqinA2cBJwHZ+/HHFAKvATOAd1zbLG29CEWkJZSYJCbDci4H7gc6xRji4p2/tyl+UXkMy0kDfghcAhxF634vlwBvAve7tvlxK/65ItIMSkzSqNDzp0fxEkC0I6xqgGeBK1zbrIpDPCnAt4E/AOOae11aagoZGWmUV1RRW9uiL/kq8CvXNhe36CoR2W9KTNIshuX0ARy85zfRlAC/cG3zsTaM4QjgHuDYWGOys9IZ2KcbvXt0Iic7g9zsDHKyM8jK8NZ01NbWUlZRRUlZJaVlVewtrWBj4W42FRZTXRMzY1UDzwC/CeLuUKSjUWKSFjEs5yi8E8oHxRiyDvhea06BGZaTATwAXB3t9S65WQzq142BfbrRq0cuKSkt/7auqq5hY2Ex6zYXsX5LERWVUddBlACXurb5You/gIg0mxKT7BfDcq4E7gVyYwyZhbf/acsBfp2eeAfRNjiponNuJpPG9GNwvx7sRy6KqbKqhq9WbuWrFVupqq6JNuQPwM2ubUZ9UUQOjBKT7LfQ86fHgR8T/flT3RTYVU08f+oNHIq3yfdzYCVQa1jOWOBfwDD/4KzMdA4a2YdRg/NJTW27b+HS8krmL93CsrXbqW34YOo14AeubRa3WQAiHZQSkxwww3L64T1/OirGkL3Az13bfMLXlwH8EriUhtOCO7O69vl8wjl3HZGR0y3sRIphA/M4fPwAMtKj7QNuG7v3lPPB3FXsKi6LfGkh8B1VBRZpXUpM0moMyzkW74TygTGGrAG+69rmHuB5vLukmDJyujHsuMvJG3o4AId+oz9jh/duxYibr6qqhllfrmHd5qLIlxYDR7q22eAFEdk/SkzS6gzLuQa4G8iJfK1izza++Nu11TVV5c2+5Rl72i85+7zvMqB319YMs8Vqa2He0k0sWNbgsdl/gNN1coRI61BpdWl1oSOLuuPtb/ItEKhl+Uwbf1IaNWoUjz/+OJ9++ikLFy7kb3/7G6ecckrYn7d21lN0yw7+d35KCkwc3Y+jJzZYkHgq3oIIEWkF8Zuolw5l/Zzp1evnTJ9RMHnaM3jPngZuXfw+m+b/q37M6aefzl/+8hfGjh1Lly5dyM7OZvDgwZxxxhl0796d999/H4CK8lKKdmxl4lGnRP1a8dajaw4pwJbte/zdRxVMnrZ6/Zzp8wIKSyRpaCpP4sKwnOO+fuOuN3et/TwboF+/frz33nt06RK92nttbS2XXHIJb731FgA5nbpw38uf79cepbby4dzVrNm0y99VDoxzbXNFQCGJJAVN5UlcuLb5wa61n2+ra5933nkxkxJASkoKF110UX27dG8x2zatbdsgW+ioiYPI6xb2GC0L+F1A4YgkDSUmiZfe+FbrTZgwockLIsesWb6g1YM6EOlpqRx36FDSUsN+jL5nWM5hQcUkkgyUmCReSoH6XaolJSVNXhA5Jis71iETwemcm8mYofmR3XeHDpsVkf2gxCTxUoxXkA+AL7/8sskLIscMGjG+1YNqDeNH9CEzI2wd0QnANwMKR6TdU2KSeJpT98lLL73E6tWrYw6sqKjgvvvuq293y+tNt7xgNtc2JTMjjQkj+0R23xRELCLJQIlJ4umZuk9KS0u57LLLoianPXv2cN1117F48b4SSEef8t24BLi/Rg/JJzc7w981xbCcXkHFI9KeaR+TxNNqIB84HKCwsJAXX3yRbdu2UVRUxNq1a3n11Ve58cYb+fTTT+svGjjsG1x4/X2kpibut2tqSgqlZVUU7txb15UCfL1+zvSm5yxFJIwe0Eq8dQI+BcY2Z3Bmdg7X3zedgUO/0bZRtYKtO/by1sfL/F2vubZ5ZlDxiLRXmsqTeNsLHJ6TV/B6UwNHTTiCXz/2n3aRlAB69cglKzPd33WyYTmJt5RQJMGlNz1EpNXtnfjdB9cXbVjA1q/fY0/hCsp2bQSga49eDB45gQlHnMDRp0wjJaX9vHdKSUlhYJ+urFi3o64rBzgJr3aTiDSTEpMEZXy3ARPoNsDbRHvmsUOprSpP2JV3zTWgd1hiAhiHEpNIiygxSVD6132SnZVO167dgoyl1XTJzYrs6h9tnIjE1n7mSSRphE5F6FfXzs3KaGR0+5KT3eC9nhKTSAspMUkQuuErIpiTnTyJKTszPfIEdCUmkRZSYpIghP2yTqbElJKSQk5W2F2TEpNICykxSRDCzu+J+EXe7uWET032DSoOkfZKiUmCEHZseFV1Taxx7VLE32dvrHEiEp0SkwRhk79RWlYZVBxtoiT877MxqDhE2islJgnCZn+jtKwqqDhaXVV1DZVV1f4uJSaRFlJikrhzbbMCKKxrl5Qnzx1TlLs/JSaRFkqup87SnmwEekGDqa92pbqqio1rlrJ22QLWrfwK0nPZWZFHp17DyeyUBxHTliLSNCUmCcp64GCA6uoadhWX0b1LdsAhtczCz97nrw/fRNGOrVFf7zncYOBh03bFOSyRdk+JSYIyE/h2XWPd5qJ2k5gqykuZ/vjtfPzfvzc6bvsKl+0rP7kBWAQ0eZq6iHj0jEmCMsPfWLelKKg4WmzGc/c1SErp6emMGTOGPn0iSqzX1uQBDs2sPyUiSkwSENc2l+PdSQCwfVdJu3jWtHTBJ8x87fn6dufOnbnnnntYsmQJ77zzDnPnzmX27Nl861vf8l+WBTyHZihEmiVxa1VL0iuYPG0AcExdu0tuFvndE7uu3qO3Xcye3TsByM7O5o033mDq1Kmkp+/LOV27duX000+nuLiYzz//vK57ALABmBvvmEXaG90xSZBe9Te+XllITU1tULE0aU/RDjavW1Hfvv766xk5cmTUsSkpKdx4440MGTLE331smwYokiSUmCRIc4Gv6hrFJeUsW7s9wHAat3b5wrD2d77znUbHZ2dnc9JJJ/m7Dmv9qESSjxKTBMa1zRrgJn/f/KWbI09OSBgbVi2u/7xz584MGDCgyWvGjBnjb44G2sfSQ5EAKTFJ0F4DPqprlFVU8dWKwkaGByev975EtGfPHnbv3t3kNRs3hh38sBkob/XARJKMEpMEyrXNWuAGf9+ilVvZubs0oIhiGzRyQljbdd1Gx9fW1vLxxx/v60hJ+RxI3IdoIglCiUkC59rmx8A/69rV1TXM/GwVZRWJdbhrft8Ccjt3q2/ffvvt7N0bu6rFjBkzmD17dn27/8FnHGlYzpmh0vIiEoOWi0tCKJg87TPgR4SewVRWVbNt516GDcgjJSWF2tpainZsZen82cz/5F32FO0gO6cTWTmdIkuZt5mUlBTSMzP5au7/ACgqKmL27NkcccQR9OjRo35cbW0tL774IrfccguVld7erPTsLow86dqctIzs7wFTCiZP+2L9nOnRzzIS6eD0zk0ShmE53wT+g+9OfuSgnmTtXoTz9J3sLGx4Hmr3/L6ce/GvOPTYbzd4rS3U1tbwwC8vYMWiz+r7srKyOPLIIxk3bhw7d+5k7ty5LF26NOy6UadcT89hR/q7aoAngVtd20zMh2oiAVFikoRiWM5PgQcBqsqKWfm/p9m+/KMmroJDppzK9666nc5dezQ59kCUllXy73dcPvrrTZTt3tz0BUCn/KEzDjrv3rFAtE1PRcDtwJ9C5UBEOjw9Y5JE8xDwDLW1LP3v/VGTUufOnRv0fT7rPzx111XU1rZdmfbtu0p4Y9ZSSujKwdPup+/4U5u6ZANw6t5tq84CxgM/x0tEft2A+4EFhuV8R8+fRHTHJAnIsJzMdXP+vmD9Zy+Pquvr3r07t9xyCyeccAK9e/emsLCQmTNncscdd7Bz5876a8+77BaOP/NHrR7T6g07+XjeOqprwhNf4dIPn1j+7sNr8TbPTgK2AXPwNg//A9jpH29YTi+8O6TLiP7G8G3gZ65tLorymkiHoMQkiagvsALIBRgwYAD/+te/6N27d4OBhYWFnHnmmaxduxaAjMxsfvv0u3Tv2afB2P1RUlbJvCWbWL5uR+RLVcCVrm0+tT9/rmE5B+FNWZ4Q5eVq4AngNtc2t+3Pny/SnmkqTxLR0YSSEsD9998fNSkB9OrVi/vvv7++XVlRxopFcw44gMqqar5YvIlXZ34dLSltA07c36QE4NrmfOAk4Cy8JOyXBlwJLDMs51rDcjL29+uItEdKTJKI6s+UKygoYMqUKY0ONgyDwYMH17cjz7Rrib2llSxasZV/vvc1C5dvobq6wTOrhcDhrm1+uN9fJMS1zVrXNmcA44BfAJFHSXQH/oj3/Om0A/16Iu2FEpMkokPqPhk3blyzLhg/fnz956uXLWjRF9tVXMb8ZZt5439LeOXdRXz+9UbKG27urQL+BBzl2uaqFn2BJri2We7a5n14q/aepOHpEKOBNwzL+Y9hOSo4KElPhcskEdU/V/EvbGjMjh37ptt2lKTx6syvyc3OICcrg9zsdHKyM8hMT6OsooqSskpKyyopKatkb2klpeVNFiicDtwcKm7YZlzb3ApcbljOY3h3SlMjhnwLODn0+m9c22wwxyiSDLT4QRLRz4AHAHJzc1mwYAFZWVkxB1dUVHDwwQdTXFwMwGDj/+g/8YzWiON94AbXNj9ramBrCy0bPwu4DxgWZcgO4DbgCdc2E7/0r0gLaCpPElH96oWSkhLuvffeRgffd9999UkJoFOvaL/Hm20B8Du851wnBJGUoP750z+BscAvgeKIIXnAI8A8w3JOiXd8Im1Jd0ySiNKBj4HJ4J1Rd8stt3DJJZeQlrbveMeamhqeeeYZ7rjjDmpC+4syO/XcPOmCP21KTcsoAPKb+DrVeKUolgCvAzNc21zZ+n+dA2dYTl+8hHkR0X9u/w1c59rmkrgGJtIGlJgkUY0FPgfq5/DGjx/Pcccdx/Dhw1m5ciUffPABCxaELXSoAA7FWzmHYTlZeHui+gP98E5Z2ApsBDYBha5tJmZVwhgMy5mE9/wpWpn2ugUat7u22byHcyIJSIlJEtlVeNNVzfk+rQV+CjzcphElgNDzp3Pwnj8NiTJkO3Ar8KRrm4lVO0SkGZSYJKGlZeYen57Z6b/lewobW0G6Cq9kxgHvLWpPDMvJxlsochPQ8ABBWIR3vNHbcQ1M5AApMUlCMyznuzWV5S9tXvQmxVuWUrxpSVll6a5sYC3eIolPgMeAPYEGGiDDcvoBd+Il52g/0/8Crndtc2mU10QSjhKTJDTDclzAX8joHNc23wQSr/Z6wAzLORTv+VO0ozIq8aZF73Btc1dcAxNpISUmSViG5RwJuL6u1cCI9rZgIZ5Cz5/OA+4BBkcZsg34NfC0nj9JotI+Jklk10a0H1ZSalxo/9N04BvALcDeiCH5gA18bljOifGOT6Q5dMckCcmwnIF4d0h1G5f2AANd24wstCeNMCynP3AXcGGMITPwnj+16XFLIi2hOyZJVFexLykB/D8lpZZzbXOja5s/Ag7H27Qc6UzgK8NyfhHXwEQaocQkCcewnFzgcl9XLd6De9lPoaOVpgDfB9ZFvJwB3GNYztlxD0wkCiUmSUQ/BHr42q9rqunAhZ4/vQSMwduAWxIx5BHDcrrGPzKRcEpMklAMy0nFO8HB749BxJKsXNsscW3zDrw6T4t9Lw3A2w8lEiglJkk0J+O9o6+zAJgZUCxJzbXN9cClEd1XGZZzRBDxiNRRYpJEE7lE/I+ubUZWdJVW4trmLLyquXVSgKcMy8kIKCQRJSZJHIbljAFO9XVtA14MKJyO5EZgi689AbguoFhElJgkofwkom27tlkWSCQdSKhERuS//W8MyxkeRDwiSkySEAzLySN8E2gl3gkFEh9/xys2WCcbsENHHInElRKTJIpLgFxf+yXXNjcFFUxHE3qOdxXhS8hPBs4PJiLpyJSYJHChB+3XRHQ/FEQsHZlrm6vxDnj1+6NhOT0DCEc6MCUmSQRnAwN97f+5tjk3qGA6uIfxStrXyQfuDSgW6aCUmCQRaENtggiVwrgMqPF1/9iwnOMDCkk6ICUmCVRoM6fh61qNd+K1BCR0txo5lfpEqJS7SJtTYpKgRW6ofUQ1lxLCrXjl6+uMBG4OKBbpYJSYJDChmkvn+br2Av8voHDEx7XNPcCVEd2/NCxnbBDxSMeixCRBuhJI97WfdW1zV1DBSDjXNt/A299UJwN4MnTQrkib0TeYBCJKzSXwVoRJYrkW8BdoPJqGB7+KtColJgnKD4A8X/t11zaXBRWMRBfa5PzLiO67DcvpF0Q80jEoMUnchY65aXCKeBCxSLM8BXzka3dDG6ClDSkxSRBOAvwP0RcC7wUUizTBtc0avGnXSl/3eYblfDugkCTJKTFJEBpsqFXNpcTm2uYi4O6I7scMy+kcRDyS3JSYJK4MyxkNnObrUs2l9uNOwP8ccBBwe0CxSBJTYpJ4i6z787hrm6WBRCItEqqNFbmS8lrDcg4NIh5JXkpMEjeG5fQAfuTrUs2ldsa1zZnAs76uVLxS7OkxLhFpMSUmiafImksvu7a5MahgZL/9Am8Kts4kGt4Ji+w3JSaJi9A76siaS1oi3g65trkd+FlE9x2G5QwJIBxJQkpMEi9nAwW+9izVXGrX/gq87WvnAo+qFLu0BiUmiRfVXEoioeX9FlDm6z6N8EN5RfaLEpO0OcNyDgeO8nWtQTWX2j3XNlcAv4nofji0yEVkvykxSTxEHj/0p1ClVGn/HgDm+9p9gD8EFIskCSUmaVOG5QwApvm69gLPBBSOtDLXNivxSrH7T+64zLCcYwIKSZKAEpO0tciaS8+5trkzqGCk9bm2+QnwaET3E4blZAURj7R/SkzSZgzLyUE1lzqKm4ENvvY3aFguQ6RZlJikLV0A9PS133Btc2lQwUjbcW1zN3B1RPfNobMRRVpEiUnaRGg/i5aIdyCubb4KvOrrysSb0tPeJmkRJSZpKycC43ztRcC7AcUi8XMNUOxrHwf8OKBYpJ1SYpK2oppLHZBrm+uBmyK67zMsp3cQ8Uj7pMQkrc6wnFGAv7rpdrwjbKRjsIFPfO0ewIMBxSLtkBKTtAXVXOrAXNusxtvb5N9Efb5hOacEFJK0M0pM0qpCx9H4nylUAY8FFI4ExLXN+cD9Ed22YTm50caL+CkxSWu7GNVcEs/twEpfeyhwW0CxSDuixCStRjWXxM+1zRLgiojunxuWc3AQ8Uj7ocQkreksYJCv/ZFrm3OCCkaC59rm24QvfEnDK8WeFlBI0g4oMUlrilwi/lAgUUiiuQ7Y4WtPxjtDUSQqJSZpFYblTAaO9nWtA/4ZUDiSQFzb3ApcH9F9l2E5BdHGiygxSWuJrLn0iGouic9zwPu+dmfgkUAikYSnxCQHzLCc/oTXXCoBng4oHElAoVM/LgfKfd1nGpZzdkAhSQJTYpLWYAEZvrZqLkkDoZPl74zo/pNhOd2CiEcSlxKTHJBQzaXIJcGquSSx3A185Wv3p2Gykg5OiUkO1PlAvq/9b9c2lwQVjCQ21zYraFg88krDcowg4pHEpMQk+001l2R/uLY5C3jC15UCPGlYTkaMS6SDUWKSA3ECMN7X/gp4J6BYpH25Edjsa48Hfh5QLJJglJjkQKjmkuwX1zZ30XCLwW2G5QwPIh5JLEpMsl8MyxkJfMfXtR34S0DhSPv0d+ANXzsbeFyl2EWJSfZXZM2lJ1RzSVoidHd9Fd6+tzonAT8IJiJJFEpM0mKG5XRHNZekFbi2uQa4JaL7AcNy8qONl45BiUn2x8VAJ197umubG4IKRtq9R4DPfe184L6AYpEEoMQkLRKj5pJOEZf9FjpT8VKgxtd9oWE5JwQUkgRMiUla6kxgsK/turb5aVDBSHJwbfNzGu6BeyJ0soh0MEpM0lLaUCtt5TZgra89Arg5oFgkQEpM0myG5RwKTPF1rQNeCSgcSTKube7BOxDY75eG5YyPNl6SlxKTtETkhsg/qeaStCbXNv8NTPd1peNN6el3VQei/2xpFsNy+gHf83Wp5pK0lWuBIl/7KOCygGKRACgxSXNF1lx63rXNHUEFI8nLtc3NwA0R3XeHClJKB6DEJE0yLCebhnP/qrkkbelp4CNfuyvaltBhKDFJc0TWXPqPa5uLgwpGkp9rmzV403eVvm7TsJzTAwpJ4kiJSRqlmksSFNc2vwL+ENH9qGE5nYOIR+JHiUmacjwwwdf+Gng7oFik47kLWOprFwB3BBSLxIkSkzRFNZckMK5tltGwFPtPDMs5LIh4JD6UmCSmKDWXdqCaSxJnrm2+Dzzr60oFngqd2yhJSIlJGnMN4C/a9oRrmyWxBou0oV8Ahb72RBpu+JYkocQkUYVqLl3k61LNJQmMa5vbgZ9FdN9uWM6QAMKRNqbEJLFcRHjNJce1zfVBBSMCvAj819fOBWyVYk8+SkzSgGE5aTSsuaQl4hKo0KIbCyj1dX8L+G4wEUlbUWKSaM4Ahvjas13b/CSgWETquba5EvhNRPdDhuX0CCAcaSNKTBKNNtRKInsQmO9r9wbuDigWaQNKTBLGsJxDgGN9XetRzSVJIK5tVuKVYvfvp7vUsJxjAgpJWpkSk0SKVnOpMupIkYC4tvkp8KeI7icNy8kKIh5pXUpMUs+wnL7A931dpcBTAYUj0pRbgA2+9hjgxoBikVakxCR+qrkk7YZrm7uBqyK6bzIsZ0wQ8UjrUWISQDWXpH1ybXMG8E9fVyYqxd7u6T9P6nwf6OVrv+na5tdBBSPSAtcAxb72scCPA4pFWoESk6jmkrRrrm1uAH4V0X2vYTl9gohHDpwSkwBMBQ7ytb8m/OgXkUT3OODfBN4Db7+TtENKTAIN75YeUs0laU9c26zGK8Ve5ev+vmE53wooJDkASkwdnGE5I4DTfV07gRcCCkdkv7m2OR+4L6LbNiynU7TxkriUmCSy5tKTqrkk7djtwApfewhwWzChyP5SYurADMvpSvjqpWrg0YDCETlgrm2WAldEdF9nWM7EIOKR/aPE1LFdBHTxtR3XNtcFFYxIa3Bt8x3gL76uNLxS7Gl4v/NUvynBpQcdgAQj9EP6k4huLRGXZHEdcBrU5u1Y9Sm71s07bMeqT1cCfYEdwJzQx/8D9GYsweidQwdlWM5ZhO+Y/8S1zSODikektY0/565rN3z+zz/uXP1ZY8N2461KfY7w08olQLpj6ri0oVaS2cSFr9x0azPGdcW7azoZuAAlp4SgxNQBGZYzCTjO17UB+EdA4Yi0tizgz0BeXUfPnj355je/ydixY9m5cyefffYZ//vf//zXfB94By9JScCUmDom1VySZHYrMKGu8a1vfYt77rmHvLy8sEFvv/021113HTt37qzr+iNeclobr0AlurSgA5D4CtVceoZ9//elwA/Wz5leGlxUIq0mHZhBqHzLuHHjePHFF+ncuXODgcOHD2f06NG8+uqrdV1ZwF5gZpxilRi0XLzjuQKvNECdP7u2uT2oYERa2Rggt65x6623kpGREXPwiSeeyHHH+We1ObTtQpPmUmLqQFRzSTqAw+o+SU1NZdKkSU1eMHnyZH/zULRaOXBKTB3L94DevvZbrm1+FVQwIm2gvtRFp06dyMnJafKC/Px8fzMPPXsPnBJTB6GaS9JBfFH3SXFxMevWNb13dtGiRf7mQkALgQKmxNRxHAcc7GsvRjWXJPnM9Tccx2l0cFFREW+99VbM6yUYSkwdR7SaSzWBRCLSdrYDn9c1Hn74YebOjZ5rqqqquOmmm9i6dau/+522DU+aQ4mpAzAsZzhwhq9LNZckmV2Gd1I+VVVVnHvuuTz44INs2LCB2tpaysvL+fTTTznrrLOYMWNG/UUpaRnvAS8HFLP4aPVJB2BYzh8J31R7t2ubNwYVj0gc/BZvo22Y7t27s2fPHqqqqsL60zJzGX/2nc68l392XrwClNh0x5TkQjWXLvJ1qeaSdAS/A+5ISQn/Fbdr164GSSmne3/Gnn4ruXkFpmE5J8YxRolBiSn5/Zjp0KrPAAAgAElEQVTwmkv/UM0l6QAqDct5Yvy5v6dTzyFRB6SnZzDhuO9y0Hn30bn3iLruxw3LaXqNubQprddPYqq5JB3cR517DeegafdRWVrE3sKVjOxZSpduPRk0cgL9Bo+ElDRee38xe0sr6q4ZAdwC3Bxc2KJnTEnMsJwzgVd9XZ8CR7q2qaP9JakZlpMJlPv7Dh07gLHDejUYu2Hrbt77dKW/qwqY5NrmwjYNUmLSVF5ya7ChVklJOojnIjuiJSWAAb27MqR/d39XOvBk77EnZQDfAEai35Vxpam8JGVYzkRgqq9rI9D4bkOR5PF9f2NQv+6xxgFw2LgBbCwspryiks0L32THCtco3rJ0D/sOPC7C23z7AvA8KijYppSYkpdqLkmHZFjO1ZF9UyYNavSanKwMhvWsxrFvpXjz4rpu/yn83YATQh/nAZfivdmTNqDElIQMy+kDnO/rKgOeDCgckXh7xN/IycogLbXxmbjN61bw17t+SEV5s8qSnQbMwzviS8mpDSgxJSfVXJIOybCcoyP7Tp0ystFraqqref6BX4QlpcGDB3PhhRdy8MEHU1lZybx583j66acpLCysG5KP92bvdDSt1+qUmJKMYTlZwJUR3Q8FEYtIAGZFdnTKyYw2rt7b/3iKNUvn17fPPvts7r77bnJz6+sNMmXKFC644AKuueYaZs6sL3D7beD/8J45SSvSSpPkE1lz6b+quSQdgWE5fSP7TjpyeJPXfTpz346KESNGcO+994YlpTrdu3fnkUceoXdv/48XP9ivYKVRSkxJRDWXpIP7ILKjX36XaOPqlZeWsHndvj1MV155JdnZ2THHd+/enYsu8p/wpYq3bUGJKbkcC0z0tZcAb8UYK5I0DMvJAEb5+yaN6dfkdetXfkVt7b7qLxMnTmxktOfgg/1lzegBDG1mmNJMSkzJRTWXpKNqsOp0/Ig+0caFKSuvCGunpaU1eU1GRkZkV+MPsaTFtPghSRiWMww409e1C/hzQOGItLV+wGF4Z9strSzd9aOMnH2baAf26droxdt2lbBk9TZWrA2fhZs/fz7Dhzf+XGrevHn+ZjGwtCWBS9OUmJLHNYTPdT/p2ubeoIIRaSPTgHuBsB2zc567hKyuvRly1I/JGzqZYw4Z0uDC6uoaVm/cxZLV29heVAJASnoO2d37U7bL24701FNPcfrpp5OeHv1X4969e3n++bBFeHMBzUq0sqbvWyXhhWou/QXICnVVAz9YP2d6UXBRibSqfLzz727DO4WhgeryvWxf/hGVe7ZiHHM8GZnej0NxSTkLl2/loy/WsHrjLkrLww9AqSzZSfGmrwHYsmULRUVFHHvssaRGbMotLS3lhhtu4JNPPvF33493OLK0IiWmJFAwedrlhE/j/cO1zaeDikeklaUC/wFOjXwhJyenQeG/vdtWs27FVwwcdzxzvtrIZws3ULhzL9U1UffBlnbuPeKFTfPf6FZbW90D4Msvv+Tdd98lNzeXjIwMtm7dyjvvvMO1116L67r1F6akprnU1lpog22r0zLHdi5Uc2kJ4J8YP9q1zY8DCkmktf0MeKCu0aNHD26++WaOP/54evfuzebNm3n33Xe58847KS4urr9o2HFX0GfsSbH+zGXAY8Bzrm3uwnte5dLMxxupGVmMO+O30xf848bv7uffSRqhxNTOGZZzBjDD1/UZcITKW0iSGIiXRLIBBg0axIwZM+jVq2EJi02bNnH66aezefNmANIyspl0wWNk5NQvhKgB/gU8CrwbZcXqYXinOIxtLKDOfUYy4oSryek+AOA41zY/3N+/nESn5eLtn2ouSTI7llBSAnjwwQejJiWAfv36cd9999W3qyvL2LNlCUAh8HtgmGubZ7m2+XaMbRRz8DbM3gksJnyKrgZY2PsbJ300/qzf1SUlgCdDx4BJK9KqvHbMsJyDgeN9Xaq5JMnmsLpPhg0bxhFHHNHo4KlTp9K3b9/6u6aN8994tceQyd9zbbO80Qv3KcMrrX4L0AU4BKgEvgRKhk+9ogvwFd6dHMBo4FfAb5r7F5Km6Y6pfYusufSoa5sVUUeKtE+T6j4ZP358sy7wj9u9YWFmC5JSpGK8Y44+BkoAXNssBq6KGPcrw3LG7OfXkCiUmNopw3J6Axf4ulRzSZLRjrpPdu3a1awLdu7c6W9ua+V4cG3zNeAVX1cm3pSefp+2Ev1Dtl+RNZdecG2z1X8IRQI2p+6TefPmUVnZeBHmsrIyFi1aFPX6VvYTvDuqOscAF8UYKy2kxNQOqeaSdCBz6z4pKirioYca/za/5557KCsri3p9a3JtcwNwY0T3vaHq0XKAlJjap+8C/h+At13bXBRrsEg79j6woK7xyCOP8Oyzz1JTE76orrq6mieeeIKnnnrK3/0pbXsqw+PAbF+7Oyoz0yq0j6mdCdVcmovvoTDwbdc2/x1QSCJtbSLe/rz6VcQTJ05k6tSpDB06lBUrVjBz5kwWLFjgv6Y8dN3itgzMsJwJwOeEr3A+1bXNN9vy6yY7LRdvf44hPCktBfRDIMnsS7xps/pNSl9++SVffvllrPG1eKdFtGlSAnBtc4FhOffiLRmvY6CfyQOiqbz2RzWXpCO6f9AR5z+U1Tm/qXErgOMAu+1DqndH6OsuwTsJ4rY4fu2kpKm8diRUc2k5+/7fdgEFrm3uCS4qkbYXWoq9qLqidMzmhf+heMsydq37clttdWU+sA5vetvFO24o7uVeDMsZCaw9gD1T4qOpvPblasLfTDylpCQdxCnAmLTMHAYccg7AfGCia5u5BJCIIrm2uSzoGJKJpvLaCcNyugAX+7pq8N4dinQE10W0HwydCRl4UpLWp8TUfvwI8NeLfsW1zTUBxSISN6GVb/76FVuAvwUUjsSBElM7EJpfjzwXT/slpKP4WUT7UT3LSW7t7hmTYTkP4JUQt13bXBh0PG0gFzgX71Tlw4D+c1+4YmufsScN79Z/PF36jQHvmBUVApSkFzpJwX8mZDnexlZJYu1qVd75v3u336oNO1cAOaGu/+FVoXwlSU7VNvAKlY2MNaDX6Kn0n3TWZfNe+ulTscaIJAvDcn4L3Orresq1zcuCikfio70lpn+s2rDznCgvbQWeBp5MxOcuodMa8oAMoNC1zeoow27AK2bWnOnVjcCpeCuTRJKSYTnZwFrAXxlwnGubXwUUksRJu0lMj72xPOXThesLl63Z3rOmNmaB1hrgDby7qP/Ge+NpaOXct4ApwACgf+ijH/tOAq/Ge3i7se5j47x/Fa/5+Pnr8f1/DBo0iMMPP5zevXuzePFiPvnkE/buDVuAtACYjDe1IZJ0DMu5GO8NZ503Xds8Nah4JH7aU2KaCswsLa9k+dodLFu7jb2ljR6BvxJvLvrZFpaDSAGGs69y5RxgPeFllusZltMPOAM4CziB8FIUTaqpLGfe9J9TtturuJmens4NN9zA5ZdfTlpaWv24TZs2cf311/PBBx/4L78LuLklX0+kPQjNMiwAxvm6T3Ft878BhSRx1J4S00t4p2oDUFtby4atu1myejsbC3c3dmk5MB3viJLZob0P0fTAO4vrHLxTgv224j37uRWvIB+G5RjA7/CS0X7b8tXbrPzgifr2rbfeymWXRZ9Cr6ys5Dvf+Y6/3kw13hLykgOJQSTRGJbzTeAtX9ciYEIjP7+SRNpFYnrsjeV98I4dyYj2enFJOcvWbGf52u2UV0Z7fFPvS7wE9WLEiQmnAU/hTbs1ZnH+qGNvHXniT74PnN1U3CkpkJ2ZQW52BjnZ6aSmpFBaXkVJWSWlZZXU1Nay4n2brV+/C8CoUaN4++23w+6UIs2ZM4ezzjrL33U0WqEnScawnDfxTnuoc4lrm88EFY/EV3tZLn4xMZISQJfcLA75Rn8OHt2XNRt3sWTNdrbtjLohfCLwBF5Brz/jLTkfgPdcqjnGbF/+8fSBh5xDTo+BDV7MycqgoG9XBvbpRl7XHLKz0klJiZ77a2uhorKKu99YX993xBFHNJqUwDvuPzs7218M7VCUmCSJGJYzjvCkVAj8NaBwJAAJn5gee2N5GtCs5aFpqakMG5jHsIF57CgqZemabazasJOq6gZrILoCV1dXlFydnt21vKps31Tg1KlTufzyyznooIOoqKjgyy+/5MEHH2T+fG8BXG1NFcvf+xPjz76TlNQ0sjPTGTGoJwV9u9GzWy4x8lADKSmQlZlO0fZN9X0DBgxo8rr09HT69evHqlWr6rqGNO8rirQbkSfoP+baZlnUkZKU2sPJD98CBrf0orxuORx5UAHmyeOYPH4A3TpnNxizZvZfqSrbnVXXvuGGG3jhhRc45phj6NatG7169eLkk0/mtdde4/zzz6+/bs/W5Wxd9B8OGtWXs04Yy6Qx/cjv3vyk5DdgyOj6zxcvbrp8TElJCWvWhK2I15JxSRqG5fQCfujrqiC+JSwkAbSHxHTFgVyckZ7GmCG9OGPqGL5pjGBwv+7102s718ypHzdlyhSuvvrqqFNv6enp3H777YwYMaK+L2XXVxw8qi8Z6Qf2Tzho5Pj6z2fNmkVRUVGj4996663IstJzDygAkcRyBd7JLnX+4trmlqCCkWAkdGJ67I3lg4Fvt9af16dnZ449dAjnnjSWUf0zqdizvf61H/3oR6Smxv7nyM7O5nvf+159e8OKRdTWHvg2qZHjD6//fNu2bfz617+OTDz1Nm/ezK9//ev6dlpWp+pJFzymsheSFAzLyQKuiujWmZAdUEInJrxnS62+cjAnK4PONYVhfRMmTGjyOv+YstK9FG488EMmDjryJMYeemx9+5VXXuH8889n5cqV1IY2EldVVfH6669zyimnsGvXrvqxw4+7PC27a+9XDMvpdMCBiATv+0AfX/sd1zYXBBWMBCdhE9NjbyzPJLz+UKvKzgn/XR5xqkJUkWOycg48H6SkpPCDn9xFTqcu9X2zZs3i2GOP5ZBDDuHUU09l1KhRXHHFFWzfvu8Or+fwo+g5/CiAScCzoQ2JIu1S6Ps3subSA0HEIsFL2MS0dceeH1VV1/RpeuT+GThsbNjzpM8//7zJa7744ov6z7vl9aZbXu9WiaV7fl+u+PUT9OjVL6y/sLCQBQsWUFERfj7tyIlTGXbc5f6u84BfI9J+nQD4py0WE77BVjqQhE1MC5Ztuf2Vdxbx+dcb2VPS+geHZ+Xk0rdgeH374YcfbvSuadOmTTz33HP17cEjm576a4mREw7nlkf/zVHfPC/mmNzO3fjxLx7gp797ioPGDo18+beG5ZzbqkGJxE9kzaUH433WpSSOhJz+mXL1P/pVV9euA+p3mw7s040xQ/Ppl9+lkStbZuaM5/j7k7+rb5988sk88MAD9OjRI2zcunXruPLKK8PumKzbnmTC4Qd0GlFMu3dtY+2yhaxdvoCd2zZTMGwsg0aMZ8DQ0WRkesvea2trmfnZKjZsDTuOaScwzLXNXdH+XJFEZFjOGOBrX9d2oMC1zdKAQpKAJeQG2+rq2kvxJSWA9VuKWL+liG6dsxk9JJ9hA/MOeKn21DP+jy8+eovliz4D4O233+aEE07gvPPO46CDDqKyspIvvviCl19+Oexu6sgTz2mzpATQtXs+4ydPZfzkqTHHpKSkcMwhg/nPrGUU7anfe9gDuDH0IdJeRFZnflxJqWNLyDsmw3KOAX6Od2p31Bgz0lMZPrAno4fk07VzVrQhzbJ14xruvOYsKsuKmzU+v28Bv3p4Bjmduu7312xN23eV8O9ZS/1dZcAo1zbXBRSSSLMZltMT7xzMuuKflcBg1zY3xb5Kkl1CJqY6huUMAa4ELsG7G4iqf68ujB7SiwG9u8Q8mw6guqqKFV/PZe2yBaxZtoCS4iJy84ews6IT21fOpmjdvEbjOfqUaZx7yU1k53bev79QG/nf52tYvXGnv+tZ1zYvCioekeYyLOcm4E5f159d27wwqHgkMSR0YqpjWE4u3h6Ha4CDY43rnJvJ6CH5jCjoSWZG+GGoG9cs5fn7f8G6FYuiXpuanuktwe6SRuG6JWzf4h2u2mfgMAaNGM8RJ57N2EOOaa2/UqvaU1LBjJlf4yugWAMc7NrmwgDDEmmUYTmZwGq8Qpp1Jrm2+WUwEUmiaBeJqU5or8PRwNXAucR4RpaWlsqwAT0YPSSfHl1zeP9ff+aVp39PVVWjhQUBGDXhCC69+VFqa2tJS0sP21+UyD5btIHFq8I2DT/m2mbkLnqRhGFYzg+BP/u6Zrq22XYPb6XdaFeJyc+wnAF4J0NcTvhu8TBpe1Yx64VfhPV17tyZCRMm0L17dxYtWsTatWvDXj/s2O9w0S/b10koZRVV/OPtRf67pg14K5tUWE0STuhN5ly8DeJ1Tndt8/WAQpIEkrD7mJri2uYG1zZvwzt5/AfA7Mgx1ZVlfDbj3vp2amoqV155JfPmzePvf/87Tz31FB9//DEvv/wyAwfuq68058PX+WLWm3H4W7Se7Mx0+uSHPfsagFerSSQRHUd4UloK/DugWCTBtNs7pmgMyzkMb5rv+0Dmhi9eZe3sv9S/ftttt3HppZdGvXbr1q2ccMIJ9WfR5fXqz++e+7Dtg25F8xat5IOZ77Fn63L2bltFZWnRV3u2Ln8WmAO4eGXmRQJnWM4MvFW3da5ybfOxoOKRxJJUialOqKbLJV+/ceevd639IgfgoIMO4vXXX2/0BPG//e1v/OIX+6b9fv/Cx6127FBbqq2t5bP3X+Plx39L6Z7dsYYtAi5EZTIkYIbljASWsO/3z068aeemD6yUDiEhN9geKNc2C4Hf4y01HwheZdrGkhLACSeEP3ddu2whE45I7GexFWWlPHffz/nS/W9TQ8cBnwC3Ane1eWAisV1L+JviJ5SUxK/dPmNqhlxCSQlg2LBhTV7Qp08fOnXad2L4lg0r2ySw1jTj+fsaJKU+ffpw4okncuSRR9K5c9hzpzS8PSNnIBIAw3J6AD/2dVUBfwooHElQSXnHFFICrCeUnFaubDrJbNmyJezooT4Dmk5mQVq64BNmvvZ8fbtnz5784Q9/4NRTT63vq6qq4pFHHuGhhx6iqqqqrvtJ4CO8M8lE4ukyvDeNdV52bXNDUMFIYkrmOybwHvoD8P7778esDFvnvffeC2v7y54nolee/n3959nZ2fzzn/8MS0rglYX/2c9+xj333OPv7gPcEJcgRUIMy8nA2yTv92AQsUhiS/bE5NZ9Mn/+fJ555pmYA7du3crvfrfvpPG8Xv0TeuFDRXkp61fuO5D5pz/9aaPTleeddx5Tpkzxdx3ZdtGJRHUe3jaGOh+6tqnFONJAsiemx4D6Obw77riDu+66i/Ly8FXTs2bN4owzzqCoqKi+79xLb4pbkPtj/arF1NRU17dPPPHERsenpKRELu44hIgT3EXaSmhDbYOaS0HEIokvmZ8xAezBe9D6AUBNTQ2PPfYYzz//POPHj6dHjx4sWrSIdevCD+I+7LjTmXT0twIIt/m2rFsR1m7O4o7hw4f7m52B/ngnO4u0tSnAYb72CuBfAcUiCS7Z75gAPsSb164vg7t3714++eQT3nzzzQZJafTBBt+1botziC3Xe0B4BdtVq1Y1eU3YApCU1PJR37xuW2vHJRJD5N3SQ65tVkcdKR1eR0hM4C1HPYRGNpdmZuXwXes3/OTO5+nUpXv8IttPBcPGkpKy779v5syZjY6vra3l/fffr2936Tsqq+fwo1YblvM7w3IGtVWcIoblDAfO8nUVAc8GFI60A8k+lee3CDAAo0vf0dOyuvS6qrK0mM69hvKNgw7lpJNPomuPXkHH2GyZ2TkMGDq6fgHEAw88wGmnncbgwYOjjp8xYwYffPBBfbtL71EAvYGbgV8ZlvMv4FHgXdc2G1++KNIyPyF8Q+2Trm3uCSoYSXxJeSRRUwzLGQEsq2sPG5jH0RPb303D4i8/4uGb99VU6927N/fee2/YQoiqqiqefPJJ7r33XiorvbIfGTldOfi7fyQjJ2oV3mWADTzn2ubOaANEmsuwnO54zzHrdnpXA0NVYVka01ETUye8hREA9M3vzMlHjggwov330mO38eEbfw3rKygoYPz48ZSUlDBv3rz6g2nrnHvVfdT0GF+6efuebGJ/D5QCL+LVdfq8LWKX5GdYzvXAvb6ul1zb/H5Q8Uj70CETE4BhOZsJ1XFKT0tl2jfHk5bW/h65lZeW8MzdP2HhZ+83OTYlJZXTvn81377gJwAUl5SzZPW2mmVrtldVVddkNnLpJ3hL76e7tlnWGnFL8jMsJx1vu0aBr/sI1zY/DSgkaSc67D6WgsnTxgMTAWpqa8nv0YmunbMCjqrl0jMyOOy408nr1Z8l82dTHaNKb5+Bw7Bue5LDTzizvi8rI53+vbqmjB3WK61L5yyK95aXlVVURXvuOBA4G7AKJk/rWTB52or1c6bvijJOpF7B5GnnARf7uj5ybfOOoOKR9qMj3zGdDbxS1x5RkIdxcPt6zrS3eBdrly1kzbIF1NRUU5WRx7JVmygr2sSewpX06NGdgyZNZvDICYwYfxgZmdlN/pnbd5WweHVh9aoNO6mtjfnGpRavqNtjwFta9ivRGJYzGzjC12W6tvmPoOKR9qMjJ6ZOwDYgG7wKsObJ40hJSfx/kl3bNvPXR25m0ZwPor7etf9Yhh9/JWefdiz53XOjjmlKeWU1K9Zt5+uVhRUlZZWNTfOtwlss8axrm9oXJQAYlmMAH/u6VgEj9SZGmiPxfwu3IcNyXgNOr2uffOQI+oaXJ084n7z3KtMf/y2le4sbHZeWnoV56U0c950LDujr1dbCpm3FLF5VWL1h6+7Gpn7LgZfx7qI+dW2z9oC+sLRrhuX8HTB9XT9zbfOPQcUj7UuHfcYEUDB5Wg5Q/9BlT0k5Iwp6BhhR477+YhZP3nklVZUVYf3dunWjU6dOlJaW1vfV1lSzaM779B00gv6DR+7310xJgS6dshg6oEfq8IF5pKelsqu4rKq6pjZypUg6cDBwCfCdgsnTqgomT1uyfs706A+9JGkZljMEeJx9b3yLgR+unzO9POZFIj7tbxla6/o7UFjX2LpjL+u3xCxNHqjSvcW88Mcbw/pM0+Sjjz5i4cKFzJs3j9mzZ3PhhReGjXnp0VvZvat1Ztg652YyaUw/zJPHp0+ZNJj87rmxpmUOBZ4B1huWc3+olLZ0HD8h/HfLU65tJuYPliSkDj2VB2BYzjXAw3Xtbl2yOf3Y0Qn3rMl56k7ee3XfKS633XYbl156afSxjsNPf/rT+vaRJ57D/113T9SxB2rH7lKWrt7GivU7amoa3kX5/Rdvmu91PWdIXobldMUr0Nkl1FUDDHdtc3VgQUm709HvmACewDvpGICi4jJWrNsRYDjRLZ03u/7zo446iosvvjjm2HPPPTesYOCS+W7MsQcqr2sORx5UwHknj0+dPG4AXXIzYyWdbwKvAisNy7nJsJw+bRaUBOki9iUlgH8oKUlLdfjE5NpmBd55cfXmfr2R3XsTZzq8sqKMjWuW1rfPPvtsUlNj/9elpKRwzjnn1Ld3Fm6ieFfbVlHPzEhjzNBenHXC2LSTjxzOoL7dwFtWHmkQcCewzrCcvxqWc3SoVo+0c4blpAHXRnSr5pK0WIdPTCF/x1eGvaKympmfraSiMjFmnDatXR5WFHDs2LFNXjNu3Liwtr/abVvrm9+F4w4byrknjUs5aGRfsjLToh0KmwGcD8wCvjQs53LDchJ7SaQ05SxgiK8927XNtrtdl6SlxASETtO+GNhb17d7Tzn/+3wNtbXBr3qOLPG+devWJq/ZsmVLWHvN9hp27C6NMbpt5GZncPDovpgnjU899pAh9M7rFGvoQXiruDYYlvOwYTnfiF+U0oqui2jrbkn2ixJTiGub84Ef+vs2Fu5m7lcbA4pon255vcOS06efNn3UmH9ManoWW0s78caHS3jzo2Ws2rCT6pr4JdzU1BQG9+/OKUeN5PTjxjB6SD5paSnR7qK64hV1/MqwnHcNyznXsJyMuAUq+82wnCOAo3xda/GdrCLSEh16H1Ok9XOmLy6YPK0GOL6ub9uuEvaWVtC/d1dSA1ypt2zhJ2zd4FWpnT9/Pt/+9rfJy8uLOnbjxo1cffXVVFR4+5069x5Bn7EnAVBSVsnazUUsXbOdispquuRmkZkRv2+D7Kx0BvTuypihvVJyszPZU1JeW15RHe0fdigwDbi4YPK0LgWTpy1dP2e6avgkqILJ0+4Hxvu67nBt86Og4pH2TYkpQsHkaf8DxuD7Idu5u5TN2/YwsE830tODucnslteX2e96b0Crq6t5//33mTRpEv369Qsb9/XXX3PZZZexceO+O72hUy6pzOkxIOz/urq6hq079rJ4VSE7ikrIykyjc24W8cq9aamp5HfPZfSQXil98ztTXV1DUXFZLQ23MHQBpgLXFkyeNqFg8rTCgsnT1qyfMz0+gUqTQhWQn2DfDMwe4AfaUCv7S6uhojAsJxd4Hd+dE0CnnAymHjaMvG45cY2nrLyK9+es4rM3HmXTvNfr+1NTU5k6dSoTJ04kNTWV+fPn895771FVVeW//PlQTZyLAIvwh9NhuuRmMWpwT4YX5JGVGf/ixqXllSxbu52lq7fVlpZXNfa9+RXenqgXtHEzeIbl3AP8wtf1kGubP401XqQpSkwxGJaTibfx9nJ/f2pKCqOG5HPQyD5t/su7uqaGJau3sWDZFioqq6mpquCr135D8ZalTV/sWQAcC+yC+uW8pwBXAacS4/8/LTWVIQO6M3pwPj338xDYA1FbW8u6LbtZsnobm7c1eibgHuAFwHZtc0F8ohO/0ErK9UC3UFctMMK1zZXBRSXtnRJTI0L7a64EHiJi2jMjPY3xI3ozZmgv0lu5wGBtLazasIMvl2xmb2n4uXi1NdWs/PDJT7Z+/e4heEuuo6kB/gDcjne4agOG5QzDS7oXA0DiuUAAABUnSURBVDEPCOzZPZfRg/MZ0r97IIUUi/aUsXTNdpav3V5bVV3T2Pfr//Duol4J7U2TOIg8OQXv3//coOKR5KDE1AyG5ZyIt9epR+RrOdkZjBzUk4K+3cjremBTfHtKKli/pYjl63awM/rS7mrgJ65tPgaMwzu9+bDQRxreXqy5wD+BZpVDNywnG2+RwZWE184Jk5WRxvBBPRk1uCddcuNfULGquoZVG3ayZPW2WP82dbYATwFPura5Lj7RdUyhO/ClwDBf9zGubc4KKCRJEkpMzWRYzkDgDuBCYvy7dcrJpKBvNwr6dKNH1+wmp/oqq2rYvbeM9Vt2s25zUVO/cN8DfuHaZqyEk0L0kxaazbCcQ/GeQ50PxMyy/Xt1ZfSQfAb07hLImYKFO/eyZPU21mzcRU3sfWY1wAy8u6j3QnvVpBUZlnMW3pugOnOAw1XyRA6UElMLGZYzAW+a7LSmxqamppCbnUFOVga52RmkpKZQWlZJSVklpeWVVFU163flPOCXwH/j9QNvWE4P4Ed4d1EjYo3rlJPJqME9GTGoJ9kBLJYoK69i+brtLF2zvcGUZ4SleMUMn3NtUyXhW4lhOR8Cx/i6zndt829BxSPJQ4lpPxmWMxXvzLejmhi6v5bjPSP6a1Dv9g3LSQVOwktQpxNjQ3ZqagpD+nVn1JB8evWIebpDm6mtrWXD1mKWrN7GxsJGF+mVAn8FHnNt84v4RJecQnfXc3xd64Fhrm2q/pYcMCWmAxQqinYG3jlhx3Jge8O+wJt+ehWYn0hTIqG9KpcBlwK9Y43L65rDqCH5DB3Qo9UXhTRH8d5yb7HEuu1NnXU4G3gUcFzbLItPdMnDsJy/AP7yyL90bbNtaqtIh6PE1IoMy8kDvo13FzUA6B/66EP43cY2YGPoYxNeQnrNtc01cQ14PxiWkwWcg3cXNSXWuIz0NIYX5DF6cD5dO8d/sUR1dQ2rN+5iyeptbC8qaWzoNuBp4AmVZ2gew3IGAKvxqhYDlAADXdvcGVhQklSUmOLAsJx0vLuMDGCza5tJsSPesJyD8RZL/ACIOYfXL78Lo4bkU9CnayCLJbbvKmHJ6m2s2riTmthnBNYCb+AtlnhLiyViMyzn94C/nPKfXNu8Jqh4JPkoMckBMyynG/B/eHdRY2KNy83OYOTgnowc1JOcrPifzVpeUcWKdTtYsmYbe0oaXSyxEm+xxLOubbZtIat2xrCcTsA69m2dqAVGuba5PLioJNkoMUmrCW1InoqXoM4mxvO2lJQUBvfrxqgh+fTJi38Jptpa7+T4pWu2sX5Lo4slyoGXgEdd2/wsPtElNsNyrsR7NlfnNdc2zwwqHklOSkzSJkLPIS7FWzDRL9a47l2yGT0kn6ED8sgI4IDcPSUVLF2zjeXrdlBeUdXY0Dl403wvubYZ38JWCSK0SnMxMNLXPdW1zQ8CCkmSlBKTtKlQPaUz8c7nmxprXEZ6KsMG5jFqcD7du2THK7x61TU1rNlUxNLV2yjcubexoTv5/+3de3Cc1XnH8e9KK69laa3b2pYtSyvbspZgoCYYl6WZ0JSmA5hb6MYJLSmXJCWvmQkpLc2kGdKSZGCgcVKYwmvCJQmBlsALhZQEAsSTmMtOExyCg+ysL6C1ZF2s1c26WLIu2z+OJEu2dm1s7Upa/T4znvG+e3bf4xlbj895n/M88BiwZa5tXwUt5wrgp+MuvQOcN5OyRyUzKDBJ2gQt50xMssT1mHYWk1pSkk/A76N8acG09MBq6zxMJBozDRWHkuZA/AKzrfXzsB1KmpueCYKWs5WJFfc/F7ZDT0zXfCRzKTBJ2gUtx4s5A3MLE5vLTZDrOZossWB++pMljgwMsa++jUhtjK6epImUUUw/okfDdujEfe9noaDlrMWskEY1ApUqmCupoMAk02YkWeJjmGSJvyZBtXSXy0V5aQEBv49S3/QkSzS1msoS9c2dJC7PxxFMsd8HgXAmbXEFLedHmMzLUV8P26G7pms+ktkUmGRGCFpOKaYFx5eA5YnGFeTPH2tmmONOfwPmnsMD7NkfY8/+Vvr6kyZL/B4ToP4rbIeSPrSa6YKWsxSzKhz9j8NhoFyp9JIqCkwyo4wcRr4cs4r6ZKJx7uwsVpQVEaj0UXSa7UZOxfBwnP1NprLEwbakcacT+BGmPl8kPbObWkHL+Tbw9XGXtoTtkDVd85HMp8AkM1bQcgKYFdSNHO2QepzFxXlU+31ULC0kOyv9f6U7uvqI1MZ4v76NweTJEr/ErKJ+GrZDSZdbM0XQchYA+5nYTPKM2RpkZXZQYJIZb6TawGcxyRLnJho33+Omqtw0M8zLnZe2+Y0aGBzi/fp2ItEYnV1J68IewCRLPBK2Q43pmd2pCVrOzcCWcZd+FrZDl0/XfGRuUGCSWWMkWeJPMdt8nwEmjT4uF5QtLiBQ6WOpz8s0ZJzT3NpNpDbG/qZO4omzJQaB5zAp56/PtGSJkQO1NUwsM3Vx2A5tnaYpyRyhwCSzUtByFgE3Ybb6KhON8+Z5qPb7WFVejCcn/ckSh/sG2LO/ld37Wzncl7RVUQ1mm+/HYTvUlZ7ZJRe0nMswhW1H7QDWzrQAKplHgUlmtaDlZAOXYLb5LiHB3+nsrCxWlJlmhiUFC9I5RQCG43HqmzqJ1MZoau1ONrQbeByww3bovfTMbnJBy3kV0yhy1I1hO/TDaZqOzCEKTJIxgpazCrgZk3ZenGicr3AB1ZU+KpcVkp2V/vp8nd197K5tZV99GwODSQtGbMNs8z2f7oOsQcs5B3h33KVmwJ8pLVtkZlNgkowTtJxcYCPmWdT6ROM889xUlZv6fPkL0p8sMTg4zPsH2onUttCRPFmiCXgY+H7YDtWnY25By3kMkw056hthO/StdNxbRIFJMlrQctZhAtS1QMLqsGWLFxKo9LFskXdamhkebOshEo2xv6GD4cTJEkPAC5hnUVtT9awnaDlLMCnio9G6D6gI26GWVNxP5FgKTDInjLS9vwFTRLYq0bj8BfOo9vuoKi/GM8+daFjK9PUPsreuld3RGD2HkyZLRDAB6vGwHeqYyjkELedO4BvjLj0ctkN/P5X3EElGgUnmlJEU6E9iVlGXA5M+ZMrOcuFfVkTAX4KvKGHX+JSJx+PUN5tmhg0tSZP0eoEnMc0M30028GSMbINGgUXjLq8J26Gdp/vdIidLgUnmrKDl+DHJEl9g4g/iCYoLcgn4fVSWFeHOTn+yRFdPP5FojH11bRwZSJos8RZmFeWcZJLCEkxh1nUjvxbNyytuLll1YVVB+TkUVZwLuF4O26FLT/fPIPJhKDDJnBe0HA+muvktwIWJxs3LyWbV8mKqK30szPOkbX6jBoeGqW3oIFLbQltn0ia6LcAjwENhOxRNMObTgM3EUkMTlKwKsuSsSzbufOFfnznlSYucAgUmkXFG+g5ZwHVAwgNPSxd5Cfh9LF+ycFqSJWIdvURqY0Qb2hkaTpgDMYw5IPsA8GrYDg1j/s1vwbS8PxktmLNMO05zyiInTYFJZBJByynAdNrdBAQSjcvLzWF1hY/VFSXM96Q/WaL/yCB769rYHY3R3Zv0qNM+wN7+4y91HumOPTz+jXXr1rF+/XqKi4vZuXMnW7dupaNjQj7FDuB8TL8pkZRTYBJJYqQ+3ycw23xXAZPWNcpyuahYWkig0sfi4ulJlmhoMc0MDxw8NOmYgd4O3nnq1vhQf48LwOv1cs8993DllVdOGNfS0sJXv/pVXnnllfGXvw3ckaLpi0ygwCRykoKWsxz4ImYbrDTRuELvfAKVPlaWFeN2pz9Zorv3CLujMfbWtdF/5Gh3jfrtDnW/eWrs9ZYtW7j88skLhQ8MDLBhwwZ27hxLxusDvJjCsyIppcAk8iEFLScH+BRmm++iRONy3FmsXF5MwO+jwJvwbG/KDA0PE20wzQxjHb1EXr6Htg9+C8AFF1yA4zhJP//WW2+xcePG8Zf+BD1rkjRQYBI5DUHLWYMJUH8H5CcaV1qST3Wlj/LSArKmIVmitbOXu62L6e00xRtuvfVWbr/99qSf6evrIxAIMDQ0lqL+eeCxlE5UhASHC0Xk5ITtUE3YDt0CLMMEqJrJxjW1drNtey3PvbaTd3c3nagFxpQr8nro72kfe71oUcJjW2M8Hg8LFy4cf2nZ1M9M5HgKTCJTIGyHusJ2yAbOxmzv/YRJnscc7h9gx+4mnv3lTrZtrz1RC4wpk5WVzTL/0eTCcc+OEmpubqa9/Wgww5X1+1TMTeRY6c9vFclgI4VVtwHbgpZTiqkqcTOwfPy4eDxOtLGDaGMHBfkjyRLLi8hxp66ZoX/12dTtMwu61157jUOHDh27Iprgueeem/D6o9c9eLcn31cK/HfYDvWkbKIy5+kZk0iKBS3HDVyBSTm/ONE4d3YWK5cXEahcRGEKkiW2b/sZj95z69jrq6++mvvuu4/s7OODYU1NDVdccQVHjpijS7lFy1n72f8YfbsT+AGmmeHuKZ+ozHkKTCJpFLScMzDt4G8AChKNW1ycR8Dvo2JpIVlZU/PPNB6P85/fuJFdv3tj7Nq6deu48847WbNmDW63m9bWVhzH4d5776W/f7TcnouzPvUtvKVnTPa1r2Lq870YtkNKJZcpocAkMg2ClpOH6RF1C7A20bj5HjerK0pYXVFCXu7pNzNsb2nkW5supa934rMtj8dDUVERTU1Nx33mo3/5tyw+91o6u5M2M6wHHsK0yGg+7YnKnKbAJDKNRipLXIDJ6NvI0eZ8E7hcsHxJAQG/j1Kfl9PJOH9/1+946O6v0NXakHScy+XiE1fdwNU33I47Zx5NsW4i0Rh1TZ3EEzczHACexayi3khVM0PJbApMIjNE0HIWAzdhtvr8icZ58zwE/D5WlRczL+fEyRINtRH27dxOdM8faKrbR9GiMloHC+lq3kvb+/9HPD583GcWL6vkuq/cTdWa8497r7dvgD37W9kTbeVwf9K09z9gAtSTYTuUtKmUyHgKTCIzTNBysoHLMKuoSxKNy87OYkVZEQG/j+KC3OPe7zvcw7OP3MWbL/8k4b0KK85l7UUhFuf1c6g9RvmqM/GvPpuiRctOWDV9OB6nrqmTSG2M5uRp713A48CDajgoJ0OBSWQGC1pOFSbd/CagONE4X1EeAX8J/mWFZGdlUbdvJw9926Lt4IET3iM3byE33v5dzjr/z095nh1dfeyOxni/vo2BweNXYOP8CrOKej5sh9J7ylhmDQUmkVlgpOX5ZzCrqOP310Z45rmpLF3Ai/d/kVjj0R6BbrebNWvWsHr1aurq6tixYweHDx9tNpib5+UO+2UKS5ac1jwHBof54EAbkdoYHV1JkyUage9jkiVOHD1lTlFgEpllgpZzPiZAfRY47sBT7RuP0fiHn4+9vvDCC9m8eTPl5eVj19rb27njjjt4/vnnx66ded7HueXOR6es8eHBth4itS1EG5MmSwwBzwNfDNuh9kSDZG5J3TFzEUmJ+refbqh/++kXys/fuAU4CKxiZJvvSHeM3a9+b2zseeedxzPPPENhYeGE78jNzeWyyy4jGo2ya9cuAFoao6w+az2+0nKmQl7uPPxLC1ntL2FejptDPf2TbfNlAR7gO/VvP60MPgFUK09k1grbodawHdoMVAOXAv/bdXDvhB/umzdvnrSyw6hvfvObeL3esde1kXenfJ65nhzOXr2Eay4+k4vWrWCpzzvh/VJf/q9H2r6LAKqVJzLrjfxQfxl4OWdB0QOYbT7KysqoqqpK+tmCggLWrl3L66+/DsD+ve+lbJ4ul4uK0gIqSgs41N1PJBqjtqGd0hLvv6fspjIracUkkkEGetsXj/5+xYoVJ/WZ8eOaD3ww9ZOaxMJ8D+evKeOai898wf7Kn/0xLTeVWUOBSSSzjP2Q37t370l9YPy4gkUVyRIVplx2VtYjabuZzBoKTCKZ5e3R3zQ1NVFTM2nfwjGxWIx33z36XKnXXcr/bN3Fe3ub6etPeU3WRswWpMgECkwimeW3wFgiwW233cbAwOTnWOPxOF/72tfo6TnaWsm7JEDP4SO888dGnn2thjfeiXKwLWWtl364aUOVKpLLcRSYRDJLA3DP6IuamhquuuoqIpHIhEFNTU1cf/31vPTSS2PXSlZegHfp0S63w/E4Hxxo5xdv7eHFbRH27G9lMHlVhw/rB1P5ZZI5dMBWJPN4MFt6Z42/WFlZSXV1NdFolD179jA8PCHIxM665q5/8S6pvg74eKIvznFns6q8mGp/CQX5p9XMcNumDVUXnc4XSOZSYBLJTB/JcnteGh7sT1ilfJxG4G8wdewIWs7ZgAV8DshP9KFSXz4Bv4/y0oJTqRZx/aYNVY9/2A/J3KDAJJKh1n/hiRfqtztXNvz+BUicafck8GWg7dg3gpazELgO08zwzERfsGB+jmlm6C8h15NzMlM7BCzdtKGq92QGy9yjwCSSgYKWswrYA7j6uw5yqPGPvft+ZT8cHxqoBvYB24HfACdsQzHSzPDjmIO715DgYL7L5aJiqWlmuKQk4UIL4KFNG6q+9OH+RDKXqPKDSGb6MiP/8fR4F7PIu/iBvb+8/59P5YtGutD+Gvh10HKWAV/AtOJYNn5cPB4n2tBBtKGDQu98qv0+Vi4vIsd9XEmkR09lHjJ3aMUkkmGCllMI1HH0+dAQsCJsh+qm8B45wBWYbb6/SDTO7c5iZVkxgUofhd75AO8B52zaUKWCrZKQApNIhglazj8B4+vPPRW2Q9em8H4fwbSDvwFYmGjckuJ8qiqKv/udm9f/Y6rmIplB55hEMkjQctyYbbzxvjfZ2KkStkO7wnboVqAMs8W3Y7JxzW3d1DZ0PJvKuUhm0IpJJIMELeczwFPjLr0ZtkMfS/McXMCFmGSJTwOjqXpbw3bo4nTORWYnJT+IZIiRgHDbMZdTulqazEiyxJvAm0HL+Qfg85itvgfTPReZnbSVJ5I5gsD6ca8/wLQtnzZhO3QwbIfuBlZO91xk9tCKSSRz/NUxr+8P26GhaZnJMWbKPGR20IpJJEOE7dC/AecBTwCtwGPTOiEREZFRQctZMN1zEBEREREREREREREREREREREREREREREREREREREREREREREREREREREREREREREREREREREREREREREREREREREREREREREREREREREREREREREREREREREREREREREREREREREREREREREREREREREREREREZG54f8BoOM03+gDon4AAAAASUVORK5CYII=;" vertex="1" parent="1">
          <mxGeometry x="467.978574610245" y="286.15861932938856" width="207.8138574449666" height="229.9741029071076" as="geometry" />
        </mxCell>
        <mxCell id="UGAgcFjpy74Iv2Mi5U0g-4" value="" style="shape=image;verticalLabelPosition=bottom;labelBackgroundColor=default;verticalAlign=top;aspect=fixed;imageAspect=0;image=data:image/png,iVBORw0KGgoAAAANSUhEUgAAAaMAAAHTCAYAAACKt3c1AAABgWlDQ1BzUkdCIElFQzYxOTY2LTIuMQAAKJF1kbtLA0EQh788fOCDCLGwsAgarRKJCqKNYESiECTECL6a5MxDyMXjLiJiK9gGFEQbX4X+BdoK1oKgKIJYa6too+GcM4GImF1259vfzgyzs2CPZRXVcAZAzeX1aCjomZmd89S94MQts5PauGJoI5FImKrj4w6bZW/8Vq7qfv+OxsWkoYCtXnhY0fS88LhweDWvWbwt3Kpk4ovCp8I+XQoUvrX0RImfLU6X+MtiPRYdBXuLsCf9ixO/WMnoqrC8HK+aXVHK9VgvaUrmpqfEdshqxyBKiCAeJhhjlAF6GZJ9AD999MiJKvGBn/hJliVWkV1jDZ0l0mTI4xN1RbInxaZET8rMsmb1/29fjVR/Xyl7UxBqnkzzrQvqtqBYMM3PQ9MsHoHjES5ylfjlAxh8F71Q0bz74NqAs8uKltiB801oe9DievxHcsiyp1LwegLNs+C+hob5Us/K9xzfQ2xdvuoKdvegW/xdC981XmfPSMCHKQAAAAlwSFlzAAAuIwAALiMBeKU/dgAAIABJREFUeJzs3Xd8FHX+x/HXptN7JyCgKF2aOPaKnCCn5xyevZ2eYznrnafn6Xle8ZpdB/Vs91NPcc6zKxZULCNFkCYKKB3pBBIgkLK/P2YTJpvdJECys7t5Px8PHo98v/ud7Cea5JOZb/mAiIiIiIiIiIiIiIiIiIiIiIiIiIiIiIiIiIiIiIiIiIiIiIiIiIiIiIiIiIiIiIiIiIiIiIiIiIiIiIiIiIiIiIiIiIiIiIiIiIiIiIiIiIiIiIiIiIiIiIiIiIiIiIiIiIiIiIiIiIiIiIiIiIiIiIiIiIiIiIiIiIiIiIiIiIiIiIiIiIiIiIiIiIiIiIiIiIiIiIiIiIiIiIiIiIiIiIiIiIiIiIiIiIiIiIiIiIiIiIiIiIiIiIiIiIiIiIiIiIiIiIiIiIiIiIiIiIiIiIiIiIiIiIiIiIiIiIiIiIiIiIiIiIiIiIiIiIiIiIiIiIiIiIiIiIiIiIiIiIiIiIiIiIiIiIiIiIiIiIiIiIiIiIiIiIiIiIiIiIiIiIiIiEiyMSwnw7CcrKDjEJHGIyPoACQpPQRsNSznyqADEZHGIRR0AJJcDMvpCKwBMiNdK4CzXdv8PLioRCTd6c5Iok1iTyIC6AF8ZljOJ4bldAooJhFJc0pGEu1roDxG/1HAasNyHtV8kojUNz2mk2oMy+kCOMARcYZsB653bfPxxEUlIulMyUjiMiznGOA5oHucIcuBs1zbnJa4qEQkHSkZSa0My7kG+CvQJM6QqcBPXdtcn7ioRCSdKBlJnRiWkwNMBC4k9lxjGfAY8EvXNksTGZuIpD4lI9krhuV0w5tPOjzOkCLgWtc2n0xcVCKS6pSMZJ8YlnMs8DzQNc6QpXjzSTMSF5WIpColI9kvhuVcB/yZ+PNJHwITXNvcmLioRCTVKBnJfovMJ/0LOJf480k23uO7WHuYAmdYTjbeo8cD8e72Kv51AToAm/FOpvD/Wwp87tpmcRAxi6QTJSOpN4bl5OPNJx0WZ0ghcI1rm88kLqr4DMtpAYwBfgyMBVrvw6cpAt4BXgXedG1zS/1FKNJ4KBlJvTMs50TgWaBznCHf4c0nfZm4qDyG5YSA0cAvgZOAnHr89GXAx8AjwMuubYbr8XOLpDUlI2kwhuXcBNwF5MUZ8gHefNLmBMUzHPgbcEJdr8kgTIvSUooysygL7dWPyzTg165tTt3LMEUaJSUjaVCG5eThzSedTez5pFLgYeCGhppPMiynN/An4GfxxuSVlzG0aCuDt2+lQ8ku2pSW0KZ0N61KSwgBYaAwM4st2TlszsphU1YOC5q1ZGbz1mzPrPGovjeAW1zbnF+vX5RImlEykoQwLKcn8F9geJwh24CrXNt8th7fMwRcA/wDyI5+vVVpCaMKt3BY4WYGbd9Gdnjvc2FZKMSCpi2Z3qIN01q0ZVN2zKd+5cAfgTuTdQGHSNCUjCShDMsZDfwbiFeOYgne0UJf7ef75ODdcf08+rXmZaWYG1fzo83r9ikBxVMWCvFB6w680CGfgqxquQ/gZeAC1za319ubiqQJJSMJhGE5NwN3ArlxhryHN59UUMOnaQkMw1uCPQ9YCJQaltMB7y7saP/g7HA54zat5Seb1tCsrOFOLCrOyOD1tl14pX1XdmZkRr88B/ixa5vLGywAkRSkZCSBicwnPQ1MIPb3YilwP95CgIpbmBDefqbfAodEjd+ZmdN01sAz/tSradv8KidD9NtRyPWrF9O+ZHd9fgk12paZzYPd+vBl82orxjfgJSQ3YcGIJDklIwmcYTm98O5khsYZshWwXNucAjyKty8orozMbHocfi5dBo2FUIiTCtZz+Q9LyQonfqV1OSGe65TP/9pVOzWpABjl2uaihAclkoSUjCRpGJZzKvAU0DH6tfKyEua8cP3u4m1r67wvKH/EBO7IP4xTN68N/Bv941bteaRrb0pCVRYULsJLSDU9ihRpFIL+GRWpxrCcW4Hb8c0nLXf/zZqvXqsc0759e371q19x+OGH07lzZxYuXMirr77K008/TThyB5QZyuDtYecyqHm8tRKJ9W2TFtzZsx/FGVUS0mRgnMpuSGOnZCRJybCcpnjzSWbRhu9C85zf4O32gcGDB/Pss8/Stm3batd98sknnH/++ZSWer/bD2nWnikjLkqab/RpLdry1/y+0d33ubZ5fRDxiCSLakt9RJLBqpmTSlbNnPRS/sgJz66Z8/qEonXfNgfIycnh2WefpXv32JXQe/bsSXl5Oa7rrQ3YWLKDCZ0H0Cor3iEQidV9904yw2HmNWvl7z48f+SEGatmTlocVFwiQYu1I14kabi2+d0Pc16fWdE++uij6du32p1FFRdffHGV9tzCdQ0T3D46c+Nqjtq2Kbr7b4bl6I9DabSUjCQVVJ7aMGjQoFoHt2nThvz8/Mr2nMK1DRPVPgoBV6/+jk4lu/zdA/BKuos0SkpGkgoqTyzYsWNHrYPD4TDbt+855KBZZn0ezF0/csLlnLN+ZXT3HwzLiVekUCStKRlJKqh8TPfVV7WfErRy5Uo2b95zEPiQFsmxmi7aUVs30qe4yslA3fBKW4g0OkpGkgoqk9H06dOZMmVKjYPvvvvuKu3BSZqMQsD561ZEd/8qUnVWpFFRMpJU8BJelVgAbrzxRmbMmFFtUGlpKffeey+vvbZnP9Ip7frQLrtpQoLcF4O3b2XI9q3+rnZEnakn0hho9Y6kgq3AemA8ePNGkyZNYvny5RQUFLBp0ybeeust7rzzTl555ZXKi1pn5fH8YDMp54z8QsC0llX2TG1dNXPSOwGFIxKIZNkLKFKbEF4JhtPrMjiDEBP7j+O0Dgc3bFT1oCgzi4sOHk75nh/HFcABKlsujYke00mqCANmTvN2d2Vk1jyl0qdpW14bek5KJCLw6isN2F7o7+oBDAkoHJFA1FgvWSTJlA0//9HVO7esYs2c19m+4Tt2blpBebicllm5DGnRiSNa9eCK/BHkZaTWt/ZhhZuZ16ylv2s8sF8FBkVSSWr9xIrAwCZtutPnOAuA27/7inZb19EtryUZKfzUeVhRAU9U7RoQTCQiwVAyklRTpTBQz7Iy2uS1ijc2ZXQs2UWIiqNggaivUyTdac5IUk2Xig9CQKvS9Ki8kBkO06q0xN+lZCSNipKRpJrKX9JtSneTQfosOGtTWqUkelfDclL3uaPIXlIykpQR+eW8JxmVlNQwOvW0rXpnlAe0DigUkYRTMpJU0hqoXNcddSeR8mJ8PZ2DiEMkCEpGkkp2+hvFGel1gEiMr2d7rHEi6UjJSFKGa5vFwJaK9pbs9DpPdHNWta8nuQoxiTQgJSNJNWsqPtiSldxnzu2tqK9ng2ub6fUcUqQGSkaSaiqT0Y6MzLR5VBemWjJaE2eoSFrSpldJNVV+SW/Oyqbr7rKgYtln5YRZumMLc4rWMadwLeWhTFbllNG8Qx/yWnUCQj8EHaNIIikZSapZ5W8sadKcrruLg4plnywo2sC1377FgqINVV9YOR2AFp360sO4oDDGpSJpKz2ecUijkT9yQgi4oKIdAo7ctim4gPZCGHhgxRdcufBN1u2Ov1Bu9/ZNbPj2o74Q3gZMS1iAIgHSnJGkmqlAQUVjdvNWlIRS49v4xbXzuXvpp5SGy6v09+7dm549e1YdHC7PBu4DzkhYgCIBSo2fYpEI1zZLgDcr2sUZmdGlF5LSml2F3L5kSmU7MzOTa6+9loULFzJ16lQ+++wz5s+fz2WXXUYoVOUUoEeBDomOVyTR9JhOUk7+yAmZwE8r2jnhckYWbqnhiuDdvPg95hStq2z/61//4oILLiA3N7eyLy8vj+OOO478/HwmT55c0d0MaI4vAYukI90ZSSp6B6jcgzO1VXs2J/meI3frnnUXZ5xxBqecckrcsaZpctJJJ/m7jmm4yESSg5KRpBzXNguB/1a0d4cyeKFj9wAjqtm63dtZu6uosj1u3Lgax4dCIcaOHevv6od3dySStpSMJFXdDlQWM/qgdUdW5jYJMJz4vtledQl3v379ar3mkEMO8TczgP71GpRIklEykpTk2uYSvMl9wFs2/WzHHsEFVIPuuVUXWKxevbrWa2KMWVF/EYkkHyUjSWV/ACqff81o0Qa3ZdsAw4mtV9M2NM/cM6flum6t11QdE1qDDk2VNKdkJCnLtc31wN/9fQ90PZClec0Ciii2DEIMbtGpsv3II4+wbNmyuOMXLFjAM888U9lu3XNYe8NyrjQsRyemSNpSMpJU90/gm4rGrowM/pLfl62+cgwFpcV8vGU5E1fN5H/rv+H7nVsoT3C58ht6GpUfFxcXc8455zBtWvXDFT7++GMuvPBCSku96bBQKIP8kRNygIeBrwzLOTlBIYskVKj2ISLJzbCcg/COzWlT0XfIjkJOnzeFWxe9U/0MOKBlVi7X9BiF1X0kmaHE/BjcuuQDnlo9u7IdCoUYOXIkgwcPpqysjDlz5jBr1qwq13QfbpJ/2M+iP9XrwE2ubS5q8KBFEkTJSNKCYTkn4e0/yiwvK2HVjEms+eoVwuGa74CGt+zC/Qf/iD5NG3auaVdGBvd27M6TUx+h8Idvar8AyMpt7g6/4LFwRlbOETFeLgEeBO5ybbMgxusiKUXJSNKGYTlXAw8u++xpfpj7RrXXmzZtyo4dO6r1d8ltwUcjLqJlVm611+rDpuwc/pJ/MN/nNSMcLmft3DdZMe15ystK4l2yHbgReMywHPBOm/g7EGu54EbgNuBfrm2mXi0NkQglI0kbhuWENiya+t8lHzx4BpE5oezsbK6//npOP/108vPzKSoqYvr06dx55518//33ldee1Xkg9x08pt5jWtSkOXfnH0xBVEnxog3fvT3P+c17EB4OjMDbM/UlMBN4DVge9bU1wUtQtwBNY7zVPOA61zanxHhNJOkpGUk6CQGLgT4Aubm5vPLKKwwaNKjawJ07d3LxxRfz6aefVvY5QyZwZOv62au0MyOTV9p15X/tu1JafU7qHuDX+3InY1hOV+Av+MpoRHkF+FVkH5ZIylAyknRyIF4yAuD222/n8ssvjzt4zZo1nHDCCRQVeVuVrukxilt7Hb1fAZSGQrzbphOTOnRjW2Z29Mu7gV+4tvn0fr0JYFjOSLwSE/Hmk+4D/uTa5tb9fS+RRNDSbkknw/2Ns846q8bBXbt25Zhj9pxBOrdw3/eVFmVmMaV1B37ZZwj/6nxArES0Hji+PhIRgGubM4CjgHOAlVEvZwO/AhYZlnOZYTk6nV+SnpKRpJNhFR/06NGDVq1a1XrBwIEDKz/+qmj9Xr3Zhuxc3mzbmdt79ueig4fzUNc+rM3JizX0f8AI1zY/36s3qIVrm2HXNv8DHALcAUSvzugIPAZ8aVjOcfX53iL1TTu6JZ1srPhgy5YtlJeXk5FR899bmzdvrvx4d7M2XH7QMNqX7KJNaQltSnfTtnQ3LUtLKcrMYnN2NluycticlcOm7BzWZ9e6+u5TvLmh2s//2Q+ube4A/mBYzpN480nnRQ0ZAnxoWM7LePNJ30d/DpGgac5I0snxQOVqsg8++ICDDz447uBwOMz48eOZPdvbiNr+oKM56KRr6yOOhcBvgNdd20zsUQ+AYTmH480ZjYrx8m7gXuDPrm1uS2hgIjVQMpJ00gqo3AB6zDHH8Nxzz0WX8a706quvctVVV1W2DzjiIroMqbnWUA1W4K1kexX4OOg9P4blZABnA38FusUYsg74LfB00LGKgJKRpJ+ngIsqGueddx633347TZtW3ZrzzjvvcMMNN7Btm3dzkJGZs+PQsx+Yl9uifU+8uZba5lPXA0vxTn14BZgTxF1QbQzLaYa3mOHXQKyCT7Px9idNTWhgIlGUjCTdtALmA5WlX/Pz8zn55JPp378/69atY9q0aUydWu137wTgJYDI6dgdga6Rf+2BzcCayL91rm3GPT4hGRmWkw/cjbf6LhYHb35raeKiEtlDyUjS0Yl4h4nWtfTrE8DPGy6c5GFYjgHcD4yM8fIuvA25f4mUdhdJGCUjSVcHNW3bY/qOzSta1zCmALgGeA4SXFMiQJH5pHPx7pS6xhiyFu/YoX+7tlmeyNik8VIykrRkWE6/cLj86w3ffsS21fMpXLe4rHjrDxnAJrzz32YCE4Haa4CnKcNymuPNJf0KiLVB6ku8+aRPY7wmUq+UjCQtGZZjA1f4uv7g2ubdQDGN6C6oLgzL6Ym36i7ekRWT8OaTlsd5XWS/KRlJ2jEspy2wij1zRiVAD9c29/28n0bAsJwj8eaThsd4uRj4B/BX1zaLEhqYNAo6DkjS0WVUXbzwHyWi2rm2+RlwGN7S+B+iXs7Dq5v0rWE5F0TmnUTqje6MJK0YlpMNfI9vaTcw3LXNWXEukRgi80m34NVQinXu0Qy8+aR6PW9PGi8lI0krhuWcBbzg65rq2uaxQcWT6gzLOQD4G1612Vj+BVyZavuuJPnoVlvSzXVR7fsDiSJNuLa5zLXNCcCxeKc1RPs53rFCIvtFyUjSRuSA0MN9XcvwzoqT/RQ5LmgkcCneuXZ+txqW0y/xUUk6UTKSdBJ95PaDOgS0/ri2Weba5pPAQcBbvpeygUe1qEH2h755JC0YltOdqvMaRXjH/Eg9ixwVdBngL0FxNHBJMBFJOlAyknRxJeAvr/2Ua5tbgwom3bm2uQavZpPf3w3L6RxEPJL6lIwk5RmW0xT4ha8rDDwYUDiNyaOAv4pta7zCfSJ7TclI0sF5QFtf+w3XNhcHFUxjETlE9XKg1Nf9M8NyfhRQSJLClIwkpRmWE6L6cu77goilMXJtcz7ePiQ/O1LUT6TOlIwk1Z0M+JcVzwM+DCiWxuqPwBJfuyfw+2BCkVSlZCSprtpdUTKW/05nrm3upOoJ6QDXG5YzNIh4JDUpGUnKMiznEMA/P7EReD6gcBo11zY/AP7t68oEHjcsJzPOJSJVKBlJKvtlVNt2bbM4kEgEvENVN/naw/Eq6YrUSslIUlKkZtGFvq4SwA4oHAFc29wI3BDV/UfDcnoEEY+kFiUjSVU/B5r62i+4thldg0cS7/+AD3ztZsDDkVWPInEpGUnKidQsin78o9O5k0Bk8cgVeJVhK4wDzgwmIkkVSkaSis6gavG8T13b/DKoYKQq1zaXAHdFdT9gWE7rIOKR1KBkJKlIm1yT3z+A+b52F+AvAcUiKUDJSFKKYTmHAYavazmqWZR0XNvcjXdUkH/P1xWG5RwZUEiS5JSMJNXEqllUGnOkBMq1TReYGNX9mGE5OUHEI8lNyUhShmE53YAJvq7tqGZRsrsF8K9y7A/8KqBYJIkpGUkquRLI8rWfcm2zIKhgpHaRmlLRKx9/Z1jOQUHEI8lLyUhSQoyaRQAPBBGL7LWXgdd87Vy8MuXaeySVlIwkVZwLtPO1VbMoRUT2Hl2NVwq+wvHABcFEJMlIyUiSnmoWpT7XNlcCv43qvsewnA5BxCPJR8lIUsFJeBPfFeYDUwKKRfbdw8AMX7st8M+AYpEko2QkqUA1i9KAa5tleHuPynzd5xuWc3JAIUkSUTKSpGZYzsHAqb4u1SxKYa5tfgXcE9VtG5bTJIh4JHkoGUmyi65ZNDFSWVRS153AMl+7D/C7YEKRZKFkJEnLsJw2wEW+LtUsSgOubW4HrKjuXxmWMyiIeCQ5KBlJMouuWTTJtc01QQUj9ce1zXeA//i6slCZ8kZNyUiSkmE5WVTfua/l3OnlesB/gsYovFpI0ggpGUmyOgPI97U/c21zZlDBSP1zbXMdcFNU918iZxBKI6NkJMkq+nRu3RWlpyeBqb52C+DBgGKRACkZSdIxLGck4K97swJ4JaBwpAFF9ov9Atjt6z7DsJwfBxSSBETJSJKRahY1Iq5tfgP8Oar7YcNyWgYRjwRDyUiSimE5XYGzfF2qWdQ43A1842t3A/4YUCwSACUjSTbRNYuedm1zS1DBSGK4trmL6iVCro6UmZdGQMlIkkbkSJjopb2qWdRIuLY5FfiXryuEt/coO6CQJIGUjCSZRNcsetO1zUVBBSOB+DWwztcejLcfSdKckpEkBdUsEoDII9no74PfG5bTO4h4JHGUjCRZnAgM8LUXAB8EFIsE60XgbV+7Cd7J3ipTnsaUjCRZqGaRAJV7j64Edvi6RwNnBxORJIKSkQTOsJy+wFhf1ybguYDCkSTg2uYy4I6o7vsMy2kbQDiSAEpGkgyiaxY9qppFgjdn+JWv3QH4e0CxSANTMpJARWoWXezrKgUeCSgcSSKRUzcuA8p93ZcYlnNcMBFJQ1IykqBdSvWaRauDCkaSS+Sk9ui9Zo8alpMXRDzScJSMJDCRmkVXR3XfH0QsktR+B6z0tfsCtwQUizQQJSMJ0o+Bnr72565tTg8qGElOrm0WAVdFdd9iWE7/IOKRhqFkJEHSJlepE9c2XwccX1c23uM6/Q5LE/ofKYEwLGcEcJSvayXwv4DCkdRwLbDN1z4K+HlAsUg9UzKSoKhmkewV1zbXADdHdf/NsJzOQcQj9UvJSBIuRs2iHVQ9rVkknseAz33tVujxblpQMpIgWHjP/CuoZpHUiWub5Xh1j/x30WcZlnNqQCFJPVEykoRSzSLZX65tzgf+GtX9iGE5zYOIR+qHkpEk2jlAe1/7Ldc2vw0qGElZfwKW+No9gTsDikXqgZKRJIxqFkl9iZxdGF2m/DrDcoYFEY/sPyUjSaQTgIG+9tfA+wHFIinOtc0pwDO+rgy8MuVZAYUk+0HJSBJJNYukvt0EbPS1hwHXBBSL7AclI0kIw3IOAsb5ujajmkWyn1zb3AjcENV9l2E5PWONl+SlZCSJEqtm0Y6YI0X2zrNULVHfDHhYZcpTi5KRNDjDclqjmkXSQCKPeq8Ain3dYwEzmIhkXygZSSJcgvfXaoWXXNtcFVQwkn5c21wC/CGq+4HIH0KSApSMpEFFVjZFP6LTcm5pCP8A5vvanYG7A4pF9pKSkTS08VStWeSqZpE0BNc2S/DKlPtXaP7CsJyj4lwiSUTJSBqaNrlKwri2+QVgR3U/alhOThDxSN0pGUmDMSxnOHC0r2sl8HJA4UjjcSuwxtfuD/w6oFikjpSMpCFF1yx6SDWLpKG5trmV6htfbzMsp28Q8UjdKBlJgzAspwvwM1+XahZJIv0PeNXXzsV7XKe9R0lKyUgaSnTNomdc29wcVDDSuET2Hl0DFPm6jwMuCiIeqZ2SkdQ7w3Ly8JKRn2oWSUK5trkS+G1U9z8My+kQRDxSMyUjaQjRNYvedm3zm6CCkUbtYWCGr90WuCegWKQGSkZSr1SzSJKJa5tleHuPynzd5xmWc3JAIUkcSkZS344HBvnaC4H3AopFBNc25wD/jOqeaFhO0yDikdiUjKS+Rd8V3a+aRZIE7gSW+tq9gdsDikViUDKSemNYzoFUrVm0Bfi/gMIRqRQpVxK9qOYmw3IGBxGPVKdkJPXpGsC/j0M1iyRpuLY5GXje15UJPGZYTmZAIYmPkpHUC8NyWuGViqhQhreSSSSZXI93x15hFNXvmCQASkZSXy4BmvvaqlkkSce1zfXATVHdfzYsp3sQ8cgeSkay3yKPOVSzSFLFU8DHvnYL4MGAYpEIJSOpD+OBA3ztL1zbnBZQLCI1iqzu/AWw29d9umE5ZwQUkqBkJPVDm1wlpbi2+S3wp6juBw3LaRlEPKJkJPvJsJxhwDG+rlWoZpGkhr8C/mOqulE9QUmCKBnJ/opVs6gkkEhE9oJrm7uAy6O6rzIsZ1QQ8TR2SkayzwzL6Qyc7evaCTweUDgie821zU+o+j0bAh43LCc7ziXSQJSMZH+oZpGkg5uBdb72IOCGgGJptJSMZJ+oZpGkC9c2t1D9cfPvDcvpE0Q8jZWSkeyrswF/kbLJrm0uDCoYkf00CXjL184DbJUpTxwlI9lrkR/Q6L8ktZxbUlZk79FVgP8sxZOBc4OJqPFRMpJ9cSwwxNf+Bng3oFhE6oVrm8uoXlbiXsNy2uEtbNBdUgPKCjoASUmxahaVBxKJSP26H+9uaGjh2m/Y9P209gUrZs/HO3exDPgSmAm8AMwOLsz0o0wveyUyqbuYPd87W4B81za3BxeVSP0ZctY9R677+r1P1s57u6bfj2V4G2T/RNVjhWQf6c5I9lZ0zaLHlIgkjbSf8+INT1L7H+qZeI/0xuI9ttbPwH5SMpI6i5zbpZpFks4eAvpWNHJzcxkzZgyDBw+mrKyMr776infffZfS0tKKIcOBv1D91HrZS0pGsjcuwTtuv4Lj2ubKoIIRqWc/Bc6qaAwePJiHHnqI3r17Vxk0f/58rr76apYsWVLRdQ3wP+DDRAWajjRnJHUSqVm0GOjl73Zt84uAQhKpb1/gVX6ldevWfPjhh3To0CHmwKVLl3LyySdTXFxc0fUGcFpCokxTWtotdXUaVRPRNCUiSSPZwKEVjV/+8pdxExFAr169uOQS/xNrhjdcaI2DkpHUlWoWSTobAORWNA477LBaLxg5cqS/2QXoWu9RNSJKRlIrw3KG4q0YqrAa+G9A4Yg0hE7+Rrt27Wq9oH379tFdHesxnkZHyUjqQjWLJN195W8sWLCg1guixuwGdDbjflAykhqpZpE0EuuAypWhL730EuFwOO7gsrIy/vvfKg8H5gG7Giy6RkDJSGpzBZDja//btc1NQQUj0oDeq/hg8uTJvPDCCzEHhcNhHnnkEWbMmOHvfr+BY0t7mUEHIMkrUrPoOaCZr/vCVTMnbQgoJJGG5AIXEfl+f++991izZg29e/emdevWlJWVsWjRIn7729/y9NNPV14UysxeTbh8AjoWaL9on5HEZVjORcBTvq7Jrm2OCSgckUT4CTEW5zRv3pzS0lL/vqKIEP3G3rq4dY+h/V3bLI2+TupOj+kkpjg1i+4PIhaRBHoZuDQjM6dKYikqKqqWiLLyWnDwKTfRusfQg9BxQPtNyUjiOQbfJkDBU01AAAAgAElEQVTgW2ByQLGIJIxhOU8des4DWa3zDyXmw6NQiKZDBnPoz+6jbe9RFb13GZZzQOKiTD86m07iUc0iaazuyG3enn7jbqNs9062b1zK0qYfQ3YGmb06k9mzE6HcbHbPD5FdUHlNU+Bhw3LGRarGyl5SMpJqDMvpDfzY11UA/DugcEQS7Y6KDzJzmpB7UC9yh+6sNmjtgSvoPas/ofLKB0yn4h22OikhUaYZPaaTWFSzSBolw3JOje5bMXBRzLElebvY2OOH6O4HRl7677Z45zgOwjvzTupAd0ZSRaRm0aW+LtUsksbkzeiOsuz4i+Q2d1tHyw1tyd3ehM1Lp7FuwXudtv2wcDWQFxlSjHe6w+vAP9Dy77iUjCTaxVStWfRf1zZXBBWMSKIYltMnum/Zod/UeE04FGZNl4WUTpzKxsWfVnTn+YbkAYdH/k0ALgTm1EvAaUbJSCpFahZFL1HV6dzSWMyI7ihuXvPT6fCOXay/+wnKN2yty+cfAswEjgM+24f40pqSkfiNA/xlLafjFRwTSWuG5TQF2vj71h64vNbrdjz7fpVE1KpVKy699FKGDx9O06ZNmT9/Ps899xzffFN5h5UFPI2XmHbUU/hpQclI/KrVLNIyVWkkqq2AK+i8scYLSuZ8x+6P51a2hw8fzmOPPUanTnuqUYwcOZLzzjuPP/zhDzz1VOVhJgcCfwKur4e404ZW0wkAhuUcivf4oMIawAkmGpHEiZw2Mtbft7VT7WcB7/50TwmJFi1a8Mgjj1RJRBWys7P5/e9/z4gRI/zd56Hj2KpQMpIKqlkkjdVvojvq8oiubOnayo8nTJhAt27d4o7NzMzk2mur/Ii1B3rsTZDpTslIMCynE3COr6sYeCygcEQS7c/+xu4mxYRDNT+dDu/cRdkPe+6eDj300BpGewYPHhzdNbzOETYCSkYCqlkkjZRhOSdH960YHHuTq19GadUnbJmZtVfjycqqNkWfE2tcY6Vk1MgZlpMLXBnVrdO5JV21AU7CW6zz013b1r8LVe+CSrPjP53OKc6l49LuHLjgMPJa7pkfmjt3btxrahhTbSl5Y6bVdPIzoKOv/a5rm18HFYxIAzEAG29JdaVZz11JVl4Lug836TLoVJYf+m31K8Mhmm9pSZsfOtJsS8vK7mYd+lC8bR0AkyZN4oorrqB9+/Yx3zwcDjNx4kR/VwHw/f59SelFd0aNmGoWSSOQC/wV+JSoRFShtLiQZZ89xYLX7mD7ztWV/ZklWbRb1Zk+Xw6k+9cHVklEAO36GJUfb968mWuvvZbCwsJqn7+8vJz77ruPjz/+2N/9X6JvyRo5lR1vxPJHTjgGuMXXtQi4ftXMSfohkXRxP95+niqTPHl5eZSWVj1zblfhBkpmL6H1iCPosKoHXZYcQLMtLcksjflrsrxJm+6vrF84ZVNZyc4eAMuXL+fll18mLy+PjIwMdu7cydSpU7ntttt46aWXKi8MZWSuJxwej7dQSCK0zr0RMyznZeAMX9dVrm0+ElQ8IvXsROD9ikZ2djY33HAD48ePp0ePHhQUFDBt2jT+8Ic/sGLFnuMXOw88hV5HXxbvc64HHgcedW1zJd4j7vlAh7oG1Xf0Dd+263PEANc2y/bha0pbSkaNVKRm0RL2fA8UAPmubRYFF5VIvckEvgN6AjRp0oRXXnmFAQMGVBu4fft2zj//fKZPn17ZN/Anf6ZFp77+YZ/hnV7/X9c2o0/e7gE8gbcwIq7cFh058ISraNl1AMAvXdt8cK+/qjSmOaPG62qq/jHyuBKRpJGDiSQigFtvvTVmIgJo1qwZ9957L02aNKns27pyDnhnxz0ODHVt8yjXNv8TIxEBrABGAxYwG4iuOfFd80593xty1j8rEhHAnw3Lyd+nryxNKRk1QpGaRT/3dZUBDwUUjkhDqDx7JxQKMWHChBoH9+zZkyOOOKKyvXHxpwuAbq5tXu7a5ld1eL8wMBEYhleC5TC8O6W2wIGDfvLnUzKzm3zkG98c0J2Rj5JR43QRVWsWvayaRZJmhlZ80Lt3b5o1a1brBQMHDqz8eGfB6jaubRbs43sX4+0h+gDYAhA5cPgXwC7fuB8blnNG9csbJyWjRkY1i6SR2FzxQUFBAeFw7QtEt2zZ4m/WfGT3PnBtcxHead1+D0WeVDR6SkaNz1jAX9FyBuAGFItIQ5lZ8cGmTZtYvrzmg0/D4TCzZs2KeX09+yuw0NfuStTZeI2VklHjo5pF0hh86W/ceeedNd4dvfzyy8yfPz/u9fUlsgDi8qjuKw3LObwh3i+VKBk1IoblDAGO93WpZpGkq/XAixWN9957j9///vcUF1ffZ/rWW29x2223RV9brdhefXFt81OqnoofAh43LCe7od4zFehsusYl+uifh+MsVRVJB1fhFYzsBPDEE08wZcoURo8eTb9+/VizZg1ffPEFU6dOjb7uchpgzijKzcB4oHOkPRC4Ebi7gd83aWnTayNhWE5HYCV7jq0vxtvk2tA/dCJBOhV4Ge+MurqYiLdfqMEZljMB390b8CpwRmN9bK7HdI1HdM2i/1MikkbgrfzDzr6oeccDaxu3BTiX6uVUGtJLwFvABrwy5I02EYHujBqFSM2i5UQeV0QMdG1zQUAhiSSMYTkvhMvLzlq/8AO2rVnAlpVfbSzbtb09sAlv1dxM4BG8OdREx9YF2K1ilkpGjYJhORcAz/i63nNtc3RQ8YgkimE5PfDqBlUcvV0EdHdtswTYico4JA0tYEhzkZpF0cu5VbNIGotrqFoq5wnXNrcGFYzEpzmj9HcUvqNRgMXA2wHFIpIwhuW0APy1IMLAAwGFI7VQMkp/1e6KXNssDyQSkcS6GGjla//PtU2V+k5SjeYxnWE5vwBOwJuonJqGq1YygNOAw/FOLD4oIyt31fIvnj2iZeeDadNzBIRCW6k6dySSliJnMEbvq7s3iFikbhpFMnr4vgkZzy8qu748nHkwMAH42rAcG295czo8P+4NPAUc4+8sL93Vc83sV1gDtOw6gB6Hnzdp/su3qGaRNAbj8X4uKszAK5AnSapRrKa7+2+X/PLVpafGmrTfDjwH2HWsWZJQkcUHLSL/1kdWAEU7HXgWqP2MfO/rPQd4rd6CFElChuVMBY72dZ3j2uZ/gopHatcoktGj95/5xYtLTh+1s7RJTcNcvEd4jmub1Q+wakCG5eTgnRl3Al4J466+f019Qzfg7YVYA6wpWr9k9bz/3nI9hCtrE7Vv355Ro0bRq1cvli5dyrRp09i4scre1gJgAAHsqRBJBMNyRuDdCVVYBfSO88ecJIm0T0bb3g51AlbuLM3LnrLqaF5fdgpLt/Ws6ZJNePXsH92Hyc6uePM1TYFZwBIg5mIBw3JaAT/Cu7P5EbCXNU3CLHzzzxSsmF3Zc/7553PbbbdVKSRWVFTEXXfdxXPPPee/+C1gHNpjIWnIsJzn8J4AVLjZtc2/BRWP1E1jSEa/Af5S0Q4TYuHmvryxbDQfrzmC0vK402Zh4B3ABt5ybbMszrgc4Da8Mt5dot8eeANvRdsGAMNyDgTuAs4E9vmU3qJ1i5n38i2V7TPPPJP774+/fejqq6/mlVde8XeNAqbv6/uLJCPDcroDS9kzH74Db5PrlvhXSTJI62S07e1QJt7dyQGxXt+6uyWTVxzPm8tGs3ZHx5o+1XK8I9+fcG1zna9/CN7qtCG1hLIhr3XXm4ee/cBwvNLDtS4caZWzjXZ5m2mXt4UmWcVs2dWKTcVt2VTcll1lOayd/zZLP3kCgNzcXGbNmkWrVq3ifr6CggKGDRvG7t2Vh3RfhfdYUiRtGJZzN96J2BUecm3zmqDikbpL92R0KvBmbePKwxnMXH8obywbzfR1wwjH/89Sglf/x/7isbNXh8tK5gDN6xrPwWN+Rdteo6r1N83ayWGdZmF0nkG/Notom1dAdkbsx9thQuwoacLl/8zg9Y8LARg2bBivvVb7moRx48bx1VeV6zSeBC6ta+wiyc6wnGZ4J9O3iXSFgb6ubS4JLiqpq3Rf2n1FXQZlhMo5rNMsDus0i3U7OvDW8pN5e/mJbN1dbRonGzibcPjsZu16bi9av6RycuaQQw7hpptuYujQoTRt2pR58+bx5JNP8s4771Re/P3Hj9GyS3+y8lqQm7mbk/I/5sgu0xjSbgFZGaV1+oJChGmWvYOCLXume7p161ana7t37+5PRgfU6SKR1HEhexIRwGtKRKkjbZPRtrdDPYCxe3tdp6YbuLjf85x38Et8+sMo3lh6CvM3H1JlzLqF7+NPRKeffjr33HMPOTl7KjQcccQRGIbB008/ze9+9zsASnZuZdnnT3HNxQM47+BJtM/bvK9fHv0PgE/meh9/++23dbrmm2++8Tfn7vObiyQZw3IyqH7aiDa5ppB0Pg7oMvbj68vOKOH4bp/yz6N+x8TjbmTcAe/SJMtb8b1l2czKcd27d+fuu++ukogqhEIhLrroIsaMGVPZV7zqU64dPHG/EhHAsL57HiUuXry41oS0cOFCvvvuO3/Xl/sVgEhyGQsc5GvPBqqVcJXklZbJaNvboWy81W31olfLFVwz+HH+M/pyrhn8OMWbFle+9tOf/pTmzeNPG4VCIS688MLKduH2cpat3f+YDu8PGZF8FA6Hue6669i1a1fMscXFxVx33XWEwxWP9kL0OvqynfsfhUjSuCGqfU8aHvmV1tIyGeHt3elc66i91CRrJyNavsvOom2VfYMGDar1uugxsxfHGbgXenWBa8097Xnz5jFmzBhmzJhBebm3tam8vJzp06czZswYFizYU0ev27Az6DzwFNuwnBo3XImkAsNyhgLH+bp+ACYFE43sq3SdM6rTwoV90SyvanvHjh21XrN9+/Yq7RZN4wzcS7eeH+Kd6WEWLvfaixcv5owzzqBFixaVJzAUFhZWuaZp2x50H/FTgA7Aq4blHOXaps6rk1R2fVT7Qdc2d8ccKUkr7e6MPnxmyPCtu1uc0FCfv0VTONC3eO3LL2ufepk9e3aV9qEH1k8sudnw/O9CDD2oan9hYSFz586tloj698ljwI+uJyOzcq/tEOCZyOSvSMqJlO3+ma9rJ/BoQOHIfki7X0KfrDHuPffdR/nnV1eyZGvv2i/YB0P77vn4P//5D8uWLYs7dteuXdxzzz2V7e4doUPr+oulTzd4/54Qt10QIjvOfW52Ftx+YYhP79/Frce9Ev3yT4A76i8ikYS6iqonmTzj2ub+rQ6SQKTVplfDcjLzMnf+UFzWpENFX/+23zK+1zsc3eWLOu/lqc3UOTDuN3vmRvv378+jjz5Kr169qowrLCzk17/+Na+//npl320XhPj12fUSRjXbtsNXS7x/i1eFOah7iEMP9O7EWvrO9H7i63OZtOR0/6VhYFgynlwuEo9hOU3xNrm29XUf4tpm3fY6SFJJt2Q0Hng11mttcgsYd8C7nNrzfdrm7f8xVTfZYR7zHXqQl5fHWWedxdChQ2nWrBlz587FcRx++OGHyjGHHgRT7g2Rlbnfb79fysMZ/H76r5m2bri/e7Jrm2PiXSOSbCIFMyf6ut50bXNcUPHI/km3ZHQIcBNwLpAXa0xmqIxjurqM7/UO/douIrSPB1fvKIaBv2jHxvUbax+MN9f0/j0h+iXJ+rVtu1tw0QcPsb2kymqKk1zb/CComETqKjLP+TVwsK/7RNc2pwQUkuyntEpGFQzLaQdcAlxJDcfeHNjqe37c6x2O7fYZuZnxF9+Ew95y7C8XwaxFYVauh44d2zBr1wS2rf2GjYs+rjGe44fBw9eF6N6hxmEJN2nJ6Tzx9bn+rlnASNc2Y5a9EEkWhuVEnzs5FzhUe4tSV1omowqG5WTi7cy+Bjgp3riWOYX8qOcHjDtgMh2bVL3TWbcFrn0gzFtfxLs6RLs+Br1ar6Zw/XIWrfKSV/cOMPQg+NGoEOeeDKEk/C+9qyyHS6Y8wMad7fzdqogpSc+wnPeBE31dF7m2+UxQ8cj+S8JfkQ3DsJx+eCtvLiTOSduhUJgjOs9gfK+3GdJ+Ae/NCHPZ38NsKYw1uqoDu2Xw/O1huneAnbvqd8VcQ3p3xfH886sr/V2fu7Z5ZFDxiNTGsJzBwBxf1zqgp2ubsY8gkZTQaJJRBcNyWuIlpKuBvvHGtWc+7z/1R3YW71mBl52dzYABA+jevTuLFi1iyZIllacdAAzsBR89ECInhbYSl4czuGTKA/ywvVNFVxjoElW3SSRpGJbzJHCxr+t21zbvCioeqR9pt8+oNq5tbnNt80GgH3AKXiXWqOfMYT55439VEtH48eP58ssveeONN5g4cSJTpkzhgw8+YMiQPXX15i+Fvz6XWo+sM0LlHNVlmr8rBJwWUDgiNTIspzPeAqUKxVRdUScpqtHdGcViWE4fwMIrNte6YOVXLHzjj5Wvm6bJfffdF/PakpISxo4dy9dffw1AZgYsfj5E+/hFV5PO7LV9sV7+GUUblrB9/Xfs3lGwrnDtN48AM4DP8MqniwTOsJw7gdt9XY+7tnl5UPFI/VEy8olUijxn2efP3PXDnNc7AbRq1QrXdWnZslqhvUpz587l1FNPrWz/964QJ49o8HDrxefz4Yp/hms6SXwdcDlQeylZkQZkWE4TYAXQ3tc9wLXNrwMKSepRCs1uNDzXNrcDjwPjgXEAI0aMqDERgXcqd7t27di0aRMAsxaR9MkoHIbbnwzzwH+9j2vQCW8j8b/xynLErocu0vDOpWoiekeJKH00ujmjOqrcSNe7d+3n24VCIfr06VPZXrwq+eeNnnsP7neqJqKWLVty1FFHcdxxx9GuXbvoSy4AfpPAEEUqGZYTovrp3PfEGiupSXdGsX1LpGrk999/X+vgcDhcpYrqQd2T++nnqg1w86N7slBubi4333wzl156KZmZ3llF4XAYx3G4/fbb/ad/3w68DugMO0m00UB/X3s+8H5AsUgD0J1RbJV1xWfOnMnWrVtrHDxv3rzKR3QAw+IuGE8Odz8XptBXhmnixIlcfvnllYkIvLu9n/70p7z44ov+/izgr4mMVSQi+q7oPp22kF6UjGJzKz7YunUrd9wRv8JCSUkJN954Y2U7M4Nq9YWSzfSFez4+7bTTOPnkk+OOHTx4MD//eZUK7qPQ940kkGE5A/C2YVTYADwXUDjSQPRLJbb3gMkVDcdxsCyLzZurlklZvHgxp59+OgsX7vntfuNZJPWy7u074duVe9onnnhi/MERJ5xQpVZhK6BPnKEiDeG6qPYjrm0WBxKJNBjNGcUWxls5Nh/vly+vv/4677zzDv369aNHjx4sWrSIxYsXE/atABjYC359TnLPFy1ZU3XRgn/hRTwxxhwCLK7PuERiMSynI3C+r2sXYAcUjjQg3RnFtwo4G6icDCopKWHu3Lm88cYbLFq0qEoi6psPT92S/EcB9ela9dDWuizQiB7TsuuAH+IMFalvVwC5vvZzOqoqPSkZ1extYABxCvaB94v9l2fCpw+FODg/cYHtq+ZN4KDue9offvhhrdd89NFHlR9nZjeh//g7PjIsZ2LkwEqRBmFYTh7e4cZ+sY9CkZSX3M+UkkcIGJaV2/zotr1H3btr2zqatu3BwD5Z/P201+ndNejw9o51T5jn3tvTfvbZZznuuONijl2wYAFjx46ltNQ7p69V90H0P63Kgo7PgIeBl3VqstQnw3IuBp70db3n2ubooOKRhqVktBciG+8KgWYAvVouZ+JxNwUb1D5YsQ5GWWG27/TaTZo04bbbbuP8888nI8O7WQ6Hw7z22mv89re/paCgAIBQKINBZ95Nsw4xNwKvB/4FPOra5opEfB2SviI/a3OAQb7uU13bfDugkKSBKRntJcNyFhHZENsip4iXxlyyz6XLg/TU217RQL/27dszaNAgcnJymDt3Lj/8UHVq6NIz2tFh2Pm7P1ljZJbj25RUVTnexthHgPdVNVb2hWE5J+Gtaq2wEBio76f0Fe8XisSRP3LCWOBAgN1lORzVZRptcmveFJuMDj0QCopg5rd7+nbs2MGyZcv47rvvKCoqqjLePBbuv6qY47pPyzyt17sZLXOKWLatR3FxWV70ko0Q3mq784Fz8kdOyMofOeHbVTMnaSmu1Fn+yAkPEvmjL+I21zZnxhsvqU/JaC/lj5zQHhhT0W6bt4XB7VLvrMZQCE4eEcIYGOKTubBtR+xx7VrCxBtD/ObcEJmR5S55mbsY0PYbftLnzayD23xHwa4Wu9fu6JQZ40a7Hd5mxV/mj5zQO3/khNWrZk7SSjypUaQqs3+hwibgolUzJ5XGuUTSgB7T7SXDcnoBlWudD2z1PQ8fe3OAEe29HcUw5zuYvRg2bQ3TvG0X/v3NT9hduJGiDd/RMnMzE0Z+z9C+IY4cCG1a1P45f9jeiTeWjebN5SeX7Cxtkl3D0Gl4j/AmaeOixGJYzkTgF76uP7q2+bug4pHEUDLaB4blzAEqlzU/e/IVdGiyqYYrkkPRTvjdE2GeegvKY0xzNWndlT7HX8ltp3zMqT337QzKXWU5TF1zBC9/d+ru77f1yqlh6CbgCWCia5tL9+nNJO0YltMer2ZRk0hXCdDTtU3dUac5PabbB/kjJ3QFjq1ot2+yif5tFwUYUe0+mw+n/zbMR7Or1VivVFpcyPpvPqRN5mqOP7Ss8rHc3sjKKKNPq2WMO+C9zFGdZlNanhleXphfHiYj+rM1BY7Ee4R3WP7ICQX5Iyd8v2rmpNRbDSL1Jn/khOupeg7ds65tPhtUPJI4ujPaB4blDAO+rGi3yS3g6ZOuJi8zObfZLF/rLeXeEfVQrEmTJrRq1Yq1a6uXeb3xLLjjovr59ijc3Zx3Vx7PK9//qGT9zg41PcJbCkwEnnRtc2O9vLmkDMNycoFlQGdf96Gubc4JJiJJJCWjfRDZA/E5cHhF3wWHvMi5fZ3ggoqjPAzjbg7z6bw9fYcffjh33HEH/fv3JzMzk02bNvHiiy/yj3/8g927dwOQEYL37w0x4uA4n3gfhMMhvtwwhFeXjimfvm5YRg3ffruASXibaaerVEDjYFjOBcAzvq4prm3WfpKvpAUlo31kWM7RwNSKdpOsYp4+8WpaJ9ky7/98AL/4x57f5WeddRZ///vfKze3+s2dO5fx48dXnrYwqDd89nDDfIus29GBt5afzJvLTiorLGlR0+PiWXgLHv7j2macNX+S6iJ/4M0CDvV1n+ba5hsBhSQJpjmjfbRq5qQV+SMnDCdSory0PIvd5Tkc1ml2wJFV9fD/wsyLrP3r2rUrTz/9NLm5uTHHdurUCYDPP/8cgPVb4BfjQzSJPXy/NM/ewdAO8zijz1sZ+c1Xs6m4TfnG4naxMl8XYDxwVf7ICZ0i80qbY4yTFJY/csJxVC1rvwi4TnOIjYcOSt0/t+CdOADA68tOYeb6Q2sYnnizfYUeRo8eTfPmzWsc/5Of/KRK+6slDRHVHtkZJZzQ/RPuP/q3GY8c+yt+1PN9sjN2x9pl3xqv2uciw3ImG5bzY8NykvyMdNkLN0S179NpC42LktF+cG1zAfB0RTscDvHnL69nVVFynJy6qwS+9Z0S179//1qvyc/Pr5Kw5n7XEJHF1qfVMq4b8igvnHJ5hjXwKbo1WxPvl9Fo4BXge8NybjUsp1PiopT6ZlhOX2Ccr2sL8O+AwpGAKBntv5vxVgABsL2kKbdP+w1FJc2CiygiJwvattzTXr9+fa3XFBUVsX379sr2F1tPZfaGwYQTOL3YPHs7p/d+iydOvC7j7iP+wJFdphGKuTOKfOBPwErDcp43LOeoyNyDpJZrqTp/PdG1ze3xBkt60pzRflo1c9KO/JETpuCdxZYDUFjSgiVbe3Nct8/JCAX3pCEUgqlz4Ps1XjsrK4szzzyzxmtc1+Xll1+ubDc79Go+3jiOj1YfRXk4RH7zNeRkljRk2JVCQJem6zm22+eM6fFhqEl2MSsLu5UXl+VFJ5xMvNOdLwHOyB85IRw5D293QgKVfWZYTlu8u6CKJf+lwLmrZk4qDC4qCYKSUT1YNXPS+vyRE74GziLyF94POzoxb1N/RnX+krzM4H4nLlkNn0WWdS9fvpwBAwZw4IEHxhy7a9cuLrvsMjZv9tYHZGbncYBxIYRCbNvdgpnrh/Lq0lNZt7MjHZpspG1eQaK+DJpm72RI+wWc0futUK+WKynY1Yr1OzvEGtoJ75HPNfkjJ3TNHzlh2aqZk7RnKUnlj5xwLfAjX9fzrm0+E2+8pC890qhHhuXcAvzZ39ep6QbuPOxuerUMpsTP6o0hhl2eyc6d3t1Mq1at+Nvf/sbYsWOrjFu3bh033nhjlaqu3YebxfmH/Swv3ufu12YRp/WazNFdXXIyEnO35LessAdvLB3NeyuPDce4W/L7EG95+KuubSY+UInJsJxsvI3O3Xzdw13bnBVQSBIgJaN6FJmveAS4wt/fJKuYm4c9gNF5RkLj2VWWw71zLCZ9UMaSKQ9WeW3kyJGMGDGCNm3asGDBAj788EO2bdvmH/Jl39E3nNiuzxFn4pV+HhbvfVrlFDKm5weM7fkunZpuaJCvpSY7S5vwwaqjeW3pGJYX1lj7fQ3wGPC4a5trEhOdxGNYzjnAc76uqa5tHhtvvKQ3JaN6FklI1wL/JGqByDFdXS7u9zxdm1U/fqc+hcMhPlpzJE8vPJu1OzoCYb778BHWf/NhXT/FWuBE4Guo/JpG4iWls4CYO49ChDms0yxO6zWZER2+IhRK7BaRMCHmb+rH68tO4ZM1oygPx30KXQr8D+8Ph491wkPiRb6nZgDDfd2nu7b5akAhScCUjBqIYTmnAC8Crfz9maEyxh7wHuf2dRrktIbZGwfxrwXnsWRrdGnwMGvnvzNv6SdPdAfa1PApngd+iXeqdjWRU5UvBiygV7xP0qXpOsb1epfR+R/SMifxc9Gbi9vw9ooTeXPZSWwqbrrSIQ8AABWTSURBVFfT0K/xktL/uba5raaBUn+iTzABvgMOdm2zLKCQJGBKRg3IsJyD8UpwHxT9WpOsYsb0mMIRXaYxoO23ZIb2/Wdw6+4WTFs3nCkrj2H2xkHxhj0I3ODaZge8lX/DI/86ALOBmXhlnifX5T0Ny8nAKzJ4JXAqcb6XcjJKOK7bZ5zWazJ9WzfwDtoYysKZfLF2BK8vPaWm/zYA24H/Ax5xbXNeTQNl/xmW8z/gdF/XNa5tPhRUPBI8JaMGZlhOC7xjTq5nT42WKlrmFDKq05cYnWfQv+0iWuVsq3FJ+K6yHNbt6MCM9UNx145k/uZ+hMNx/1cuAG52bfPNOK+HiF9Vok4iBQevAC7Fq+4aU9/W33Far3c4tuvn5AawwnBlUTfeXDaaySuOZUdpjfvAPsG7W3rZtU0tD69nhuX0ARaz5/dPAZDv2mZR/Ksk3SkZJYhhOd2A3+Pthalxs3FGqJy2uQW0zdtMu7wtNM3ayeZdrdlU3JbNxW3quqF2NfA74N+JevRhWE4e8FO8uaVR8cY1z97OKT2mMO6Adxt8/iyW4rJcPlx1NK8tPYXvtx1Q09D1wOPAo65trkxIcI2AYTn34z0KrvA31zZTq1yy1DslowQzLKc/3qkB42mYEzA2Av8AHnBtc2cDfP46MSxnON680jnEuSMEGNHxK047YDKHdZqV8A3CYUIs3NyX15edwtTVh1MajltqqRx4De9u6QOdmbbvDMtpDawCKv6iKgN6KdmLklFAIgsBxuI9Nz+FGn5h18H3wKt457V97tpm6f5HWD8My2kDXIg3t1Rt7qxCxyYbGHvAe4zpMSWQMhwFu1oxecXxvLFsdLzNtBUWATbwjGubWxITXfowLOcm4O++rhdc2zw7qHgkeSgZJQHDcpoCJwEn4J231jXyrwt7jkkB2Iq3V6bi3zd4f7EvSPblyZEFDyfiJaW4d4VZGaUc09XltAMm06/tIkL7N52118rDGUxfN6wuJ7DvxNsj84hrm8lVNyRJRU5Z/x7ve7zCKNc2pwcUkiQRJaMkFvkF3g5oAaxLl8MjDcvpAVwOXAZ0jDeuT6tlnHbAZI7v/kkgJd3XbO/MG8tGM3nFCbXN032B9wjvJdc2i2sa2JgZlnMW8IKv6zPXNo8KKh5JLkpGEhjDcnKAM/HuluL+UmqWvYPR+R8x7oDJdG+e+IMTdpXl8PHqI3lt2RgWF0Tv36piI/AE3oKHpYmJLjVENrl+ARzm6z7Ttc2X41wijYySkSQFw3IG4y14OJ89k9vVDG0/j9N6TebwzjP3a2/WvlpUcCCvLz2FD1cfSUl53AUPYeBNvLulyVrwAIblHAF85utaChykTa5SQclIkophOa3wEtKVQL9449rnbebUA97jRz0+oG1e4tcRbNvdgndXHs8bS0fzw44aa/t9D0wEnnRtM+apFo2BYTkvAaav6zrXNu8PKh5JPkpGkpQij3WOw0tKZxCn3ElmqIyjuk7jtAMmM7DdwoQveAiHQ3y5YQivLR3DtHXDqOFHahfefMkjjW3CPrIpegl7Fq1sA7q7tqmaRVJJyUiSXmTD8M+BX+CtMIypZ4uVnNZrMid1n0qTrMRvsVq3owNvLh/NO8tPZOvuFjUNnYn3CO+FIPeCJYphOffgnUBS4Z7/b+9eo6Oo0zyOfzvdkIRLIIRcgIR0QEEFEUSRkpsKEoK0OmOLO+o64zgi7ejMzmVXd8/u6h7X0TPrLjhz2D6Ol8VR1z1Q43gICM1NAaVRQBC5G82FAAESIxAg5Nb7opKmg+kGMel0kt/nHA6p6qernrygH6r6qefv97p/0175SGxSMZIOo3H9mzuwrpZuDheX6KhmWuY6XDk+sntH/1nKmoZubDhkkF+Yy57KYZFCK4HXsJbZjv7gvigwPGYS1kOuTdW5ARji97qL2y8riUUqRtIhNU6y8GA9UBv2MmRUym5cOT5uzPgER1z0nwUuOD6EpUXTWVs6ibP13SOF+rCulpZ1pi/1DY/5K+C/QnYt9nvds9srH4ldKkbSoRkesxdwH9Y8vLBjuZPjv2Fm9mpmZq+mf2L0+wiqanuy6sAUlhbNoLQq7J1GgBKshodX/V730ehk1zYaH3ItALJDd/u97k3tlJLEMBUj6RQaGx4mYN3Cc9N8ckVQnK0BI2Mzrhwfo/vvjH7DAza2H7ua/KJcNpZdH2naeg2wGOtqyR/rEzZaYnhMN9bv0GST3+s22isfiW0qRtLpGB4zA2s5i0doPnqmmcxeh3A5fUzLWkevbtEfbnHsTArvFd/K8uJpVJ7tEyn0M6yi9FZHmsJheMyPgBtDdt3j97oXtVc+EttUjKTTarxNdBvWLbxbw8XF288yNXMDrhwfQ5KKopVeUF2Dg48Oj2NJ0Qx2VoR9tAqsluiFgNfvde+NSnKXyPCYN2BNXGhSAgyNpSG+EltUjKRLMDzmMKwFAB8E+oaLu6rfPm53rmDiwI/pFlcbtfyaFJ4YzNKiXNaUTuZMXUKk0LXAAmBJLH7AGx7z/4B7Qnb91u91/2d75SOxT8VIupTGCek/wrpaGhMurk/3E+Rlr+E25yrSEo9FLb8mp+sSWX1gCvlFuZSczIwUehB4CXjF73Ufjk52kTUOwv2Kcw8qV2E95Br9tUGkw1Axki6pseFhHFZRugdose/aZgswPn0rs5w+xqZ+hs0W/YaHzyuuJL9wBh8dHkd9oMVBFAB1wDtY3y2tb8+GB8Nj/gfw25BdL/q97r9rr3ykY1Axki7P8JipWLfvPIAzXNyAnkdwOX1Mz3qf3t2ropVeUEV1MiuKp7KseDoV1cmRQndhFaU3/V73iehkZzE8Zm/gANDUkdGANRD1q2jmIR2PipFII8Nj2oEZWO3heYT599E9rpabMj/E5fQxrO+X0UwRgLoGO5uOXE9+YS7by0dGCq0C3sCah7czGrkZHvMXQOgA1Hf8Xvdd0Ti3dGwqRiItMDzmEKyGh4eAfuHihicX4HL6mDxwI/H2mqjl16Tk5CCWFuWy6sBNnK6LuHL9eqyrpb/6ve42SbSxmO8HQhd9muT3uj9si/NJ56JiJBKB4TETgbuxrpZuCBfXu3sVMwav5TbnSgb0OBK1/JqcqUvg/YMTWVI4g8IT2ZFCy4CXgT/5ve7S1szB8Jg/wPreqslmrGXFO9wDuxJ9KkYiF8nwmGOxitK9QIt91zYCXJe2ndtzVnBd2nbibNFdVy+Ajd1fDye/KJcNhwzqGsI2PNQDS7Daw9e2RsEwPOZ6YFLIrnv9Xvfb3/e40jWoGIl8R4bH7Af8BKvh4bJwcek9jjHLuZLcwWvp0z2qfQQAVJ7tw4qSqSwrms6xMymRQvcBXuB1v9f9zUUcOhHr9x8HXAcMiXMklKQOm3RF74wr6H/5RGxx9lKs6dzRf1hLOiQVI5FLZHjMOGAa1tWSi3OLxzXjiKtjysCNuHJ8XJH8RdTn4TUE4vj4yLXkF85g67FrIoWeBt7CanjYHiZmPPA6EHZtjF7pl5M59u4X9r73u7+/5KSly1ExEmkFhsfMBuYADwOp4eIu61PILKePWzI/JN5+Nmr5NTl4agDLiqbjK7mZqtqekUL9WLfwTL/X3ZToY1idci0W3fOcxXq4+K/fJ1/pOlSMRFqR4THjgbuwrpYmhIvr1e0Ut2Z9wCynj8xe0R+ccLY+ng8OTmBJYS4Fx4dECj0GvLp/1bx1FQUfLSFkGvqwYcOYMGECWVlZFBQUsH79ekpLm/VEVAIjgJiYDCGxTcVIpI0YHvMarKJ0P9AjXNy1qTtw5fi4IX0rdlt019ULYGN/5VCWFM1g3cEbqW349sobgYY6dphPcLrCWpw1Li6OJ598kjlz5uBwOIJx1dXVPP/887zyyiuhb18K3A5RvjcpHY6KkUgbMzxmH+ABrMJ0Rbi41MQKbsteyYzsNSTHR3+M2/Ga3qwsuZmlRbmUnU4L7q8s3sre954Lbj/++OM88cQTYY/z2GOP8e6774buGok1FUIkLBUjkShpnId3M1ZRupNzg0SbccTVM3HAJlxOHyNS9rZLw8OWo6PJL8pl85ExlGxeTOkWaxmilJQUNm/eTPfu4ZdQr6ioYPTo0QQCwbx/DPy5zROXDk3FSKQdGB5zEFbDwxwgI1xcTlIJLqePWzI3kOg4E7X8mpSdTuPOf3awe89BAKZNm8bChQsv+L5bbrmF/fv3N23+EfhFW+UoncPFdMWISCvze90H/V73U8BgYDbwQUtxhScG84cdD/OjlS+x4POHLrScRKvL6HGUbrUHg9upqWEbBZtJS0sL3RzYullJZ6QrI5EYYXjMEVgP0j4A9A4XN6r/LlxOHzdmfIIjru0bHn4+L8AbK62fr7nmGpYtWxYxPhAIMGrUKCorK60dtrh/JdDwTBunKR2cipFIjGlchuF+rO+Wwo7l7pdQyczs1eRlr6Z/wtdtls/LS+E3C6zvfxwOBytXrmTYsLDPvLJu3Truu+++4PbwGf9wtF/OuHnAq36vO/orFUqHoGIkEqMaGx4mYhUlN+BoKS7O1sCEAZ/gcvoY1X9Xqzc87C2B8XMDNDQedtSoUSxevJiePb/90Gx5eTl5eXkcPmw9WhTXLZ6xf/sSjvheADXAIqzp4Zs0QFVCqRiJdACGx8wAfgY8AoT94mhw74O4nCuYmrment1Ot9r5/+XVAC+aIecZPJhnn30WwzBISEigqqqK1atX89RTT1FRURGMGzJ5Dukjprd0yG1YReltv9d9qtUSlQ5LxUikAzE8pgNrDt6jWHPxWpRgP8vUrPW4nD5ykoq/93mra2Dy4wH2ljTfb7fbycjI4NChQ6Gt3ACMviqZ63/wa3Z+fWWkQx8HFmLNw9sfKVA6NxUjkQ7K8JjDsRYAfJBzy3x/y8h+e5mV42PSgE044uou+XxFZXD3s33YV3Dhwd6zDPjDL2307wNfnXCytGg6aw5Mpro+PtLbVmNdLeX7ve5LT1Q6JBUjkQ7O8Jg9sYaS/hwYHS6ub/xx8rLXMDN7FWmJ5Rc8bskR+GgnfLo/wOdfQUqSjUL7TI5V1HJs/zoa6r496LVfEvx+ro27bwLbeZ8up2p7sLp0CvmFuRyoGhTp1KXAS8Arfq+77IKJSqegYiTSSTQ2PNyAVZRmAy2OSbDZAoxP34Irx8e1/XdgszW/vVZXDy+a8Ls3A9SGuT7pmeJkzKTJ3ON8g8JDAa7MtjH6crhsENgv8PRiABs7ykewpDCXjWXjaAiEfUMd8Bes6eEfquGhc1MxEumEDI+ZCvwU67mlsOuQD+p5mFnOlUwf/D69up3iSCX8zb8F2Lrvwuew22089zDMvePS8yyv7sfy4mm8VzyNr6uTI4XuxLqF96bf6z556WeUWKViJNKJGR7TDuRhNTzMIMy/+Xh7DVMGfsjaxQvZsO1cF57NZuPyyy/nqquuorKyku3bt3P8+PGQ12H5723cGPZpqItT12BnY9k48oty2VE+IlLoSaw5d16/163hq52IipFIF2F4zKFYDQ8/Bfqd//rRve/z5fsLgttDhw5l/vz5jBkzJrivpqaGefPmsWDBAhoaGgDIGQD+/7bRI6F18iw+mcXSoumsOjCFM3WJkUI/AB71e917WufM0p5anBosIp1P6ZZFlaVbFq3Kun72H4EvgEGNf4AAe5Y+E2xKSE1NZfny5eTk5DQ7ht1uZ+LEifTs2ZN169YB8E0V9EuyMS5iB/fF6xt/gnHp27gjZwVpieUcOZ3KNzUtNgsOBP69dMui1nugStqNroxEujDDY14PeKqPl9277X8fC/ZdL1iwgDvuCP9lUH19PTNnzmTXLutO2Q8nw8J/bJuPkwA2dlVcQX5RLhsOjac+YP0feljfgm2vP/fktW1yUom6FseLiEjX4Pe6NwOb43unfQQEl2idMmVKxPfZ7XYmTZoULEbbvmi7HG0EGJmyh5Epe5g7si/Li6eyrPhWxvT//LXX2+60EmUqRiLC2ZNHg2sqJScn07dv3wu+J/QWXlEZ1NZBtzb+REmO/4Z7h/2F2Ze9W7SxbJy3bc8m0aT1jEQEYG/TD5WVlc3my4VTUFAQ/DkjrQcNtojTFVqVI67+1VkPbWz79TMkalSMRARgS+jGmjVrIgbX1dUFGxgAapPGcu/Kl/jTrh9z8NSAtsnwnAaseXbSiaiBQUTA+iwopXFV1r59+7J27drzV2wNmj9/Pi+88EJwO2fSQ2SMzAtuj039DFfOCm5I/5Q4W0Nr57o8KS8ws7UPKu1Lrd0i0qQUuBugurqa/Px8hg8fTnb2uQEOp06d4umnn8brPfd1TWJyJkOmzMUWd+7j5PDpDD44OJFVB27mbEM8mb0Okej49iy7S/RPz73F7tY6mMQGXRmJSKhFNBakJunp6YwcOZLy8nJ2795NbW1t6Mv1mdfPfjzrutnTgDsI8x9cR1w9kwb6cTl9XNVv3/dZALAcGJSUF6i51ANIbFIxEpFQKTZ7t3cC9bWTLyL2NPAY8D8AhsfMBOY0/kkP96YhSUW4cnzcPOhDEh3V3zW/eUl5gV9/1zdJ7FMxEpFmxs9d9NTR3aueLvL/mYbasLfWNmCto/Tl+S8YHrM7cCfW9PCwRa2H4wy3Zn2AK8dHVq+DF5veyKS8gGbSdUIqRiISZHjMBKAYSKs9c4KqI/so2vj6S9XHywYBR7G67rY2/n3BzgTDY47Emhz+ANArXNzo/jtx5fgYn74ZR1zYju2Pk/IC47/bbyQdhYqRiAQZHvNB4LWQXav8Xvf0VjhuEnA/1vTwsGO5UxIquS17JXnZa+iXUHn+y3OS8gIvf99cJDapGIkIEFyc7zPg6pDdeX6ve0Urn2MS1i28HxJmCozdVs+EAZ/gylnB1Sl7sBE4DQxIygucaK1cJLaoGIkIAIbHnAasCtm1BxjRViusGh5zAPAz4BGC08O/bXDvUlzOFWvvf3TF1LbIQ2KDJjCISJNfnbc9vy2X+vZ73Yf9XvczgBO4C2hx7EPJyUw+PTZqQ1vlIbFBV0YiguExr4RmD5JWAFl+r/tMlPO4Aqvh4SdAUuPuI8Bgv9etZ4s6MV0ZiQjAL8/b9ka7EAH4ve69fq/7l1hjiR4BdgAvqxB1froyEuniDI/ZHzgANC0cXgNk+73usvbLytLY8NBNxajz03pGInIT0D1k++1YKEQAjd9ZqRB1AbpNJ9LF+b1uExgKzANONP4tIiLSPgyP2aO9cxAREREREREREREREREREREREREREREREREREREREREREREREREREREREREREREREREREREREREREREREREREREREREREREREREREREREREREREREREREREREREREREREREREREREREREREREREREREREREREZGu6f8BADDvnqWLsTYAAAAASUVORK5CYII=;" vertex="1" parent="1">
          <mxGeometry x="640.4778619153675" y="285.6279289940828" width="206.33650774749051" height="229.9741029071076" as="geometry" />
        </mxCell>
        <mxCell id="UGAgcFjpy74Iv2Mi5U0g-5" value="" style="shape=image;verticalLabelPosition=bottom;labelBackgroundColor=default;verticalAlign=top;aspect=fixed;imageAspect=0;image=data:image/png,iVBORw0KGgoAAAANSUhEUgAAAYgAAAHTCAYAAAA9Co8SAAABgWlDQ1BzUkdCIElFQzYxOTY2LTIuMQAAKJF1kbtLA0EQh788fOCDCLGwsAgarRKJCqKNYESiECTECL6a5MxDyMXjLiJiK9gGFEQbX4X+BdoK1oKgKIJYa6too+GcM4GImF1259vfzgyzs2CPZRXVcAZAzeX1aCjomZmd89S94MQts5PauGJoI5FImKrj4w6bZW/8Vq7qfv+OxsWkoYCtXnhY0fS88LhweDWvWbwt3Kpk4ovCp8I+XQoUvrX0RImfLU6X+MtiPRYdBXuLsCf9ixO/WMnoqrC8HK+aXVHK9VgvaUrmpqfEdshqxyBKiCAeJhhjlAF6GZJ9AD999MiJKvGBn/hJliVWkV1jDZ0l0mTI4xN1RbInxaZET8rMsmb1/29fjVR/Xyl7UxBqnkzzrQvqtqBYMM3PQ9MsHoHjES5ylfjlAxh8F71Q0bz74NqAs8uKltiB801oe9DievxHcsiyp1LwegLNs+C+hob5Us/K9xzfQ2xdvuoKdvegW/xdC981XmfPSMCHKQAAAAlwSFlzAAAuIwAALiMBeKU/dgAAIABJREFUeJzt3Xu8XNP5x/FPLpObIIkIQqhUQ4lrG8kW1VKqlCrZ2jpupUg2hsZdi6oWRZA62BGXqsuU2n5ad0qrit1EFHELRQiNSCWRqySTk/z+WHty9pkzZ85JMrPXXL7v18vrlb1mzZkH5+Q5a+/1PAtEREREREREREREREREREREREREREREREREREREREREREREREREREREREREREREREREREREREREREREREREREREREREREREREREREREREREREREREREREREREREREREREREREREREREREREREREREREREREREREREREREREREREREREREREREREREREREREREREREREREREREREREREREREREREREREREREREREREREREREREREREREREREREREREREREREREREREREREREREREREREREREREREREREREREREREREREREREREREREREREREREREREREREREREREREREREREREREREREREREREREaonjBZ1txyAiAqC/jCrP1Y4X/Mnxgi1tByIi9a2T7QCkmeMF2wNTgS7AF8BlwLjQd5daDUxE6pISRIVwvKAT8Ffg23kvTQfGAg+Gvrsq8cBEpG7pFlPl6AKEwLK88a2BPwOPOV6wbeJRiUjd0gqiwjheMBi4Fvh+gZezwHjg16HvLkw0MBGpO0oQFcrxgu8CvwOGFHj5E+Ac4G7ddhKRclGCqGCOF3QDfgZcCPQuMOV5IB367suJBiYidUEJogo4XjAQuAI4qsDLK4GJwAWh785JNDARqWlKEFXE8YKRwPXALgVengtcAEwMfbcp0cBEpCYpQVQZxwu6ACcClwL9Ckx5BXPb6blEAxORmqMEUaUcL9gI+DUwmsLble8Gzgl9d2aigYlIzVCCqHKOF+wKNAIjC7y8CJNExoe+uzzRwESk6ilB1ICoCrsBuArYrMCUd4DTQ999PNHARKSqKUHUEMcL1sc8qB4LpApMeRAYG/ru+4kGJiJVSQmiBkUtOcYD3y3w8jLMSuPy0HeXJBqYiFQVJYgaFd12OhjTtmNwgSkfAWcCgaqxRaQQJYga53hBD+As4OdAzwJT/o7ZFvtGooGJSMVTgqgT0QFE44DDC7zchCnAuzj03c8TDUxEKpYSRJ1xvGAf4DpghwIv/w84H/h96LsrEw1MRCqOEkQdcrwgBZwM/ArYsMCUF4FTQ9+dnGhgIlJRlCDqmOMFA4DLgePbmPJ74PzQdz9NLioRqRRKEILjBbtjqrF3L/DyAuCXwA2h72YTDUxErFKCEAAcL+gMHAv8FhhQYMobwGmh7/4t0cBExBolCGnB8YI+mBVDGnNOdr4AODP03RmJBiYiiVOCkIIcL9gBs9tpnwIvf4F5dnFV6LtLEw1MRBKjBCFtiqqxRwHXAIMKTJmO6fv0oKqxRWqPEoS0y/GCXsB5wDlA9wJTnsB0i3070cBEpKyUIKTDHC8YjFlNHFLg5SymQeCvQ99dmGhgIlIWShCyxhwv+C7wO2BIgZc/waw07tZtJ5HqpgQha8Xxgm7A6cBFQO8CU57HNAF8OdHARKRklCBknTheMBC4AjiqwMurgJuAC0LfnZNoYCKyzpQgpCQcLxiJ6Qi7S4GX52JOupsY+m5TooGJyFpTgpCScbygC3AicCnQr8CUVzC3nZ5LNDARWStKEFJyjhdsBPwaGA10LjDlbuDc0Hf/mze+AXAk8PXon4HAVGAK5mCjJzC3rUQkAUoQUjaOF+yCaQK4Z4GXF2OSyPjQd5cB3wZuA7Ys8iXvBzzMuRUiUmaFfrsTKYnQd18B9sI8wP4k7+X1MI0BX+s94CsZ4CmKJwcwVd1vYFYXIlJmWkFIIhwvWB/4BXAGkMqNz/94Km8+dEmLudtttx3Dhw9nwIABTJs2jWeffZb58+fHp0wDdsP0hBKRMlGCkEQ5XjAEU3F9QNPyJbxy7xksX/QZAN27d+eiiy7i6KOPpnPn5sXtZ599xrnnnssTTzwR/1JXA2clGLpI3VGCkMRFTQAPmvnKX277MLyzf278sssu45hjjin4nhUrVnDIIYfw6quv5oZWYh5qLy53vCL1SglCrOnUqcsdq1Y1HQ3mttKTTz7ZYuWQ75VXXuGggw6KD+2JqdgWkTLQQ2qxZtWqpl1zfx4xYkTR5AAwdOhQevbsGR/Sw2qRMlKCEJu2yP1h0003bXdy165dGTCgxWmohc6oEJESUYIQm1Y/UHjrrbfanbxw4UJmzGhx0ukrZYhJRCJKEGLTlNwfnn32WebOnVt08sMPP8yqVc2F1F/Zb+xAxwv0PSxSJvrhEpueyf1h3rx5nH/++TQ1Fe7lN2PGDC65pLleoluvvvT/8h5XAC85XrBfuQMVqUdKEGLTI8CDqy8eeYTDDjuM1157jZUrVwKwePFi7rnnHvbff38WLmw+qG7wN0dDp05gusc+6XjBk44X7IqIlIy2uYptm2LaZ7To/tq7d2823nhjPvjggxa3lQD6DR4xb9v9z+rbxte7C7gw9N0PyhGsSD3RCkJsmwUcmOq54YL44KJFi5g+fXqr5ADcsXT+rMHAscBHBb7eUcDbjhdc7XhBoZbjItJBWkGIdY4XDGzKLpv+0aS7u33y2mO00dF7FqZ9+IOx9/UA0sDPgT4F3vM5cDnQGPqu+jaJrCElCLHO8YLfAucCNC3/grkfTHno3ad/9w9gc8xW2CmYBn0Fn2BHK4WfY5JFtwJTPsKcnX2nTrQT6TglCLHK8YINMH+BbxANrQK2C333nbX4Wlthzpg4isLf269hEtHjoe/q4CGRdugZhNh2Es3JAeCBtUkOAKHvfhj67jGYVuBPFpiyI/Ao8LTjBWrTIdIOrSDEGscLugHvY24l5YwIfXdSib7+vsCVQFvbX+8BfhH67vul+DyRWqMVhNh0BC2Tw7OlSg4Aoe8+hWnodxTwQYEpPwamOV4w3vGC/gVeF6lrWkGIFVGLjKnADrHhg0LffaRMn9cdOBm4gLyai8gC4ArMGdlLyhGDSLVRghArHC/4HvBwbOgNYKfQd1eW+XP7AOcBpwM9CkyZidnxdLt2PEm9U4IQKxwv+AewV2zouNB3b0/w8wcBl2AK7gr9HLyJ2fH0iHY8Sb1SgpDEOV4wAghjQzOBrUPfXW4hlh2B3wIHtjHlWeCcUj4bEakWShCSOMcL7gcOiw2dHfruOFvxADhesDdmx1Nb21/vA34e+u67yUUlYpcShCTK8YIhmKro3PfeAmBQ6LsL2n5XMqIH54cDlwGDC0xZAdwEXBL67uwkYxOxQQlCEuV4wU2Y4ricK0LfPc9WPIVE9RljgAuBQttfF2FWG9eEvrs4ydhEkqQEIYlxvGBTTD1C92hoOebZw0xrQRXheMGGwDnAWKBngSmzgIuBW0PfXZFgaCKJUIKQxDhecCmmqV7OraHvnmArno5yvGBzTCI4nsLFpdOA84G/aMeT1BIlCEmE4wXrAzNo2Zb7q6HvTrMU0hpzvGB7zI6ng9uY8jzmgXvYxusiVUUJQhLheMFY4JrY0F9C3/2BrXjWheMF3wCuAoa3MeUB4PzQd99OLiqR0lOCkLJzvCCFacq3RWx4ZOi7L1gKaZ05XtAJGIU5kGibAlOagJuBX4W+OyvJ2ERKRQlCys7xgqOBO2JDz4e+u6eteEopSn4nYp5RbFxgymLgamBc6LsLEwxNZJ0pQUhZRb9pv4o5iyHnkNB3H2zjLVUpesZyVvRPrwJTZgO/Am4OfTebZGwia0sJQsrK8YLvAo/FhqYBO5S7KZ8tjhdsBvwSOAHoUmDKfzA7ue7XjiepdDoPQsrtnLzrcbWaHABC3/0k9N0xmDbmDxSY8hVM244XoofdIhVLKwgpG8cLhgGTY0OzgC+FvrvMUkiJc7xgJKbqeo82pjwInBf67lvJRSXSMVpBSDmdnXc9vp6SA0Dou88DewKHAoW2vX4feN3xgpsdLxiYaHAi7dAKQsrC8YJtMH8h5n4JWQhsGfru5/aissvxgq7ATzE7njYtMOULTK3IlZXQvFBECULKwvGCGwEvNjQu9N38FUVdcrygN6a/0zlA7wJTPgN+DUywcUaGSI4ShJSc4wUDgA9pPtIzCwwOffdje1FVnui/00XAaKBrgSnvY3Y8/Uk7nsQGPYOQcjiVluc9363k0Frou7ND3z0V2B4ICkwZDNwDTHK84FtJxiYCWkFIiUW3T2YAfWPDQ0PffcNSSFXD8YLhmB1Pe7Ux5VHMjqfXkotK6plWEFJqx9MyOTys5NAx0bnX38LsbHqzwJQDgVcdL7jN8YItCrwuUlJaQUjJRH2J3gW2jA3vFfruPy2FVLWiHU/HApcAhba/LgXOCX23MdHApK5oBSGldDgtk8O/gOcsxVLVQt9dEfrurZjK619gtgnH9QCuc7zggMSDk7qhFYSURNSU72Vg59jwYaHvFmo3IWvI8YKNgQswW4dTsZc+xPS20tnYUnJaQUip7EvL5PAOpo2ElEDou/8Lffd0YDvgvdhLW2EK70RKTglCSqVQU74mK5HUsNB338fUTcSNdbxgVxvxSG1TgpB15njBbpgVRM6nwJ2Wwql5oe8+TcsDmLoAEx0vKNReXGStKUFIKeS30Lgu9N2lViKpH2cCc2LXX8cUKIqUjBKErBPHC7YGfhgbWgz4lsKpG6HvfoZJEnGXOl6wZaH5ImtDCULW1Rm0/D6aGPruPFvB1Jk7gL/FrtcDboh2lImsMyUIWWuOF/THtK/OWQGMtxRO3Yka+I0B4mdsHASMshOR1BolCFkXpwA9Y9d/DH13hq1g6lHou//BVFvHXed4wYY24pHaogQha8Xxgl5AOm/4KhuxCOOAeL+rzYDLLcUiNUQJQtbWccBGsevH1GXUjuhQoZPyhj3HC9o6B1ukQ5QgZI1FjeTyd9BcaSMWMULffYHWu8cmOl7QzUY8UhuUIGRtjAK2jl2/CPzDUizS7Hzgk9j1DrSuURHpMCUIWSPRFsr8thpX6khM+0LfnU/r50IXOl7wFRvxSPVTgpA1tQ+wW+z6PUAdWyvH/wEPxa67AzepNkLWhhKErCk15atg0UruFGBRbHhv4Bg7EUk1U4KQDnO8YGfgO7Gh/wF/sBSOtCH03Y8wZ0fEXR2dKSHSYUoQsibyH3g2hr77hZVIpD3XA1Ni1xsBV1uKRaqUEoR0iOMFWwE/jg0tAW60FI60I7rtdxIQv/13tOMF+7bxFpFWlCCko8Zizh3IuSX03TltTRb7Qt99Gbg2b3iC4wU9C80XyacEIe1yvGAj4MTYUBOt/+KRynQx8EHs+svAhVYikaqjBCEd4QG9Ytf3hr77gaVYZA2EvrsY8/8v7mzHC3a0EY9UFyUIKSq6HXFa3rCa8lWR0HcfB+6JDXXFtOHQz78UpW8Qac+xQHx75JOh775iKxhZaz8DPo9dj8CcJSHSJiUIaZPjBV2As/KG1ZSvCoW++ymttyn/1vGCzW3EI9VBCUKKORTzUDPn37Q84lKqy23As7Hr9YHrLMUiVUAJQgpSU77aE/ruSmA0sDw2fJjjBYdYCkkqnBKEtOWbwLDY9XTgfkuxSImEvjuN1qfNXe94wfo24pHKpgQhbclfPVwd+u4KK5FIqV0OvB273gL4jaVYpIIpQUgr0R75A2JDc4DfWwpHSiz03WW0PqI07XjB7jbikcqlBCGF5O9cagx9d4mVSKQsQt99FrglNtQJUxuRshSSVCAlCGnB8YJBQENs6AvgBkvhSHmdA8yOXe+M6bklAihBSGs/w1Ta5twW+u5ntoKR8gl9dx5wet7wxY4XDLYRj1QeJQhZzfGCvrS8N70SuMZSOJKMe4HHY9c9AV9HlAooQUhLY4Desev7Qt9931YwUn5RXcvJmFuJOd8BjrATkVQSJQgBwPGCHrS+3aCmfHUg9N3pwEV5w+MdL+hnIx6pHEoQknM0sEns+unQd1+yFYwkbjwQb8K4MfoFoe4pQYia8glREeRJmOdOOcc7XvAtOxFJJVCCEIDvA0Ni168Cf7UUi1gS+u6LQGPe8E3R7UepQ0oQdS7arXJu3rCa8tWvC4GPY9dDgPMtxSKWKUHInsDw2PWHwH2WYhHLQt9diNnVFHe+4wVftRGP2KUEIflN+a4JfTdrJRKpCKHvPkTLzr0pdERpXdL/8DrmeMEOwEGxobnArZbCkcpyGrAgdr0n8FNLsYglShD1LX/n0g2h7y62EolUlNB3ZwLn5Q1f5XjBpjbiETuUIOpUdBbxkbGhpcD1lsKRynQT8ELsekNMvYTUCSWI+nU65t5yzu2h785ua7LUn9gRpfGDon7keMGBlkKShClB1CHHCzbE9F3KWQVcbSkcqWCh775O66LJGx0vWM9GPJIsJYj6NBqIn0F8f+i779oKRireb4D498dWwK8sxSIJUoKoM44XdMec+RCnthrSptB3v6DlihNgrOMFu9mIR5KjBFF/jgQ2i10/E7VYEGlT6LtPA3+IDXXG1EZ0beMtUgOUIOpIVOh0dt6wVg/SUWcBc2LXXwPSlmKRBChB1JeDgO1i16/T8jQxkTZFR8+ekTf8a8cLtrQRj5SfEkR9yW+roaZ8sqbuBJ6OXa+H2dWkI0prkBJEnXC8YCQwMjb0EXCPpXCkSkW/UIzBFFbmfA9w7UQk5aQEUT/ynz1cq6Z8sjaiLdGX5A1f53hBHxvxSPkoQdQBxwu2Aw6JDX0O3GIpHKkN4zDPsHI2BX5rKRYpEyWI+pDflO/GqO+/yFqJVp8nYarwc0ZHtzKlRihB1DjHCzYDjo4NLaP1sZIiayz03RDw84YnOl7QzUY8UnpKELXvNCD+A3tH6LuzbAUjNefnwCex6+1pvVtOqpQSRA1zvGADwIsNqSmflFTou/OBU/OGL3C8YIiNeKS0lCBq24mYHv45fw59921bwUjNegB4MHbdHZig2ojqpwRRo6L7wGPzhtVWQ0ouqo04FVgUG94bONZORFIqShC16whg89j1P0Pf/ZetYKS2hb77EfCLvOGrHS/Y2EY8UhpKEDVITfnEkhuAeGfgfsA1lmKRElCCqE0HADvErt8EHrUUi9SJ0HebMLURTbHhoxwv2M9SSLKOlCBqU/42w6ui84VFyir03VdovWqY4HhBLxvxyLpRgqgxjheMAPaKDc0EMpbCkfr0K2B67HowcKGlWGQdKEHUnkJN+ZZbiUTqUui7i2lZfwNwtuMFO9mIR9aeEkQNiYqTDo0NLQAmWgpH6ljou08Af4wNdcG04ehiKSRZC0oQteVMIF6c5Ie+u8BWMFL3xgLzYtfDMWdJSJVQgqgRjhdsSsvCpOXAdZbCESH03U9pfcvzcscLNi80XyqPEkTtSGNaHOTcGfruTFvBiERuA/4Ru14fdROuGkoQNcDxgt7AyXnDason1kVtOEZjVrQ5hzpe8ANLIckaUIKoDScA8eMeHwx99y1bwYjERQ0iL80bvj7qNiwVTAmiyjlekALOyBtWWw2pNFcA02LXm9M6aUiFUYKofj8CBsWuXwh993lbwYgUEvruMkwbjrhTHC8YbiMe6RgliCoW9dvPb6uh1YNUpNB3/wncHBvqhKmNSFkKSdqhBFHd9gd2jF2/DTxkKRaRjjgX+DR2vROtb5FKhVCCqG5qyidVJfTdecDpecO/dLzgyzbikeKUIKqU4wXDMKd25cwC7rIUjsia+BPwWOy6J+DriNLKowRRvfIrVMdHDwJFKlpUG3EysCQ2vB/QYCciaYsSRBVyvGAbYFRsaCFwk6VwRNZY6LsfABflDV/reMFGFsKRNihBVKczaPn/7qbQdz+3FYzIWvod8HLsemPgKkuxSAFKEFXG8YIBwHGxoSzmB02kqoS+uwJTGxHfWHGc4wV7t/EWSZgSRPU5FegRu7479N2PbQUjsi5C351C667DNzle0KPQfEmWEkQVcbxgPeCUvOFxNmIRKaELgRmx668AP7cUi8QoQVSX44F+setHQt99w1YwIqUQ+u4iWv/ic57jBdvbiEeaKUFUCccLumJOjItTWw2pCaHvPgwEsaEUpg1HZ/T3lDVdbQcgHXY4sFXsehLwT0uxiJTDacB+sGrDOe/9i/kfTx05d/rk6cBmwP+AKdE/twI6DCsBqlysAlGF6b+BXWLDo0Lf/T9LIYmUxdBDLz3v45eCyz+f8XKxaZ9jTlC8G1iVSGB1SiuI6rAvLZPDf4C/WIpFpFx2f/2BX5zbgXl9gDuBfYCfoiRRNkoQ1SG/Kd+40HebrEQiUh49gTuInYy48cYbs++++7L99tszZ84cJk+ezAsvvBB/z3HAU0Am2VDrhxJEhXO8YDfMCiJnNuYHSaSW/AbYNnfx/e9/n8suu4w+ffq0mPTYY49x1llnMX/+/NzQ9cAz6JlEWWh3QOXLb8r3u9B3l1qJRKQ8umOeKQCwyy67cN1117VKDgAHHHAAV13VohtHX1p2FpASUoKoYI4XbA38MDa0GPAthSNSLjtitrUCcPHFF9O1a9s3Nw488EBGjBgRH/pa+UKrb0oQlS2/Kd/E6MAVkVry9dwfUqkUO+20U7tvGDZsWPxSCaJMlCAqlOMF/TE7NHJWAOMthSNSTpvk/rDhhhvSrVu3dt/Qv3//+OUA9HdZWeg/auU6BbOzI+ePoe/OaGuySBVbXfTw2WefMXv27Hbf8MYbLTrMvELLjrBSIkoQFcjxgl7EHtpF1CdfatWU+MV9991XdPLcuXN5+umn40MvlSEmQQmiUh0HxE/Weiz03ddsBSNSZjOBN3MX48aNY+rUqQUnrlixgnPPPZc5c+bEh58qb3j1Swmiwqgpn9SpE4huE2WzWQ455BCuv/56PvnkE1atWsXSpUv517/+xcEHH8xjjz22+k2dOnd9FHUVKBv1Yqowjhf8CLgnNvQiMDw66F2kll1J67of+vbty4IFC2hqatk8oGuP9Rl62GV3vpJJH5NUgPVGCaKCRE35pgC7xYYPD303aOMtIrWkG3AJnTqdy6rivw/16jeIbb59Guv13xrgG6HvPpdEgPVGt5gqy960TA7vAQ9YikUkacsdL7hl6KGX0qvflm3NWbbRl/f4947ulbnkAObciO7JhFhf1IupsuQ35btaTfmkzkxZf5Mh7Pyja8h+8TmL/vc+0x657AJgFmZ1/eaQ75zRE3gLGBi956uYn51f2wm5dmkFUSEcL9gZ2D829D/gdjvRiCQvOnN9w9x1qmcf+m6520+BSzGHBL0KZEPfXQCcmvf2Cxwv2BYpKSWIypH/cK4x9N0vrEQiYkerAojQd28rNDH03QdouXupGzAheo4nJaIEUQEcL9gK+HFsaAlwo6VwRBIX/cV+QN7wre287VRgUez6W8BPSheVKEFUhrFAl9j1LaHvzmlrskgN+nmBsTHF3hD67scF3jfO8YIBJYuqzilBWOZ4wUbAibGhJuBaS+GI2PKbvOu3Qt9d0YH33QhMjl33A64pWVR1TgnCPg/oFbu+N/TdDyzFIpI4xwv2LzC8d0feG+3yOwnzi1XOkY4XfKcUsdU7JQiLHC/oCZyWN6ymfFJvHs8fCH33046+OfTdV4Gr84YnRE0vZR0oQdh1LLBx7PrJ0HdfsRWMSNIcL/hSoeG1+FK/AqbHrrcGLlqbmKSZEoQljhd0Ac7KG1ZTPqk3k/MHQt/915p+kdB3l9D6ofZZUX2RrCUlCHsOBb4cu/438DdLsYgkLrrFunHesLe2Xy/03SeBTGyoC6YNR5c23iLtUIKwINrznd9W40p1bJU6k8kfCH13wjp+zbFA/Nz23VmHpFPvlCDs+CYQP3V9OnC/pVhEEhf9kvSDvOG71vXrhr47m9a3bi93vGCLdf3a9UgJwo5CTfk6sudbpFbk/yUO8NMSfe3fA8/ErnsDjSX62nVFCSJhjhfsRMuWAnMw39Ai9SR/Q8b7oe8uL8UXjm7VjgHiX+8HjhccWoqvX0+UIJKX/5tTY7QDQ6QuOF6wT4Hhb5TyM0LffZvW1dmNjhdsUMrPqXVKEAlyvGAQcERs6AvgBkvhiNjydP5A6Lszy/A5V2DOjcjZHNM6XDpICSJZP6PlIU23hb77ma1gRJIW/ZKUr6Srh5zoltVJecOnOF4wohyfV4uUIBLieEFfWn6zrkRNxaT+vJA/UM7zpKOvPTE21AlTG5Eq12fWEiWI5IzB7KbIuS/03fdtBSOSNMcLugL5201PT+CjzwPivZ12BM5M4HOrnhJEAhwv6EHrHwQ15ZN602oXUei715X7Q0PfnUfrppi/dLzgy4XmSzMliGQcDWwSu3469N2XbAUjYsnYvOv8eqByug94NHbdA/B1RGlxShBlpqZ8IhA9GI53af2QBA/GimojTsEc55uzH3BkUjFUIyWI8vs+MCR2/SrwV0uxiNiSv3q4LunuAdFBXBfmDV8bneooBShBlFG0fD03b1hN+aSuOF6wFTAqNrQQuNVSONdhOifn9AfGWYql4ilBlNeewPDY9YeYe6Ei9SSNab2dc2vou/NtBBKtWk7CbDPP+YnjBR064rTeKEGUV/5DuGtC381aiUTEAscL1gdOjA2txPwWb020QeR3saFVrN0pdjVPCaJMHC/YATgoNjQXe8tqEVuOB+L9jx4IfXd6W5MTdBEwA3gD2DP03cssx1ORlCDKJ3/n0g2h7y62EomIBdEOvvz6n8R2LhUT+u4izC6m3ULfbVXdLUbX9qfImooOJ4lvn1sKXG8pHBFbDgG2jl1PpkCrDVtC333HdgyVTiuI8jgdiPd6+X100pVIPcnf2nqtdvBVFyWIEnO8oA8wOjakpnxSdxwvGIbZxZfzETpWt+ooQZTeaGD92PX9oe++aysYEUvyVw+N2sFXfZQgSsjxgu6oKZ/UuejMh8NjQ4uBmy2FI+tACaK0jgQ2i13/PfTdF20FI2LJqbQ+GOtzW8HI2lOCKBHHCzoDZ+c5cgvoAAAWTUlEQVQNa/UgdcXxgt60PBhrFS2L0qSKKEGUzkHAdrHr14HHLcUiYstPgD6x67+EvvuepVhkHSlBlE5+Ww015ZO6Eq2iK7IwTtaOEkQJOF4wEhgZG/oIuMdSOCK2HARsE7t+CfinpVikBJQgSiP/2cO12tIndeiMvGsVxlW5srXaSKUznYD9gaeyjQ2JHgySJMcLtsO0FMj5HLjFUjgiVjhesBvwzdjQTNTavuqVcwWxB/AY8H4qnTk7lc70LeNn2ZTflO/G0HcXWolExJ5ChXHLrUQiJVPOBJH7hhmEOYP541Q6c0Mqndm2jJ+ZKMcLBgJHx4aWAY2WwhGxIvo5+HFsaAkw0VI4UkJlucWUSme2Ag7NG+4FnAycnEpnHgXGY24/VfM9ytOAbrHrP4S+O8tWMCKWnELLv0tuD313rq1gpHTKtYL4L/BD4Lk2Xj8QeBJ4LZXOnJBKZ3qWKY6ycbxgA8CLDa0CrrYUjogVjhf0AsbkDaswrkaUJUFkGxtWZBsb7s82NnwDGAbcBRR6UL0DpkfLR6l05jepdGZgOeIpk5NofVKW+stLvTkG6Be7fkg/B7WjU1IfFP3l72F+2+jfxrQVwL3A+Gxjw5SkYltTjhd0A6YD8YQ2IvTdSZZCEklcVBj3FjAkNrxP6Lt/txSSlFhidRDZxoaZ2caGC4EtMYeYv1FgWldMw7sXU+nMc6l0xk2lM5V46l0DLZPDs0oOUocOoGVyeBV4xk4oUg6JF8plGxu+yDY23ALsiDkT9pE2po7E7KN+N5XOnJlKZ/q0MS9RbTTlu9JGLCKW5RfGXaPCuNqS2C2mYlLpzBDMjqDjMLudClkM/B64LtvY8J+kYsvneMFBwEOxoTeAnULfXWkpJJHEOV6wM/BKbGgWsJVqH2pLRbTayDY2vJNtbDgV2ALz2/mMAtPWw/SZfzuVzjyUSme+HVVrJ61VS28lB6lDP8u7vl7JofZUxAoiX/Tc4QeYb8KRRaa+jqmnyGQbG74od1yOF4wAwtjQf4HB+sGQeuJ4wabAhzTXAC0FBoW++5m9qKQcKmIFkS/aJhtkGxv2BHYH7qbwNtmhmL5HM1LpzCWpdGazAnNKKX/1MF7JQerQybQuEFVyqEEVuYIoJJXObI75xhxDy33XcVlMm+3fZRsbXirl5zteMASYRvN/swWY35oWlPJzRCqZ4wU9MbeA41vVvxr67jRLIUkZVeQKopBsY8N/s40Nv8D0djoJeLPAtBSmN9KUVDrzbCqdOSyVznQpUQhn0jKh+koOUoeOomVyeEzJoXZVzQoiX/SAel/Mc4oDi0z9ANNA79ZsY8P8NfyYnsBmux09YVn33v3fA7pH48uBrUPfnbmGX0+kajle0Amza++rseH9Qt99ylJIUmZVmyDiog6xpwPH0vY22UU0b5N9t8iXG4J51jAM84yjS6fOXZevv+mQbhtstj0Dd/0BXVI9bg1994QS/iuIVDzHC76LaeGf8xqws2ofaldNJIicVDrTDzgBSGO2zBayClPHMB54JtZNtnP0vssxK4eCuq8/gPX6f+nYudMn31GywEWqgOMFTwDfiQ0dH/ru723FI+VXUwkiJ5XOpDDtxn8GOEWmTgXGr1o4554Vt6dvo2VP+/Ycj1mRiNQ8xwuGYlYMObMxhXFLLYUkCajJBBGXSmeGY24/HU4b51+sfOvZBU1PTYh3ZuXQQw9ljz32YODAgbz99ts8+uijTJnSon/gIswtqA/LFLpIxXC84Bbgp7GhX4a+e4mteCQZNZ8gclLpzBaYbbKjiW+TXfI52bvOhmWLAejbty8TJ07EcVouPFauXMktt9zCJZe0+Jn4G+ZBue7BSs1yvGAAZmtrbpPGMmDL0Hdn24tKklA121zXVbax4eNsY8PPMdtkR2PaFLPy/SmrkwPAFVdc0So5AHTu3JmTTjqJI444Ij68D7BVOeMWqQAezckB4C4lh/pQNwkiJ9vYsCTb2DARc1jRd1d++OrHudd23HFHDjyw2I5ZOPfcc/OHvl7yIEUqhOMFPTAr77hrbcQiyavEsxYSEe1eegKYQ7Tjadddd233ff3792fQoEF89NFHuaGvAUGZwhSxrQEYELt+MvTdQme5SA2quxVEAevl/tCzZ8eOxs6b17vE8YhUhKgwbmze8DU2YhE7lCBgdc+mqVOntjt5yZIlvPtuc51d591H7ZBKZ3YqT2giVu2L2amX8ybwpKVYxAIlCFi9d3Xy5Mm89tprxeZy++23s3Jl8/EPnbfZfW/g1VQ680IqnTk6lc70KFukIsnKXz2MV9V0fVGCgEeJWok3NTVx+umnM3t24Q0akyZN4qqrrlp93anPpnTqu/poage4A/g4lc5clUpntilr1CJl5HjBVzFnTud8BtxlKRyxpFSdTqvZ/zCJ8lsAc+bM4Z577qFXr1706tWL7t27M3XqVG6++WbOP/98mpqacu9b1eV7Z67otMHG+f8NewF7AKd1GT5qZJfhoxZ1GT7q3ZWT79epc1I1Bg374aWYDRg5V4e++1db8YgddVMo144UMAlofxtTs3GpdOYqzDnao4Gti8ydCdwM3JxtbPjvWkcpkgDHC/oDHwG526XLMW01ZtmLSmxQgmi2EaYt+BHtzFsGXIjZzdEEkEpnOmOamHnAQbR9664J0yjQB57KNjZoVSEVx/GCC4Bfx4ZuD333OFvxiD1KEK2NAn6JKaSL/0W/BHge0wCw0GFFAKTSmS0xHWVPBDYt8jnvATcBv882Nui4RqkIjhd0x5yhEv/e3Tn03fa3+EnNUYJo23rAzphWGlMxx402FX1HTNRR9hDMEanfLjJ1GXAfMAF4IdZ+XCRxjhccC9weG3o69N19LYUjlilBJCA60Gg08BOgb5Gpr2FuP92VbWxYmEBoIqtFhXEvY34xyjko9N1HLIUklilBJCiVzvQEfoh5VjG8yNRFwN2An21seDWJ2EQcL9gHeDo29Dawfei7elZWp5QgLEmlM7tibj8dSazdRwEh5vbTn7KNDTqcRcrG8YKHMJsscrzQdyfYikfsU4KwLJXObAgchVlV7FBk6lzMCXY3ZRsb/pNEbFI/HC8Yglkx5MwFBoW+u8RSSFIBlCAqRCqd6QSMxCQKF+hWZPpTmGcVD2UbG7IJhCc1zvGCGzHfezmXhb77C1vxSGVQgqhAqXRmY5oL8AYXmToTuAVTgPdxkXkibXK8oB/wMZBrU5wFvhT67kx7UUklUIKoYFEB3n6Y3+wOpv0CvAnAX1WAJ2vC8YLzgctiQ3eGvnuMrXikcihBVIlUOjOI5gK8zYpMVQGedJjjBd2A6cDA2PBuoe++bCkkqSBKEFUmKsD7PmZVUawAbzmmAM9HBXjSBscLjgLujA09E/ru3rbikcqiBFHFUunMEMxziuNovwBvAqYAb0ESsUnliwrjpgC7xYYPCX33QUshSYVRgqgBUQHe4ZhVxYgiUxfTXID3ShKxSeVyvGAv4B+xoXeBbVUYJzlKEDUmlc7sginAO4riBXj/wtx+ui/b2PBFErFJZXG84M+YfmE5p4a+e4OteKTyKEHUqFQ6swHNBXhDi0ydi2nONkEFePXD8YJtgHdo/jtgHqYwbrG9qKTSKEHUuKgAbw9Mojic4gV4T2NWFQ+qAK+2OV7QCJwaG7oi9N3zbMUjlUkJoo5EBXg/wdyCKlaA9wnNBXgfJRCaJMjxgj6YwrjcLcgVwNah76rYUlpQgqhDsQK8MZgts20V4K2kuQDvSRXg1QbHC84GrowNZULfPdJWPFK5lCDqXCqd2QJTfNdeAd77NBfg/S+J2KT0HC9IYf5fbhEbHhb67hRLIUkFU4IQYHUB3sGYZxXFThBbDgSYZxXPqwCvujhe8GPgj7Ghf4a+u5eteKSyKUFIK6l05is0F+D1KzL1dcztpztVgFf5osK4ScCw2PBhoe8+YCkkqXBKENKmqADPxawqnCJTcwV4E7KNDerhU6EcLxgJPBcbeh8YEvpuh89al/qiBCEdkkpndsYkivYK8CZhbj/9SQV4lcXxgvuBw2JDp4e+e52teKTyKUHIGokK8I7EJIsdi0ydR3MB3jsJhCZFOF6wNaaVRm7H2gJgi9B3F9qLSiqdEoSslagAz8Ekih9SvADvb5hVxV9UgGeH4wXXAj+LDY0LffdsW/FIdVCCkHWWSmf601yA9+UiU1WAZ4HjBRtiCuN6R0NNwODQd2fYi0qqgRKElExUgLcvzQV4XdqYuhJ4GLOqUAFemTlecAZwdWzo3tB3f2wrHqkeShBSFlEBXu4EvIFFpk7HFODdpgK80nO8oCvmlMEtY8MjQt+dZCkkqSJKEFJWUQHeQZhnFfsVmbocuB+zqnhOBXil4XjB4cCfYkNh6Lt72IpHqosShCQmKsA7CTie4gV4b9BcgDc/idhqleMFL9CyhuXw0HcDW/FIdVGCkMSl0pkemNbjYzCtyNuyGMhgtsr+O4nYaonjBSOAMDb0IbBN6LsrLIUkVUYJQqyKCvByJ+D1LjJ1Mub2070qwOsYxwvuxWxBzjkj9N1rbcUj1UcJQipCKp1Zn+YCvJ2KTP2c5gK8txMIrSo5XrAVppVGrjBuIaYwTj2zpMOUIKSixArwxmB+++1eZPrfMM8q/qwCvJYcLxgHnBkbGh/67lhb8Uh1UoKQirUGBXizaC7Aq/viL8cL1scUxm0QDa3EPHuYbi8qqUZKEFLxogK8b2NuP7VXgPcIzQV4ddml1PGC04HxsaH7Q991bcUj1UsJQqpKKp3ZnOYCvM2LTP2A5gK82QmEVhEcL+gC/AfYOjY8MvTdFyyFJFVMCUKqUiqd6UpzAd53ikzNYk7AmwD8s9YL8BwvOAxTcJgzGVM5XdP/3lIeShBS9VLpzDY0F+BtVGRqzRfgOV7wT2DP2NCPQ9+911Y8Ut2UIKRmRAV4uRPwihXgLcEU4Pm1VIDneMEwzIoh5yNM11YVxslaUYKQmpRKZ3bC7H46muIFeC/SXIC3JInYysXxggxwRGzonNB3r7IVj1Q/JQipaVEBXgNmVbFzkamfA3/AFOBNSyK2UnK8YBCmMK5rNLQYUxj3ub2opNopQUhdiArwRmBWFT+ieAHe32k+AW95AuGtM8cLrgDOiQ01hr57mq14pDYoQUjdSaUzG9FcgLdNkamfYgrwJlZyAZ7jBb0xzxv6REOrgK+EvvuevaikFihBSN2KCvD2wdx+OoTiBXiPYlYVT1RaAZ7jBacCjbGhP4e+e6iteKR2KEGIsLoA76eY7bLtFeBNBG6thAK8qDBuGi1XQt8MffdZSyFJDVGCEImJFeCNAfYvMjWLKUibADxrqwDP8YJDgD/Hhl4ChqkwTkpBCUKkDal05svAaNovwHuT5gK8RHcNOV7wDPDN2NBRoe/enWQMUruUIETaERXgjcI8qxhZZOoS4I+YAryXyh2X4wW7YVYMOf/FFMZVxc4rqXxKECJrIJXO7EhzAd76Raa+iFlV3FOuAjzHC+7EnMSXc37ou78tx2dJfVKCEFkLUQHeEZhVxS5FpuYK8G7KNja8VarPd7xgc8wD81xh3BJgUOi7c0v1GSJKECLrICrAG45JFO0V4D2D2Sr753UowOsCNDlecBlwfmz8xtB3T1nLrylSkBKESImk0pl+NBfgfaXI1E+BWzEFeB+282V7Ys6+2AP4OuZkvff7DR6+xQabbd9tk+33pXPX7gDbhr77zjr+K4i0oAQhUmJRAd7emFXFD2i7AG8VzQV4jxcowBuBuT01pK3P6tFnIF/a49jnpj16+TfWOXCRPEoQImWUSmcG0lyAt0WRqR/SfALep5jttTcCnTvwMauAkzEPxUVKRglCJAFRAd73aC7Aa+tnL7ty1n+earrv4m/Dqm65wW233ZZvfetbDB48mOnTp/PMM88wbVqLprPLgF2Bkj0IF1GCEElYKp0ZTHMBXv8WL65sYsX9v2LVrHcB6NSpE+eddx6jR4+ma9euq6c1NTVx0003cfnll7Nq1eqi6Rcxzyp0QJCURFv3RkWkTFZOvn/eysn3P9Vl+KjrML/xbwJsCbDqk3dY+eIDq+eeeOKJnH322XTu3PJOU+fOnRk2bBiLFi3ipZdW18ptDvwNc7tKZJ1pBSFSAaICvNFN/374hJXPZ7oD9OrVi6lTp9KjR48237d06VJ23nlnFi9enBs6E7im7AFLXeja/hQRKbdsY8NrwKl07tIfU0/B0KFDiyYHgB49ejB06FAmTZqUG/p6WQOVutKRHRIikpSVTf1yf+zXr1+xmav179/iMcaAEkckdUwJQqSyvJz7w5tvvtmhN7z++uur/9xp669tkEpnihXpiXSYEoRIZZmS+8OMGTPit44KmjRpEh9+2PxMuvO2ewwD3kmlM39NpTOjUulMqmyRSs3TQ2qRyjIQeA/oAbDlllvy0EMPsdFGrY+jmDNnDgcffDAzZkTHZXdJ0fWYa+nUu8WtqVmYc7VvruRztaUyaZurSGVZiOnMuj/A/Pnzue+++9hkk03YZJNN6NmzJ/PmzePxxx/nuOOOY9asWavf2HnkEas6b7Vz/i99vYG9gNO7DB81rMvwUQu6DB/1/srJ9+vEOWmXVhAilaczpvNrq/5Kffv2Zd68eYXe83zX4288qtN6fY7DNPfbrMjXn4E5V/u2bGPDJ+sertQqJQiRyjSga/fef1yxbNE+HZj7F0yvp9kA0XOH3Lna3ynyvhWY86wnAH/PNjasXLeQpdYoQYhUqBFj/nTLnHef/+kHz/+B7BcFj7r+FFMYl8E07Gsllc5sg1lRtG7r0dJ/MM0C/5BtbPhsnQKXmqEEIVKBHC8YgLkV1B1WsXTB7OVvPXzpyUvnz9wUeBuz2+lD2kgM+VLpTHfgMMyqYq8iU5cB92FWFS9kGxv0rKKOKUGIVCDHC34JXBwbujX03RNK8bVT6cz2mGaBxwIbFpn6OiZR3JVtbJhfis+W6qIEIVJhHC/ogVk9bBwbHhr67hul/JxUOtML09ZjDLB7kalLMLexJmQbG14qMk9qjBKESIVxvOB4zJGkOU+Gvrt/OT8zlc7shllVHAms18a0LDBQzyjqhyqpRSqI4wWdgLF5w2XvzpptbPh3trFhNKZQ72TgtQLT/k/Job4oQYhUln2BobHrN4Enk/rwbGPDgmxjgw/sjDl86A7Mg2vQkaZ1R+2+RSpL/uphfOi7ie8kinYvhUCYSmfGAqOAfyQdh9ilZxAiFcLxgq9iVgw5nwFbhr77haWQpM7pFpNI5fhZ3rWv5CA2KUGIVADHC/oDx8SGlgM3WgpHBFCCEKkUY4hafEcyoe/OamuySBKUIEQsc7ygO3BK3vB4G7GIxClBiNj3Y2DT2PXToe++aisYkRwlCBGL2iiMu9ZGLCL5lCBE7NobU5SW8zbwmKVYRFpQghCxK/9An/Gh7+rgHqkIShAiFoW+ex4wHLgHcwDQHXYjEhGRiuN4QS/bMYiIiIiIiIiIiIiIiIiIiIiIiIiIiIiIiIiIiIiIiIiIiIiIiIiIiIiIiIiIiIiIiIiIiIiIiIiIiIiIiIiIiIiIiIiIiIiIiIiIiIiIiIiIiIiIiIiIiIiIiIiIiIiIiIiIiIiIiIiIiIiIiIiI1LP/B/pNH992iD8NAAAAAElFTkSuQmCC;" vertex="1" parent="1">
          <mxGeometry x="840.0671492204899" y="286.15723865877715" width="193.04036047020597" height="229.9741029071076" as="geometry" />
        </mxCell>
      </root>
    </mxGraphModel>
  </diagram>
</mxfile>
